<?xml version="1.0" encoding="utf-8"?>
<!-- Generator: Adobe Illustrator 24.1.1, SVG Export Plug-In . SVG Version: 6.00 Build 0)  -->
<svg version="1.1" id="Layer_1" xmlns="http://www.w3.org/2000/svg" xmlns:xlink="http://www.w3.org/1999/xlink" x="0px" y="0px"
	 viewBox="0 0 752 752" style="enable-background:new 0 0 752 752;" xml:space="preserve">
<style type="text/css">
	.st0{clip-path:url(#SVGID_2_);}
	.st1{fill:#FF9F00;}
</style>
<g>
	<defs>
		<rect id="SVGID_1_" x="0" y="45.7" width="752" height="660.6"/>
	</defs>
	<clipPath id="SVGID_2_">
		<use xlink:href="#SVGID_1_"  style="overflow:visible;"/>
	</clipPath>
	<g class="st0">
		<path class="st1" d="M94,47c-34.6,0-62.7,28.2-62.7,62.7v71.4C12.7,192,0,211.9,0,235v407.3C0,676.8,28.1,705,62.7,705h626.7
			c34.6,0,62.7-28.2,62.7-62.7V235c0-23.1-12.7-43-31.3-53.9v-8.8c0-34.5-28-62.7-62.7-62.7H407.3l-94-62.7L94,47z M94,141h564
			c25.4,0,47.2,15.3,57,37c-7.9-3.6-16.5-5.7-25.7-5.7H62.7c-9.2,0-17.8,2.1-25.7,5.7C46.8,156.3,68.6,141,94,141L94,141z"/>
	</g>
</g>
</svg>
