<?xml version="1.0" encoding="utf-8"?>
<!-- Generator: Adobe Illustrator 24.1.1, SVG Export Plug-In . SVG Version: 6.00 Build 0)  -->
<svg version="1.1" id="Layer_1" xmlns="http://www.w3.org/2000/svg" xmlns:xlink="http://www.w3.org/1999/xlink" x="0px" y="0px"
	 viewBox="0 0 1964.6 148.1" style="enable-background:new 0 0 1964.6 148.1;" xml:space="preserve">
<style type="text/css">
	.st0{fill:#194BED;}
</style>
<g>
	<polygon class="st0" points="221.9,147.5 220.6,148.1 222.1,148.1 	"/>
	<polygon class="st0" points="215.5,148.1 221.1,145.5 220.2,142.9 209.1,148.1 	"/>
	<polygon class="st0" points="204,148.1 219.5,140.9 218.5,138.3 197.6,148.1 	"/>
	<polygon class="st0" points="192.7,148.1 217.8,136.4 216.9,133.9 186.3,148.1 	"/>
	<polygon class="st0" points="181.2,148.1 216.1,131.8 215.2,129.3 174.8,148.1 	"/>
	<polygon class="st0" points="169.6,148.1 214.4,127.2 213.5,124.7 163.2,148.1 	"/>
	<polygon class="st0" points="160.3,147.2 212.8,122.7 211.8,120.2 159.4,144.6 	"/>
	<polygon class="st0" points="211.1,118.1 210.1,115.6 158,139.9 158.8,142.5 	"/>
	<polygon class="st0" points="157.3,137.8 209.4,113.6 208.4,111 156.5,135.2 	"/>
	<polygon class="st0" points="125.1,144.6 117.6,148.1 124,148.1 	"/>
	<polygon class="st0" points="155.9,133.2 207.7,109.1 206.8,106.5 155.1,130.6 	"/>
	<polygon class="st0" points="154.5,128.5 206,104.5 205.1,101.9 153.6,125.9 	"/>
	<polygon class="st0" points="125.9,141.8 127,138.3 106.1,148.1 112.5,148.1 	"/>
	<polygon class="st0" points="153,123.8 204.3,99.9 203.4,97.4 152.2,121.2 	"/>
	<polygon class="st0" points="127.9,135.5 128.9,132.1 94.6,148.1 100.9,148.1 	"/>
	<polygon class="st0" points="151.6,119.2 202.7,95.4 201.7,92.9 150.8,116.6 	"/>
	<polygon class="st0" points="129.8,129.4 130.8,125.9 83.3,148.1 89.7,148.1 	"/>
	<polygon class="st0" points="150.1,114.5 201,90.8 200,88.3 149.3,111.9 	"/>
	<polygon class="st0" points="131.7,123.1 132.8,119.6 71.7,148.1 78.1,148.1 	"/>
	<polygon class="st0" points="133.6,117 134.7,113.5 63.1,146.9 62.6,148.1 66.8,148.1 	"/>
	<polygon class="st0" points="148.7,109.9 199.3,86.3 198.4,83.8 147.9,107.3 	"/>
	<polygon class="st0" points="146.4,102.6 147.2,105.2 197.6,81.7 196.7,79.2 	"/>
	<polygon class="st0" points="135.5,110.7 136.6,107.2 65.4,140.4 64.1,144 	"/>
	<polygon class="st0" points="137.5,104.4 138.5,100.9 67.8,133.9 66.5,137.5 	"/>
	<polygon class="st0" points="195,74.6 144.9,97.9 145.8,100.6 195.9,77.2 	"/>
	<polygon class="st0" points="193.3,70.1 143.5,93.4 144.3,96 194.3,72.7 	"/>
	<polygon class="st0" points="139.4,98.3 140.4,94.8 70.1,127.6 68.8,131.2 	"/>
	<polygon class="st0" points="141.3,92 142.2,89.1 142.9,91.3 192.6,68.1 191.6,65.5 72.5,121.1 71.2,124.7 	"/>
	<polygon class="st0" points="190.9,63.5 189.9,61 74.9,114.6 73.6,118.2 	"/>
	<polygon class="st0" points="189.2,59 188.3,56.5 77.2,108.2 75.9,111.8 	"/>
	<polygon class="st0" points="187.5,54.4 186.6,51.9 79.6,101.8 78.3,105.4 	"/>
	<polygon class="st0" points="185.8,49.8 184.9,47.3 82,95.3 80.7,98.9 	"/>
	<polygon class="st0" points="184.2,45.3 183.2,42.8 84.3,88.9 83,92.5 	"/>
	<polygon class="st0" points="182.5,40.8 181.5,38.2 86.7,82.4 85.4,86 	"/>
	<polygon class="st0" points="180.8,36.2 179.8,33.6 89.1,76 87.8,79.6 	"/>
	<polygon class="st0" points="179.1,31.7 178.2,29.1 91.4,69.6 90.1,73.2 	"/>
	<polygon class="st0" points="177.4,27.1 176.5,24.6 93.8,63.1 92.5,66.7 	"/>
	<polygon class="st0" points="175.7,22.5 174.8,20 96.2,56.6 94.8,60.2 	"/>
	<polygon class="st0" points="174.1,18 173.1,15.5 98.5,50.3 97.2,53.9 	"/>
	<polygon class="st0" points="171.2,14 164.8,14 100.9,43.8 99.5,47.4 	"/>
	<polygon class="st0" points="159.7,14 153.3,14 103.2,37.3 101.9,40.9 	"/>
	<polygon class="st0" points="148.4,14 142,14 105.6,31 104.3,34.6 	"/>
	<polygon class="st0" points="136.8,14 130.4,14 108,24.5 106.6,28.1 	"/>
	<polygon class="st0" points="125.3,14 118.9,14 110.3,18 109,21.6 	"/>
	<polygon class="st0" points="111.3,15.2 114,14 111.8,14 	"/>
	<path class="st0" d="M502.6,106.7l2-0.9c-0.1-1-0.2-1.9-0.3-2.8l-8.1,3.8H502.6z"/>
	<path class="st0" d="M504,100.8c-0.1-0.9-0.3-1.9-0.4-2.8l-18.7,8.7h6.4L504,100.8z"/>
	<path class="st0" d="M479.8,106.7l23.5-11c-0.2-0.9-0.3-1.8-0.5-2.7l-29.4,13.7H479.8z"/>
	<path class="st0" d="M468.3,106.7l34.1-15.9c-0.2-0.9-0.4-1.8-0.6-2.7l-39.9,18.6H468.3z"/>
	<path class="st0" d="M501.3,86c-0.2-0.9-0.5-1.8-0.7-2.6l-50,23.3h6.4L501.3,86z"/>
	<path class="st0" d="M499.1,78.7l-58.9,27.4c0,0.2,0,0.4,0,0.6h5.1l54.5-25.4C499.7,80.4,499.4,79.5,499.1,78.7z"/>
	<polygon class="st0" points="345.1,148.1 345.4,148 345.4,145 338.7,148.1 	"/>
	<path class="st0" d="M498.4,76.6c-0.3-0.9-0.6-1.7-0.9-2.5L440,100.9c0.1,0.9,0.2,1.9,0.2,2.9L498.4,76.6z"/>
	<polygon class="st0" points="333.8,148.1 345.4,142.7 345.4,139.7 327.4,148.1 	"/>
	<path class="st0" d="M496.8,72.1c-0.3-0.8-0.7-1.7-1-2.5l-56.4,26.3c0.1,0.9,0.3,1.8,0.4,2.8L496.8,72.1z"/>
	<path class="st0" d="M322.3,148.1l23.1-10.8v-0.9c0-0.7,0-1.4,0-2.1l-29.5,13.8H322.3z"/>
	<path class="st0" d="M494.8,67.6c-0.4-0.8-0.8-1.6-1.2-2.4L438.4,91c0.2,0.9,0.4,1.8,0.6,2.7L494.8,67.6z"/>
	<path class="st0" d="M492.7,63.3c-0.4-0.8-0.8-1.6-1.3-2.4l-54.4,25.4c0.3,0.8,0.5,1.7,0.8,2.6L492.7,63.3z"/>
	<path class="st0" d="M310.8,148.1l34.7-16.2c0-1,0.1-2,0.1-3l-41.2,19.2H310.8z"/>
	<path class="st0" d="M490.4,59.1c-0.5-0.8-0.9-1.6-1.4-2.3l-53.7,25c0.4,0.8,0.7,1.6,1,2.5L490.4,59.1z"/>
	<path class="st0" d="M299.5,148.1l46.2-21.6c0.1-1,0.1-2.1,0.2-3.1l-52.8,24.6H299.5z"/>
	<path class="st0" d="M487.8,54.9c-0.5-0.8-1-1.5-1.5-2.3L433,77.5c0.5,0.8,0.9,1.5,1.4,2.3L487.8,54.9z"/>
	<path class="st0" d="M288,148.1l58.1-27.1c0.1-1,0.2-2.1,0.3-3.1l-64.8,30.2H288z"/>
	<path class="st0" d="M279.7,146.6l66.9-31.2c0.1-1.1,0.2-2.1,0.4-3.2l-67.3,31.4V146.6z"/>
	<path class="st0" d="M485,50.9c-0.5-0.7-1.1-1.5-1.7-2.2L430,73.5c0.6,0.7,1.2,1.4,1.8,2.2L485,50.9z"/>
	<path class="st0" d="M480.1,44.9L426.2,70c0.6,0.5,1.2,1,1.8,1.5c0.2,0.1,0.3,0.3,0.5,0.5L482,47C481.4,46.3,480.7,45.6,480.1,44.9
		z"/>
	<path class="st0" d="M347.3,109.8c0.2-1.1,0.3-2.2,0.5-3.2l-68.1,31.8c0,0.9,0,1.7,0,2.6v0.4L347.3,109.8z"/>
	<path class="st0" d="M279.8,135.9l68.6-32c0.2-1.1,0.4-2.2,0.7-3.3l-69.1,32.2C279.8,133.9,279.8,134.9,279.8,135.9z"/>
	<path class="st0" d="M478.6,43.2c-0.6-0.7-1.3-1.4-2-2.1l-55.2,25.7c1,0.5,1.9,1.1,2.8,1.7L478.6,43.2z"/>
	<path class="st0" d="M415.6,64.2c1.2,0.4,2.3,0.9,3.4,1.4L475,39.5c-0.7-0.7-1.4-1.3-2.1-2L415.6,64.2z"/>
	<path class="st0" d="M280,130.4L349.6,98c0.3-1.2,0.6-2.3,0.9-3.4l-70.4,32.8C280.1,128.4,280,129.4,280,130.4z"/>
	<path class="st0" d="M280.3,125l71-33.1c0.4-1.2,0.8-2.4,1.3-3.6l-72,33.6C280.5,122.9,280.4,124,280.3,125z"/>
	<path class="st0" d="M408.5,62.3c1.4,0.3,2.8,0.6,4.2,1L471.2,36c-0.1-0.1-0.1-0.1-0.2-0.2c-0.7-0.6-1.4-1.1-2.1-1.7L408.5,62.3z"
		/>
	<path class="st0" d="M280.8,119.4l73-34c0.6-1.3,1.2-2.6,1.9-3.8l-74.5,34.7C281,117.3,280.9,118.4,280.8,119.4z"/>
	<path class="st0" d="M467,32.6c-0.8-0.6-1.6-1.2-2.5-1.8l-65,30.3c1.8,0.1,3.5,0.3,5.2,0.6L467,32.6z"/>
	<path class="st0" d="M281.5,113.7l76.1-35.5c1.1-1.6,2.2-3.2,3.5-4.6l-79,36.9C281.8,111.6,281.7,112.6,281.5,113.7z"/>
	<path class="st0" d="M459.9,27.5L388.2,61c1.4-0.1,2.9-0.2,4.4-0.2c0.8,0,1.5,0,2.3,0l67.6-31.5C461.7,28.7,460.8,28.1,459.9,27.5z
		"/>
	<path class="st0" d="M282.4,108l83.2-38.8c4.4-3.5,9.6-6,15.6-7.3l76.6-35.7c-0.9-0.6-1.9-1.1-2.8-1.7l-172,80.2
		C282.8,105.9,282.6,106.9,282.4,108z"/>
	<path class="st0" d="M283.5,102.1l169-78.8c-1-0.5-2-1.1-3.1-1.5L284.3,98.8C284,99.9,283.8,101,283.5,102.1z"/>
	<path class="st0" d="M284.9,96.1l162-75.5c-1.1-0.5-2.2-1-3.3-1.4L285.8,92.7C285.5,93.8,285.2,95,284.9,96.1z"/>
	<path class="st0" d="M440.9,18.1c-1.2-0.4-2.4-0.9-3.6-1.3L287.7,86.6c-0.4,1.2-0.7,2.3-1.1,3.5L440.9,18.1z"/>
	<path class="st0" d="M430.3,14.7L289.9,80.1c-0.5,1.2-0.9,2.4-1.3,3.6l145.6-67.9C432.9,15.4,431.6,15.1,430.3,14.7z"/>
	<path class="st0" d="M292.7,73.5c-0.5,1.2-1.1,2.5-1.6,3.7L427,13.9c-1.4-0.3-2.9-0.6-4.4-0.9L292.7,73.5z"/>
	<path class="st0" d="M296,66.7c-0.7,1.3-1.3,2.6-1.9,3.9l125-58.3c-1.6-0.3-3.2-0.5-4.8-0.7L296,66.7z"/>
	<path class="st0" d="M300.1,59.4c-0.8,1.3-1.6,2.7-2.4,4.1L410.2,11c-1.8-0.2-3.6-0.3-5.4-0.5L300.1,59.4z"/>
	<path class="st0" d="M305.4,51.5c-1.1,1.4-2.1,2.9-3.1,4.4l98-45.7c-2-0.1-4-0.1-6-0.2L305.4,51.5z"/>
	<path class="st0" d="M312.6,42.9c-1.5,1.6-2.9,3.3-4.3,5l81-37.8c-2.4,0.1-4.8,0.2-7.2,0.4L312.6,42.9z"/>
	<path class="st0" d="M324.7,31.9c-2.7,2.1-5.2,4.2-7.7,6.6l58.5-27.3c-3.5,0.5-7,1.1-10.4,1.8L324.7,31.9z"/>
	<path class="st0" d="M350.6,17.4c-4.6,1.8-9,3.8-13.3,6.2L350.6,17.4z"/>
	<path class="st0" d="M752.1,106.7c0-0.5-0.1-0.9-0.1-1.4l-2.9,1.4H752.1z"/>
	<path class="st0" d="M744.1,106.7l7.6-3.5c-0.1-0.9-0.2-1.9-0.3-2.8l-13.6,6.4H744.1z"/>
	<path class="st0" d="M751,98.1c-0.1-0.9-0.3-1.9-0.4-2.8l-24.4,11.4h6.4L751,98.1z"/>
	<path class="st0" d="M750.2,93.1c-0.2-0.9-0.3-1.8-0.5-2.7l-35,16.3h6.4L750.2,93.1z"/>
	<path class="st0" d="M749.2,88.3c-0.2-0.9-0.4-1.8-0.6-2.7l-45.2,21.1h6.4L749.2,88.3z"/>
	<path class="st0" d="M748,83.5c-0.2-0.9-0.5-1.8-0.7-2.6l-55.4,25.8h6.4L748,83.5z"/>
	<polygon class="st0" points="592.8,147.5 591.6,148.1 592.8,148.1 	"/>
	<path class="st0" d="M746.5,78.8c-0.3-0.9-0.6-1.7-0.9-2.6l-58.1,27.1c0.1,1,0.1,1.9,0.1,2.9L746.5,78.8z"/>
	<path class="st0" d="M745,74.3c-0.3-0.8-0.6-1.7-1-2.5l-56.9,26.5c0.1,0.9,0.2,1.9,0.3,2.8L745,74.3z"/>
	<polygon class="st0" points="586.7,148.1 592.8,145.2 592.8,142.3 580.3,148.1 	"/>
	<path class="st0" d="M743.1,69.8c-0.4-0.8-0.7-1.7-1.1-2.5l-55.8,26c0.2,0.9,0.3,1.8,0.5,2.8L743.1,69.8z"/>
	<polygon class="st0" points="575.1,148.1 592.8,139.9 592.8,136.9 568.7,148.1 	"/>
	<path class="st0" d="M563.6,148.1l29.3-13.6c0-1,0-2,0.1-3l-35.7,16.7H563.6z"/>
	<path class="st0" d="M741.1,65.3c-0.4-0.8-0.8-1.6-1.2-2.4l-54.7,25.5c0.2,0.9,0.5,1.8,0.7,2.7L741.1,65.3z"/>
	<path class="st0" d="M738.9,61.1c-0.4-0.8-0.9-1.6-1.3-2.4l-53.9,25.2c0.3,0.8,0.6,1.7,0.9,2.6L738.9,61.1z"/>
	<path class="st0" d="M552.3,148.1l40.7-19c0-1,0.1-2,0.1-3l-47.2,22H552.3z"/>
	<path class="st0" d="M736.4,56.9c-0.5-0.8-1-1.5-1.5-2.3l-53.4,24.9c0.4,0.8,0.8,1.6,1.2,2.4L736.4,56.9z"/>
	<path class="st0" d="M540.8,148.1l52.5-24.5c0.1-1,0.1-2.1,0.2-3.1l-59.2,27.6H540.8z"/>
	<path class="st0" d="M733.7,52.8c-0.5-0.7-1.1-1.5-1.6-2.2l-53.2,24.8c0.5,0.7,1.1,1.5,1.6,2.2L733.7,52.8z"/>
	<path class="st0" d="M529.3,148.1l64.5-30.1c0.1-1.1,0.2-2.1,0.3-3.1l-67,31.2v2H529.3z"/>
	<path class="st0" d="M527.1,143.8l67.3-31.4c0.1-1.1,0.3-2.1,0.4-3.2l-67.7,31.6c0,0,0,0.1,0,0.1V143.8z"/>
	<path class="st0" d="M729,46.7l-53.5,24.9c0.7,0.6,1.3,1.3,2,2.1l53.3-24.8C730.2,48.1,729.6,47.4,729,46.7z"/>
	<path class="st0" d="M727.5,45c-0.6-0.7-1.2-1.4-1.9-2.1l-54.5,25.4c0.9,0.6,1.7,1.2,2.5,1.8L727.5,45z"/>
	<path class="st0" d="M527.1,138.5l68.1-31.7c0.2-1.1,0.4-2.2,0.6-3.3l-68.6,32C527.2,136.4,527.1,137.4,527.1,138.5z"/>
	<path class="st0" d="M527.3,133l69.1-32.2c0.2-1.1,0.5-2.3,0.8-3.3L527.4,130C527.3,131,527.3,132,527.3,133z"/>
	<path class="st0" d="M669,66.9l55.1-25.7c-0.7-0.7-1.3-1.4-2-2l-56.2,26.2C666.9,65.9,668,66.4,669,66.9z"/>
	<path class="st0" d="M663.2,64.3l57.1-26.6c-0.7-0.6-1.3-1.2-2-1.8c-0.1-0.1-0.1-0.1-0.2-0.2l-58.8,27.4
		C660.8,63.5,662,63.9,663.2,64.3z"/>
	<path class="st0" d="M527.5,127.6l70.3-32.8c0.3-1.2,0.7-2.4,1.1-3.5l-71.1,33.2C527.7,125.6,527.6,126.6,527.5,127.6z"/>
	<path class="st0" d="M527.9,122.1l72-33.6c0.5-1.3,1-2.5,1.5-3.7l-73.2,34.1C528.2,120,528,121,527.9,122.1z"/>
	<path class="st0" d="M716.3,34.2c-0.8-0.6-1.6-1.3-2.4-1.9l-62.6,29.2c1.6,0.2,3.2,0.5,4.7,0.8L716.3,34.2z"/>
	<path class="st0" d="M528.5,116.5l74.3-34.7c0.6-1.1,1.1-2.1,1.7-3.1c0.2-0.4,0.5-0.7,0.7-1.1L529,113.3
		C528.8,114.4,528.7,115.4,528.5,116.5z"/>
	<path class="st0" d="M712.1,30.9c-0.8-0.6-1.7-1.2-2.5-1.8l-68,31.7c2,0,3.9,0.1,5.8,0.3L712.1,30.9z"/>
	<path class="st0" d="M529.4,110.8L608.1,74c2-2.3,4.1-4.3,6.5-6l-84.7,39.5C529.7,108.6,529.5,109.7,529.4,110.8z"/>
	<path class="st0" d="M704.7,26l-78.1,36.4c3-0.8,6.2-1.3,9.7-1.5l71.2-33.2C706.5,27.1,705.6,26.6,704.7,26z"/>
	<path class="st0" d="M530.4,104.9l172-80.2c-1-0.5-2-1.1-3-1.6l-168.4,78.5C530.8,102.7,530.6,103.8,530.4,104.9z"/>
	<path class="st0" d="M531.6,99.1L697,21.9c-1.1-0.5-2.1-1-3.2-1.5L532.4,95.7C532.1,96.8,531.9,97.9,531.6,99.1z"/>
	<path class="st0" d="M533.2,93l158-73.7c-1.1-0.5-2.3-0.9-3.5-1.4L534.2,89.5C533.8,90.7,533.5,91.8,533.2,93z"/>
	<path class="st0" d="M536.3,83.2c-0.4,1.2-0.8,2.4-1.2,3.5l149.7-69.8c-1.3-0.4-2.5-0.8-3.8-1.2L536.3,83.2z"/>
	<path class="st0" d="M538.7,76.8c-0.5,1.2-1,2.4-1.5,3.7l140.6-65.6c-1.4-0.4-2.7-0.7-4.1-1.1L538.7,76.8z"/>
	<path class="st0" d="M541.8,70c-0.3,0.7-0.7,1.4-1,2c-0.3,0.6-0.5,1.2-0.8,1.8l130.2-60.7c-1.5-0.3-3-0.6-4.6-0.8L541.8,70z"/>
	<path class="st0" d="M545.5,62.8c-0.7,1.3-1.5,2.6-2.2,4l118.4-55.2c-1.7-0.2-3.4-0.4-5.1-0.6L545.5,62.8z"/>
	<path class="st0" d="M550.1,55.4c-0.9,1.4-1.9,2.8-2.7,4.3l105.1-49c-1.9-0.1-3.8-0.2-5.7-0.3L550.1,55.4z"/>
	<path class="st0" d="M556.4,47.1c-1.3,1.5-2.5,3.1-3.7,4.7l89.2-41.6c-0.6,0-1.3,0-1.9,0c-1.5,0-3.1,0-4.6,0.1L556.4,47.1z"/>
	<path class="st0" d="M565.6,37.5c-2,1.8-3.8,3.7-5.7,5.6l69.6-32.5c-2.8,0.2-5.7,0.5-8.4,0.9L565.6,37.5z"/>
	<path class="st0" d="M571.6,32.4L613.1,13c-11.8,2.6-22.8,7-32.8,13.3C577.3,28.2,574.4,30.2,571.6,32.4z"/>
	<polygon class="st0" points="1009.5,146.2 1005.4,148.1 1009.5,148.1 	"/>
	<path class="st0" d="M1000.3,148.1l9.2-4.3v-2.6c0-0.1,0-0.2,0-0.4l-15.6,7.3H1000.3z"/>
	<path class="st0" d="M989,148.1l20.5-9.5c0-1,0-2-0.1-2.9l-26.8,12.5H989z"/>
	<path class="st0" d="M977.5,148.1l31.8-14.8c0-1-0.1-1.9-0.2-2.9l-38.1,17.7H977.5z"/>
	<path class="st0" d="M966,148.1l43-20.1c-0.1-1-0.2-1.9-0.2-2.9l-49.2,22.9H966z"/>
	<path class="st0" d="M954.7,148.1l53.9-25.1c-0.1-0.9-0.2-1.9-0.3-2.8l-60,28H954.7z"/>
	<path class="st0" d="M943.9,147.7l64.1-29.9c-0.1-0.9-0.3-1.9-0.4-2.8l-63.7,29.7V147.7z"/>
	<path class="st0" d="M943.9,142.3L943.9,142.3l63.3-29.5c-0.2-0.9-0.3-1.8-0.5-2.8l-62.9,29.3C943.9,140.4,943.9,141.3,943.9,142.3
		z"/>
	<path class="st0" d="M943.8,137.1l62.5-29.1c-0.2-0.9-0.4-1.8-0.6-2.7l-62,28.9C943.8,135.2,943.8,136.1,943.8,137.1z"/>
	<path class="st0" d="M943.7,131.8l61.6-28.7c-0.2-0.9-0.4-1.8-0.6-2.7l-61.2,28.5C943.6,129.9,943.6,130.9,943.7,131.8z"/>
	<path class="st0" d="M1003.4,95.6l-60.3,28.1c0.1,0.9,0.2,1.9,0.2,2.9l60.8-28.3C1003.9,97.4,1003.6,96.5,1003.4,95.6z"/>
	<path class="st0" d="M1002.8,93.6c-0.3-0.9-0.5-1.7-0.8-2.6l-59.4,27.7c0.1,0.9,0.2,1.9,0.3,2.8L1002.8,93.6z"/>
	<path class="st0" d="M1001.3,89c-0.3-0.9-0.6-1.7-0.9-2.6l-58.6,27.3c0.1,0.9,0.3,1.8,0.4,2.8L1001.3,89z"/>
	<path class="st0" d="M998.6,81.8l-57.7,26.9c0.2,0.9,0.4,1.8,0.5,2.7l58.2-27.1C999.3,83.5,999,82.7,998.6,81.8z"/>
	<path class="st0" d="M940.5,106.7l57.4-26.7c-0.4-0.8-0.7-1.7-1.1-2.5L939.8,104C940.1,104.9,940.3,105.8,940.5,106.7z"/>
	<polygon class="st0" points="840.1,148.1 840.8,147.8 840.8,144.8 833.7,148.1 	"/>
	<path class="st0" d="M939.3,101.9l56.6-26.4c-0.4-0.8-0.8-1.6-1.2-2.4l-56.2,26.2C938.8,100.1,939,101,939.3,101.9z"/>
	<path class="st0" d="M828.6,148.1l12.2-5.7v-1.3c0-0.6,0-1.1,0-1.7l-18.6,8.7H828.6z"/>
	<path class="st0" d="M992.5,68.7L937,94.6c0.3,0.8,0.6,1.7,0.9,2.6l55.9-26C993.3,70.3,992.9,69.5,992.5,68.7z"/>
	<path class="st0" d="M936.2,92.6l55.2-25.8c-0.4-0.8-0.9-1.6-1.3-2.4l-54.9,25.6C935.5,91,935.9,91.8,936.2,92.6z"/>
	<path class="st0" d="M817.3,148.1l23.6-11c0-1,0.1-2,0.1-3l-30.1,14H817.3z"/>
	<path class="st0" d="M934.3,88.2L989,62.7c-0.5-0.8-1-1.5-1.5-2.3L933,85.8C933.4,86.6,933.9,87.4,934.3,88.2z"/>
	<path class="st0" d="M805.8,148.1l35.3-16.5c0-1,0.1-2,0.2-3.1l-41.8,19.5H805.8z"/>
	<path class="st0" d="M984.8,56.3l-54.2,25.3c0,0,0,0,0,0.1c0.5,0.7,0.9,1.5,1.4,2.3l54.4-25.3C985.8,57.8,985.3,57,984.8,56.3z"/>
	<path class="st0" d="M794.2,148.1l47.2-22c0.1-1,0.2-2.1,0.3-3.1l-53.8,25.1H794.2z"/>
	<path class="st0" d="M929.4,79.8l54.2-25.3c-0.5-0.7-1.1-1.5-1.7-2.2l-54.1,25.2C928.3,78.3,928.8,79.1,929.4,79.8z"/>
	<path class="st0" d="M782.9,148.1l59-27.5c0.1-1.1,0.2-2.1,0.4-3.2l-65.7,30.6H782.9z"/>
	<path class="st0" d="M978.7,48.5l-54.3,25.3c0.6,0.7,1.3,1.4,1.9,2.1l54.2-25.3C979.9,49.9,979.3,49.2,978.7,48.5z"/>
	<path class="st0" d="M775.1,146.4l67.5-31.5c0.2-1.1,0.3-2.2,0.5-3.2l-68.1,31.7V146.4z"/>
	<path class="st0" d="M975.3,44.7l-54.8,25.6c0.8,0.6,1.5,1.3,2.2,1.9l54.5-25.4C976.6,46,976,45.3,975.3,44.7z"/>
	<path class="st0" d="M775.1,141l68.5-31.9c0.2-1.1,0.4-2.2,0.7-3.3L775.2,138C775.1,139,775.1,140,775.1,141z"/>
	<path class="st0" d="M775.2,135.7l69.7-32.5c0.3-1.2,0.6-2.3,0.9-3.4l-70.5,32.9C775.3,133.6,775.3,134.7,775.2,135.7z"/>
	<path class="st0" d="M971.8,41L916,67c0.9,0.5,1.8,1.1,2.7,1.7l55.1-25.7C973.2,42.4,972.5,41.7,971.8,41z"/>
	<path class="st0" d="M775.5,130.2L846.7,97c0.4-1.2,0.8-2.4,1.2-3.6l-72.3,33.7C775.6,128.1,775.6,129.2,775.5,130.2z"/>
	<path class="st0" d="M970.1,39.4c-0.7-0.7-1.4-1.3-2.2-2l-57.4,26.8c1.1,0.4,2.2,0.9,3.2,1.5L970.1,39.4z"/>
	<path class="st0" d="M966.1,35.9c-0.8-0.6-1.5-1.3-2.3-1.9l-60.2,28.1c1.4,0.3,2.7,0.7,4,1.1L966.1,35.9z"/>
	<path class="st0" d="M775.9,124.6l73.2-34.1c0.6-1.3,1.1-2.6,1.7-3.8l-74.6,34.8C776.1,122.5,776,123.6,775.9,124.6z"/>
	<path class="st0" d="M776.5,119.1l76-35.4c0.5-0.8,0.9-1.6,1.4-2.3c0.4-0.7,0.8-1.3,1.3-1.9l-78.2,36.5
		C776.8,116.9,776.6,118,776.5,119.1z"/>
	<path class="st0" d="M962,32.6c-0.8-0.6-1.6-1.2-2.5-1.8L894.7,61c1.8,0.1,3.6,0.2,5.3,0.5L962,32.6z"/>
	<path class="st0" d="M777.3,113.3l80.7-37.6c1.8-2.2,3.8-4.1,5.9-5.7l-86.1,40.2C777.7,111.2,777.5,112.2,777.3,113.3z"/>
	<path class="st0" d="M954.7,27.6l-74,34.5c2.8-0.6,5.7-1,8.8-1.1l67.8-31.6C956.5,28.8,955.6,28.2,954.7,27.6z"/>
	<path class="st0" d="M778.3,107.6l174.3-81.3c-0.9-0.6-1.9-1.1-2.8-1.7L779,104.3C778.8,105.4,778.6,106.5,778.3,107.6z"/>
	<path class="st0" d="M779.6,101.6l167.8-78.2c-1-0.5-2-1.1-3.1-1.6L780.5,98.2C780.2,99.3,779.9,100.5,779.6,101.6z"/>
	<path class="st0" d="M941.8,20.6c-1.1-0.5-2.2-1-3.3-1.4L782.2,92c-0.4,1.1-0.7,2.3-1,3.5L941.8,20.6z"/>
	<path class="st0" d="M783.1,89.4l152.8-71.3c-1.2-0.5-2.4-0.9-3.6-1.3l-148,69C783.9,87,783.5,88.2,783.1,89.4z"/>
	<path class="st0" d="M786.9,79.2c-0.5,1.2-1,2.4-1.5,3.7l143.9-67.1c-1.3-0.4-2.6-0.8-3.9-1.2L786.9,79.2z"/>
	<path class="st0" d="M789.9,72.4c-0.1,0.2-0.2,0.4-0.3,0.7c-0.5,1-1,2.1-1.4,3.1l134-62.5c-1.4-0.3-2.9-0.7-4.3-1L789.9,72.4z"/>
	<path class="st0" d="M793.6,65.4c-0.7,1.3-1.5,2.6-2.2,4l122.9-57.3c-1.6-0.3-3.2-0.5-4.8-0.7L793.6,65.4z"/>
	<path class="st0" d="M798.3,57.9c-0.9,1.4-1.9,2.8-2.7,4.3l109.8-51.2c-1.8-0.2-3.6-0.3-5.5-0.4L798.3,57.9z"/>
	<path class="st0" d="M804.4,49.7c-1.2,1.5-2.4,3.1-3.6,4.6l94.3-44c-1,0-1.9,0-2.9,0c-1.2,0-2.3,0-3.5,0.1L804.4,49.7z"/>
	<path class="st0" d="M812.9,40.4c-1.8,1.7-3.6,3.6-5.3,5.4l75.6-35.3c-2.7,0.2-5.4,0.4-8,0.8L812.9,40.4z"/>
	<path class="st0" d="M830.7,26.8c-4.3,2.6-8.3,5.5-12.1,8.6l48.9-22.8c-5.1,1-10,2.3-14.7,3.9L830.7,26.8z"/>
	<path class="st0" d="M1236.1,144.2l-8.3,3.9h5.4C1234.3,146.8,1235.2,145.5,1236.1,144.2z"/>
	<path class="st0" d="M1222.7,148.1l15.7-7.3c0.8-1.3,1.5-2.6,2.2-4l-24.3,11.3H1222.7z"/>
	<path class="st0" d="M1211.1,148.1l30.9-14.4c0.5-1.2,1-2.4,1.5-3.7l-38.8,18.1H1211.1z"/>
	<path class="st0" d="M1199.8,148.1l44.7-20.9c0.4-1.1,0.8-2.3,1.1-3.5l-52.2,24.3H1199.8z"/>
	<path class="st0" d="M1188.3,148.1l58.1-27.1c0.3-1.1,0.5-2.2,0.8-3.3l-65.3,30.4H1188.3z"/>
	<path class="st0" d="M1176.8,148.1l70.9-33.1c0.2-1.1,0.4-2.1,0.5-3.2l-77.8,36.3H1176.8z"/>
	<path class="st0" d="M1165.5,148.1l83.1-38.7c0.1-1,0.2-2.1,0.3-3.1l-89.8,41.9H1165.5z"/>
	<path class="st0" d="M1154,148.1l95.1-44.4c0.1-1,0.1-2,0.2-3.1l-101.7,47.4H1154z"/>
	<path class="st0" d="M1142.4,148.1l106.9-49.9c0-1,0-2,0-3l-78.8,36.8c-2.1,1.3-4.5,2.4-7,3.3l-27.5,12.8H1142.4z"/>
	<path class="st0" d="M1131.1,148.1l23.5-10.9c-2.1,0.2-4.3,0.3-6.6,0.3h-0.5l-22.7,10.6H1131.1z"/>
	<path class="st0" d="M1176.5,127l72.9-34c0-1,0-2-0.1-2.9l-69.5,32.4C1178.8,124.1,1177.7,125.6,1176.5,127z"/>
	<path class="st0" d="M1181.5,119.3l67.7-31.6c-0.1-1-0.1-1.9-0.2-2.9l-66,30.8C1182.4,116.9,1182,118.1,1181.5,119.3z"/>
	<polygon class="st0" points="1119.6,148.1 1142.4,137.5 1136,137.5 1113.2,148.1 	"/>
	<polygon class="st0" points="1108.1,148.1 1130.8,137.5 1124.4,137.5 1101.7,148.1 	"/>
	<path class="st0" d="M1248.2,79.8l-63.9,29.8c-0.2,1.1-0.4,2.2-0.7,3.3l65-30.3C1248.5,81.6,1248.4,80.7,1248.2,79.8z"/>
	<path class="st0" d="M1247.3,74.9l-62.4,29.1c-0.1,1.1-0.1,2.1-0.2,3.1l63.2-29.5C1247.7,76.7,1247.5,75.8,1247.3,74.9z"/>
	<polygon class="st0" points="1096.8,148.1 1119.5,137.5 1113.1,137.5 1090.4,148.1 	"/>
	<polygon class="st0" points="1085.3,148.1 1108,137.5 1107.1,137.5 1107.1,134.9 1078.9,148.1 	"/>
	<path class="st0" d="M1246.1,70.1L1185,98.6c0,0.7,0,1.4,0,2.2c0,0.3,0,0.5,0,0.8l61.8-28.8C1246.6,71.9,1246.4,71,1246.1,70.1z"/>
	<path class="st0" d="M1244.6,65.5l-60.1,28c0.1,0.9,0.2,1.9,0.3,2.8l60.6-28.3C1245.2,67.2,1244.9,66.3,1244.6,65.5z"/>
	<polygon class="st0" points="1073.7,148.1 1107.1,132.5 1107.1,129.6 1067.4,148.1 	"/>
	<path class="st0" d="M1242.8,61l-59.2,27.6c0.2,0.9,0.4,1.8,0.6,2.7l59.7-27.8C1243.5,62.7,1243.2,61.8,1242.8,61z"/>
	<polygon class="st0" points="1062.5,148.1 1107.1,127.3 1107.1,124.3 1056.1,148.1 	"/>
	<path class="st0" d="M1240.7,56.6l-58.6,27.3c0.3,0.8,0.6,1.7,0.9,2.6l58.9-27.4C1241.5,58.2,1241.1,57.4,1240.7,56.6z"/>
	<polygon class="st0" points="1050.9,148.1 1107.1,121.9 1107.1,118.9 1044.5,148.1 	"/>
	<polygon class="st0" points="1042.5,146.7 1107.1,116.5 1107.1,113.6 1042.5,143.7 	"/>
	<path class="st0" d="M1238.2,52.4L1180,79.5c0.4,0.8,0.9,1.6,1.3,2.4l58.3-27.2C1239.2,54,1238.7,53.2,1238.2,52.4z"/>
	<polygon class="st0" points="1042.5,141.4 1107.1,111.3 1107.1,108.3 1042.5,138.4 	"/>
	<path class="st0" d="M1235.5,48.4l-58.2,27.1c0.6,0.7,1.1,1.5,1.6,2.2l58.1-27.1C1236.6,49.9,1236,49.2,1235.5,48.4z"/>
	<polygon class="st0" points="1042.5,136 1107.1,105.9 1107.1,102.9 1042.5,133 	"/>
	<path class="st0" d="M1232.4,44.5l-58.6,27.3c0.6,0.6,1.3,1.1,1.8,1.8c0.1,0.1,0.1,0.2,0.2,0.2l58.3-27.2
		C1233.6,45.9,1233,45.2,1232.4,44.5z"/>
	<path class="st0" d="M1228.9,40.8l-59.7,27.8c0.9,0.5,1.8,1.1,2.7,1.7l59-27.5C1230.2,42.1,1229.6,41.4,1228.9,40.8z"/>
	<polygon class="st0" points="1042.5,130.6 1107.1,100.5 1107.1,97.5 1042.5,127.7 	"/>
	<path class="st0" d="M1225.1,37.3L1163.5,66c1.2,0.4,2.3,0.9,3.4,1.4l60.3-28.1C1226.5,38.6,1225.8,37.9,1225.1,37.3z"/>
	<polygon class="st0" points="1042.5,125.4 1107.1,95.3 1107.1,92.3 1042.5,122.4 	"/>
	<path class="st0" d="M1222.5,35.1c-0.5-0.4-1.1-0.8-1.7-1.2l-65.1,30.3c1.6,0.2,3.1,0.5,4.6,0.9l62.9-29.3
		C1223,35.5,1222.8,35.3,1222.5,35.1z"/>
	<polygon class="st0" points="1042.5,120 1107.1,89.9 1107.1,86.9 1042.5,117 	"/>
	<polygon class="st0" points="1042.5,114.6 1107.1,84.5 1107.1,81.5 1042.5,111.6 	"/>
	<path class="st0" d="M1216.2,30.6l-70.9,33.1h2.7c1.2,0,2.4,0,3.5,0.1l67.4-31.4C1218,31.8,1217.1,31.2,1216.2,30.6z"/>
	<polygon class="st0" points="1042.5,109.4 1107.1,79.2 1107.1,76.3 1042.5,106.4 	"/>
	<path class="st0" d="M1214.1,29.3c-0.9-0.6-1.9-1.1-2.8-1.7l-77.3,36h6.4L1214.1,29.3z"/>
	<path class="st0" d="M1205.7,24.9l-83.2,38.8h6.4l80-37.3C1207.8,25.9,1206.8,25.4,1205.7,24.9z"/>
	<polygon class="st0" points="1107.1,70.9 1042.5,101 1042.5,104 1107.1,73.9 	"/>
	<path class="st0" d="M1203.1,23.7c-1.1-0.5-2.3-0.9-3.4-1.4L1111,63.7h6.4L1203.1,23.7z"/>
	<polygon class="st0" points="1042.5,98.6 1107.1,68.5 1107.1,65.5 1042.5,95.6 	"/>
	<path class="st0" d="M1042.5,90.4v3l154.5-72c-1.2-0.4-2.5-0.8-3.7-1.2L1042.5,90.4z"/>
	<path class="st0" d="M1042.5,85v3l147.6-68.8c-1.3-0.4-2.7-0.7-4.1-1.1L1042.5,85z"/>
	<path class="st0" d="M1042.5,79.6v3l140-65.3c-1.5-0.3-3-0.6-4.5-0.9L1042.5,79.6z"/>
	<path class="st0" d="M1042.5,74.4v3l131.9-61.5c-1.6-0.2-3.3-0.5-5-0.7L1042.5,74.4z"/>
	<path class="st0" d="M1042.5,69v3l122.7-57.2c-1.8-0.2-3.6-0.3-5.5-0.4L1042.5,69z"/>
	<path class="st0" d="M1042.5,63.6v3L1155,14.1c-2-0.1-4.1-0.1-6.1-0.1L1042.5,63.6z"/>
	<polygon class="st0" points="1042.5,58.3 1042.5,61.3 1144,14 1137.6,14 	"/>
	<polygon class="st0" points="1042.5,53 1042.5,55.9 1132.4,14 1126.1,14 	"/>
	<polygon class="st0" points="1042.5,47.6 1042.5,50.6 1120.9,14 1114.5,14 	"/>
	<polygon class="st0" points="1042.5,42.3 1042.5,45.3 1109.6,14 1103.2,14 	"/>
	<polygon class="st0" points="1042.5,36.9 1042.5,39.9 1098.1,14 1091.7,14 	"/>
	<polygon class="st0" points="1042.5,31.6 1042.5,34.6 1086.6,14 1080.2,14 	"/>
	<polygon class="st0" points="1068.9,14 1042.5,26.3 1042.5,29.3 1075.3,14 	"/>
	<polygon class="st0" points="1057.4,14 1042.5,20.9 1042.5,23.9 1063.8,14 	"/>
	<polygon class="st0" points="1046.1,14 1042.5,15.7 1042.5,18.6 1052.5,14 	"/>
	<polygon class="st0" points="1474.3,148.1 1476.1,147.3 1475.1,144.7 1468,148.1 	"/>
	<polygon class="st0" points="1463.1,148.1 1474.4,142.8 1473.5,140.3 1456.7,148.1 	"/>
	<polygon class="st0" points="1451.5,148.1 1472.7,138.2 1471.8,135.7 1445.1,148.1 	"/>
	<polygon class="st0" points="1440,148.1 1471,133.6 1470.1,131.1 1433.6,148.1 	"/>
	<polygon class="st0" points="1428.7,148.1 1469.4,129.1 1468.4,126.6 1422.3,148.1 	"/>
	<polygon class="st0" points="1467.7,124.6 1466.7,122 1414.2,146.5 1414.7,148.1 1417.2,148.1 	"/>
	<polygon class="st0" points="1413.6,144.4 1466,120 1465,117.4 1412.8,141.8 	"/>
	<polygon class="st0" points="1412.2,139.8 1464.3,115.5 1463.4,112.9 1411.3,137.2 	"/>
	<polygon class="st0" points="1378.5,147.2 1376.5,148.1 1378.2,148.1 	"/>
	<polygon class="st0" points="1410.7,135.1 1462.6,110.9 1461.7,108.4 1409.9,132.5 	"/>
	<polygon class="st0" points="1371.3,148.1 1379.3,144.4 1380.4,140.9 1364.9,148.1 	"/>
	<polygon class="st0" points="1409.2,130.4 1460.9,106.3 1460,103.8 1408.4,127.8 	"/>
	<polygon class="st0" points="1360,148.1 1381.2,138.2 1382.3,134.7 1353.6,148.1 	"/>
	<polygon class="st0" points="1407.8,125.8 1459.3,101.8 1458.3,99.3 1407,123.2 	"/>
	<polygon class="st0" points="1348.5,148.1 1383.2,131.9 1384.3,128.4 1342.1,148.1 	"/>
	<polygon class="st0" points="1406.4,121.1 1457.6,97.2 1456.6,94.7 1405.5,118.5 	"/>
	<polygon class="st0" points="1337,148.1 1385.1,125.6 1386.2,122.2 1330.6,148.1 	"/>
	<polygon class="st0" points="1404.9,116.4 1455.9,92.7 1454.9,90.1 1404.1,113.8 	"/>
	<polygon class="st0" points="1325.7,148.1 1387,119.5 1388.1,116 1319.3,148.1 	"/>
	<polygon class="st0" points="1403.5,111.8 1454.2,88.2 1453.3,85.6 1402.7,109.2 	"/>
	<polygon class="st0" points="1389,113.2 1390,109.7 1318.7,143 1317.4,146.6 	"/>
	<polygon class="st0" points="1402,107.1 1452.5,83.6 1451.6,81 1401.2,104.5 	"/>
	<polygon class="st0" points="1400.5,102.4 1450.8,79 1449.9,76.5 1399.7,99.8 	"/>
	<polygon class="st0" points="1319.7,140.1 1390.9,106.9 1392,103.5 1321.1,136.5 	"/>
	<polygon class="st0" points="1322.1,133.8 1392.8,100.8 1393.9,97.3 1323.4,130.2 	"/>
	<polygon class="st0" points="1399.1,97.8 1449.2,74.5 1448.2,72 1398.3,95.2 	"/>
	<polygon class="st0" points="1397.7,93.1 1447.5,69.9 1446.5,67.4 1396.8,90.5 	"/>
	<polygon class="st0" points="1324.4,127.3 1394.7,94.5 1395.8,91 1325.8,123.7 	"/>
	<polygon class="st0" points="1326.8,120.8 1445.8,65.3 1444.8,62.8 1328.1,117.2 	"/>
	<polygon class="st0" points="1329.2,114.4 1444.1,60.8 1443.2,58.3 1330.5,110.9 	"/>
	<polygon class="st0" points="1331.5,108 1442.4,56.3 1441.5,53.7 1332.9,104.4 	"/>
	<polygon class="st0" points="1333.9,101.5 1440.7,51.7 1439.8,49.1 1335.2,97.9 	"/>
	<polygon class="st0" points="1336.2,95.1 1439.1,47.2 1438.1,44.6 1337.6,91.5 	"/>
	<polygon class="st0" points="1437.4,42.6 1436.4,40.1 1339.9,85.1 1338.6,88.6 	"/>
	<polygon class="st0" points="1435.7,38 1434.7,35.5 1342.3,78.6 1341,82.2 	"/>
	<polygon class="st0" points="1434,33.5 1433.1,31 1344.6,72.2 1343.3,75.8 	"/>
	<polygon class="st0" points="1432.3,28.9 1431.4,26.4 1347,65.7 1345.7,69.3 	"/>
	<polygon class="st0" points="1348.1,62.8 1430.6,24.4 1429.7,21.8 1349.4,59.3 	"/>
	<polygon class="st0" points="1350.4,56.5 1429,19.9 1428,17.3 1351.7,52.9 	"/>
	<polygon class="st0" points="1352.8,50 1427.3,15.3 1426.8,14 1423.6,14 1354.1,46.4 	"/>
	<polygon class="st0" points="1418.5,14 1412.1,14 1356.5,39.9 1355.2,43.5 	"/>
	<polygon class="st0" points="1400.8,14 1358.8,33.6 1357.5,37.2 1407.2,14 	"/>
	<polygon class="st0" points="1389.3,14 1361.2,27.1 1359.9,30.7 1395.7,14 	"/>
	<polygon class="st0" points="1363.6,20.6 1362.3,24.2 1384.1,14 1377.8,14 	"/>
	<polygon class="st0" points="1365.9,14.3 1364.6,17.9 1372.9,14 1366.5,14 	"/>
	<polygon class="st0" points="1653.3,148.1 1653.3,147.3 1651.6,148.1 	"/>
	<polygon class="st0" points="1646.7,148.1 1653.3,145 1653.3,142 1640.3,148.1 	"/>
	<polygon class="st0" points="1635.2,148.1 1653.3,139.6 1653.3,136.7 1628.8,148.1 	"/>
	<polygon class="st0" points="1623.6,148.1 1653.3,134.3 1653.3,131.3 1617.3,148.1 	"/>
	<polygon class="st0" points="1612.4,148.1 1653.3,129 1653.3,126 1606,148.1 	"/>
	<polygon class="st0" points="1600.8,148.1 1653.3,123.6 1653.3,120.7 1594.4,148.1 	"/>
	<polygon class="st0" points="1589.3,148.1 1653.3,118.3 1653.3,115.3 1588.6,145.4 1588.6,148.1 	"/>
	<polygon class="st0" points="1653.3,110 1588.6,140.2 1588.6,143.2 1653.3,113 	"/>
	<polygon class="st0" points="1588.6,137.8 1653.3,107.6 1653.3,104.6 1588.6,134.8 	"/>
	<polygon class="st0" points="1733.7,63.9 1733.7,61.8 1729.1,63.9 	"/>
	<polygon class="st0" points="1588.6,132.4 1653.3,102.2 1653.3,99.3 1588.6,129.4 	"/>
	<polygon class="st0" points="1588.6,127.1 1653.3,97 1653.3,94 1588.6,124.2 	"/>
	<polygon class="st0" points="1724.2,63.9 1733.7,59.5 1733.7,56.5 1717.8,63.9 	"/>
	<polygon class="st0" points="1712.7,63.9 1733.7,54.1 1733.7,51.1 1706.3,63.9 	"/>
	<polygon class="st0" points="1588.6,121.8 1653.3,91.6 1653.3,88.6 1588.6,118.8 	"/>
	<polygon class="st0" points="1588.6,116.4 1653.3,86.2 1653.3,83.2 1588.6,113.4 	"/>
	<polygon class="st0" points="1701.2,63.9 1733.7,48.7 1733.7,45.8 1694.8,63.9 	"/>
	<polygon class="st0" points="1689.9,63.9 1733.7,43.5 1733.7,40.5 1683.5,63.9 	"/>
	<polygon class="st0" points="1588.6,111.1 1653.3,81 1653.3,78 1588.6,108.2 	"/>
	<polygon class="st0" points="1588.6,105.8 1653.3,75.6 1653.3,72.6 1588.6,102.8 	"/>
	<polygon class="st0" points="1678.4,63.9 1733.7,38.1 1733.7,35.1 1672,63.9 	"/>
	<polygon class="st0" points="1588.6,100.4 1653.3,70.2 1653.3,67.2 1588.6,97.4 	"/>
	<polygon class="st0" points="1666.8,63.9 1733.7,32.7 1733.7,29.7 1660.4,63.9 	"/>
	<polygon class="st0" points="1588.6,95.1 1653.3,64.9 1653.3,63.9 1655.5,63.9 1733.7,27.5 1733.7,24.5 1588.6,92.1 	"/>
	<polygon class="st0" points="1588.6,89.7 1733.7,22.1 1733.7,19.1 1588.6,86.8 	"/>
	<polygon class="st0" points="1588.6,84.5 1733.7,16.8 1733.7,14 1733.4,14 1588.6,81.5 	"/>
	<polygon class="st0" points="1588.6,79.1 1728.2,14 1721.8,14 1588.6,76.1 	"/>
	<polygon class="st0" points="1588.6,73.7 1716.7,14 1710.3,14 1588.6,70.7 	"/>
	<polygon class="st0" points="1588.6,68.5 1705.4,14 1699,14 1588.6,65.5 	"/>
	<polygon class="st0" points="1687.5,14 1580.5,63.9 1586.9,63.9 1693.9,14 	"/>
	<polygon class="st0" points="1575.3,63.9 1682.3,14 1676,14 1568.9,63.9 	"/>
	<polygon class="st0" points="1564,63.9 1671.1,14 1664.7,14 1557.7,63.9 	"/>
	<polygon class="st0" points="1552.5,63.9 1659.5,14 1653.1,14 1546.1,63.9 	"/>
	<polygon class="st0" points="1541,63.9 1648,14 1641.6,14 1534.6,63.9 	"/>
	<polygon class="st0" points="1529.7,63.9 1636.7,14 1630.3,14 1523.3,63.9 	"/>
	<polygon class="st0" points="1518.2,63.9 1625.2,14 1618.8,14 1511.8,63.9 	"/>
	<polygon class="st0" points="1509.6,62.5 1613.7,14 1607.3,14 1509.6,59.5 	"/>
	<polygon class="st0" points="1509.6,54.3 1509.6,57.3 1602.4,14 1596,14 	"/>
	<polygon class="st0" points="1509.6,48.9 1509.6,51.9 1590.8,14 1584.4,14 	"/>
	<polygon class="st0" points="1509.6,43.5 1509.6,46.5 1579.3,14 1572.9,14 	"/>
	<polygon class="st0" points="1561.6,14 1509.6,38.3 1509.6,41.2 1568,14 	"/>
	<polygon class="st0" points="1550.1,14 1509.6,32.9 1509.6,35.9 1556.5,14 	"/>
	<polygon class="st0" points="1538.6,14 1509.6,27.5 1509.6,30.5 1545,14 	"/>
	<polygon class="st0" points="1527.3,14 1509.6,22.2 1509.6,25.2 1533.7,14 	"/>
	<polygon class="st0" points="1515.8,14 1509.6,16.9 1509.6,19.9 1522.1,14 	"/>
	<polygon class="st0" points="1509.6,14 1509.6,14.5 1510.6,14 	"/>
	<polygon class="st0" points="1927.2,145.2 1921.1,148.1 1927.2,148.1 	"/>
	<polygon class="st0" points="1927.2,142.9 1927.2,139.9 1909.6,148.1 1915.9,148.1 	"/>
	<polygon class="st0" points="1904.4,148.1 1927.2,137.5 1927.2,134.5 1898,148.1 	"/>
	<polygon class="st0" points="1893.1,148.1 1927.2,132.2 1927.2,129.2 1886.7,148.1 	"/>
	<polygon class="st0" points="1881.6,148.1 1927.2,126.8 1927.2,123.9 1875.2,148.1 	"/>
	<polygon class="st0" points="1870.1,148.1 1927.2,121.5 1927.2,120.4 1923.1,120.4 1863.7,148.1 	"/>
	<polygon class="st0" points="1858.8,148.1 1918.2,120.4 1911.8,120.4 1852.4,148.1 	"/>
	<polygon class="st0" points="1847.3,148.1 1906.7,120.4 1900.3,120.4 1840.9,148.1 	"/>
	<polygon class="st0" points="1835.7,148.1 1895.1,120.4 1888.7,120.4 1829.3,148.1 	"/>
	<polygon class="st0" points="1824.4,148.1 1883.8,120.4 1877.5,120.4 1818,148.1 	"/>
	<polygon class="st0" points="1812.9,148.1 1872.3,120.4 1865.9,120.4 1806.5,148.1 	"/>
	<polygon class="st0" points="1801.4,148.1 1860.8,120.4 1854.4,120.4 1795,148.1 	"/>
	<polygon class="st0" points="1790.1,148.1 1849.5,120.4 1843.1,120.4 1783.7,148.1 	"/>
	<polygon class="st0" points="1778.6,148.1 1838,120.4 1831.6,120.4 1772.2,148.1 	"/>
	<polygon class="st0" points="1767,148.1 1826.4,120.4 1825.6,120.4 1825.6,117.8 1761,147.9 1761,148.1 	"/>
	<polygon class="st0" points="1946,61.7 1941.2,63.9 1946,63.9 	"/>
	<polygon class="st0" points="1761,145.6 1825.6,115.5 1825.6,112.5 1761,142.7 	"/>
	<polygon class="st0" points="1929.9,63.9 1936.3,63.9 1946,59.4 1946,56.4 	"/>
	<polygon class="st0" points="1918.4,63.9 1924.8,63.9 1946,54 1946,51 	"/>
	<polygon class="st0" points="1761,140.3 1825.6,110.2 1825.6,107.2 1761,137.3 	"/>
	<polygon class="st0" points="1906.9,63.9 1913.3,63.9 1946,48.6 1946,45.7 	"/>
	<polygon class="st0" points="1761,134.9 1825.6,104.8 1825.6,101.8 1761,131.9 	"/>
	<polygon class="st0" points="1895.6,63.9 1902,63.9 1946,43.4 1946,40.4 	"/>
	<polygon class="st0" points="1761,129.6 1825.6,99.5 1825.6,96.5 1761,126.7 	"/>
	<polygon class="st0" points="1884.1,63.9 1890.4,63.9 1946,38 1946,35 	"/>
	<polygon class="st0" points="1761,124.3 1825.6,94.1 1825.6,91.2 1761,121.3 	"/>
	<polygon class="st0" points="1761,118.9 1825.6,88.8 1825.6,85.8 1761,115.9 	"/>
	<polygon class="st0" points="1872.5,63.9 1878.9,63.9 1946,32.6 1946,29.6 	"/>
	<polygon class="st0" points="1761,113.6 1825.6,83.5 1825.6,80.5 1761,110.6 	"/>
	<polygon class="st0" points="1861.2,63.9 1867.6,63.9 1946,27.4 1946,24.4 	"/>
	<polygon class="st0" points="1761,108.2 1825.6,78.1 1825.6,75.1 1761,105.3 	"/>
	<polygon class="st0" points="1849.7,63.9 1856.1,63.9 1946,22 1946,19 	"/>
	<polygon class="st0" points="1838.2,63.9 1844.6,63.9 1946,16.6 1946,14 1945.2,14 	"/>
	<polygon class="st0" points="1761,102.9 1825.6,72.7 1825.6,69.8 1761,99.9 	"/>
	<polygon class="st0" points="1826.9,63.9 1833.3,63.9 1940.3,14 1933.9,14 	"/>
	<polygon class="st0" points="1761,97.6 1825.6,67.5 1825.6,64.5 1761,94.6 	"/>
	<polygon class="st0" points="1761,92.2 1928.8,14 1922.4,14 1761,89.3 	"/>
	<polygon class="st0" points="1761,86.9 1917.2,14 1910.9,14 1761,83.9 	"/>
	<polygon class="st0" points="1761,81.6 1906,14 1899.6,14 1761,78.6 	"/>
	<polygon class="st0" points="1761,76.2 1894.4,14 1888,14 1761,73.2 	"/>
	<polygon class="st0" points="1761,70.8 1882.9,14 1876.5,14 1761,67.9 	"/>
	<polygon class="st0" points="1761,65.6 1871.6,14 1865.2,14 1761,62.6 	"/>
	<polygon class="st0" points="1761,60.2 1860.1,14 1853.7,14 1761,57.2 	"/>
	<polygon class="st0" points="1761,51.8 1761,54.8 1848.6,14 1842.2,14 	"/>
	<polygon class="st0" points="1761,46.6 1761,49.6 1837.3,14 1830.9,14 	"/>
	<polygon class="st0" points="1761,41.2 1761,44.2 1825.7,14 1819.3,14 	"/>
	<polygon class="st0" points="1761,35.8 1761,38.8 1814.2,14 1807.8,14 	"/>
	<polygon class="st0" points="1761,30.6 1761,33.5 1802.9,14 1796.5,14 	"/>
	<polygon class="st0" points="1761,25.2 1761,28.2 1791.4,14 1785,14 	"/>
	<polygon class="st0" points="1761,19.9 1761,22.9 1780.1,14 1773.7,14 	"/>
	<polygon class="st0" points="1761,17.5 1768.6,14 1762.2,14 1761,14.6 	"/>
</g>
</svg>
