<?xml version="1.0" encoding="utf-8"?>
<!-- Generator: Adobe Illustrator 24.1.1, SVG Export Plug-In . SVG Version: 6.00 Build 0)  -->
<svg version="1.1" id="Layer_1" opacity="0.6" xmlns="http://www.w3.org/2000/svg" xmlns:xlink="http://www.w3.org/1999/xlink"
	 x="0px" y="0px" viewBox="0 0 735 403.9" style="enable-background:new 0 0 735 403.9;" xml:space="preserve">
<style type="text/css">
	.st0{clip-path:url(#SVGID_2_);}
	.st1{fill:#9B9B9C;}
	.st2{clip-path:url(#SVGID_4_);}
	.st3{clip-path:url(#SVGID_6_);}
	.st4{clip-path:url(#SVGID_8_);}
</style>
<g>
	<defs>
		<path id="SVGID_1_" d="M299.2,11.2c44.3,0,88.7,0.1,133,0.1c3.1,0,6.2,0.1,9.3,0.2c15.5,38.8,31,77.7,46.7,116.5
			c1.7,4.1,1.1,5.2-3.5,5.2c-44.8-0.1-89.6-0.1-134.3,0c-2.9,0-5-0.3-6.2-3.5c-14.9-39.1-29.9-78.2-44.8-117.2
			C299.1,12,299.2,11.6,299.2,11.2z"/>
	</defs>
	<clipPath id="SVGID_2_">
		<use xlink:href="#SVGID_1_"  style="overflow:visible;"/>
	</clipPath>
	<g class="st0">
		
			<rect x="7.4" y="741.3" transform="matrix(0.9397 -0.342 0.342 0.9397 -229.1265 186.1306)" class="st1" width="811.8" height="2.9"/>
		
			<rect x="6.7" y="732.1" transform="matrix(0.9397 -0.342 0.342 0.9397 -226.0053 185.3368)" class="st1" width="811.8" height="2.9"/>
		
			<rect x="6" y="722.8" transform="matrix(0.9397 -0.342 0.342 0.9397 -222.8841 184.543)" class="st1" width="811.8" height="2.9"/>
		
			<rect x="5.3" y="713.6" transform="matrix(0.9397 -0.342 0.342 0.9397 -219.7628 183.7492)" class="st1" width="811.8" height="2.9"/>
		
			<rect x="4.6" y="704.3" transform="matrix(0.9397 -0.342 0.342 0.9397 -216.6416 182.9555)" class="st1" width="811.8" height="2.9"/>
		
			<rect x="3.9" y="695.1" transform="matrix(0.9397 -0.342 0.342 0.9397 -213.5204 182.1617)" class="st1" width="811.8" height="2.9"/>
		
			<rect x="3.2" y="685.8" transform="matrix(0.9397 -0.342 0.342 0.9397 -210.3992 181.3679)" class="st1" width="811.8" height="2.9"/>
		
			<rect x="2.5" y="676.6" transform="matrix(0.9397 -0.342 0.342 0.9397 -207.278 180.5742)" class="st1" width="811.8" height="2.9"/>
		
			<rect x="1.8" y="667.3" transform="matrix(0.9397 -0.342 0.342 0.9397 -204.1568 179.7804)" class="st1" width="811.8" height="2.9"/>
		
			<rect x="1.1" y="658.1" transform="matrix(0.9397 -0.342 0.342 0.9397 -201.0356 178.9866)" class="st1" width="811.8" height="2.9"/>
		
			<rect x="0.5" y="648.8" transform="matrix(0.9397 -0.342 0.342 0.9397 -197.9144 178.1929)" class="st1" width="811.8" height="2.9"/>
		
			<rect x="-0.2" y="639.6" transform="matrix(0.9397 -0.342 0.342 0.9397 -194.7931 177.3991)" class="st1" width="811.8" height="2.9"/>
		
			<rect x="-0.9" y="630.3" transform="matrix(0.9397 -0.342 0.342 0.9397 -191.6719 176.6053)" class="st1" width="811.8" height="2.9"/>
		
			<rect x="-1.6" y="621.1" transform="matrix(0.9397 -0.342 0.342 0.9397 -188.5507 175.8115)" class="st1" width="811.8" height="2.9"/>
		
			<rect x="-2.3" y="611.8" transform="matrix(0.9397 -0.342 0.342 0.9397 -185.4295 175.0178)" class="st1" width="811.8" height="2.9"/>
		
			<rect x="-3" y="602.6" transform="matrix(0.9397 -0.342 0.342 0.9397 -182.3083 174.224)" class="st1" width="811.8" height="2.9"/>
		
			<rect x="-3.7" y="593.4" transform="matrix(0.9397 -0.342 0.342 0.9397 -179.1871 173.4302)" class="st1" width="811.8" height="2.9"/>
		
			<rect x="-4.4" y="584.1" transform="matrix(0.9397 -0.342 0.342 0.9397 -176.0659 172.6365)" class="st1" width="811.8" height="2.9"/>
		
			<rect x="-5.1" y="574.9" transform="matrix(0.9397 -0.342 0.342 0.9397 -172.9447 171.8427)" class="st1" width="811.8" height="2.9"/>
		
			<rect x="-5.8" y="565.6" transform="matrix(0.9397 -0.342 0.342 0.9397 -169.8234 171.0489)" class="st1" width="811.8" height="2.9"/>
		
			<rect x="-6.5" y="556.4" transform="matrix(0.9397 -0.342 0.342 0.9397 -166.7022 170.2552)" class="st1" width="811.8" height="2.9"/>
		
			<rect x="-7.1" y="547.1" transform="matrix(0.9397 -0.342 0.342 0.9397 -163.581 169.4614)" class="st1" width="811.8" height="2.9"/>
		
			<rect x="-7.8" y="537.9" transform="matrix(0.9397 -0.342 0.342 0.9397 -160.4598 168.6676)" class="st1" width="811.8" height="2.9"/>
		
			<rect x="-8.5" y="528.6" transform="matrix(0.9397 -0.342 0.342 0.9397 -157.3386 167.8738)" class="st1" width="811.8" height="2.9"/>
		
			<rect x="-9.2" y="519.4" transform="matrix(0.9397 -0.342 0.342 0.9397 -154.2174 167.0801)" class="st1" width="811.8" height="2.9"/>
		
			<rect x="-9.9" y="510.1" transform="matrix(0.9397 -0.342 0.342 0.9397 -151.0962 166.2863)" class="st1" width="811.8" height="2.9"/>
		
			<rect x="-10.6" y="500.9" transform="matrix(0.9397 -0.342 0.342 0.9397 -147.9749 165.4925)" class="st1" width="811.8" height="2.9"/>
		
			<rect x="-11.3" y="491.6" transform="matrix(0.9397 -0.342 0.342 0.9397 -144.8537 164.6988)" class="st1" width="811.8" height="2.9"/>
		
			<rect x="-12" y="482.4" transform="matrix(0.9397 -0.342 0.342 0.9397 -141.7325 163.905)" class="st1" width="811.8" height="2.9"/>
		
			<rect x="-12.7" y="473.1" transform="matrix(0.9397 -0.342 0.342 0.9397 -138.6113 163.1112)" class="st1" width="811.8" height="2.9"/>
		
			<rect x="-13.4" y="463.9" transform="matrix(0.9397 -0.342 0.342 0.9397 -135.4901 162.3175)" class="st1" width="811.8" height="2.9"/>
		
			<rect x="-14" y="454.6" transform="matrix(0.9397 -0.342 0.342 0.9397 -132.3689 161.5237)" class="st1" width="811.8" height="2.9"/>
		
			<rect x="-14.7" y="445.4" transform="matrix(0.9397 -0.342 0.342 0.9397 -129.2477 160.7299)" class="st1" width="811.8" height="2.9"/>
		
			<rect x="-15.4" y="436.1" transform="matrix(0.9397 -0.342 0.342 0.9397 -126.1264 159.9361)" class="st1" width="811.8" height="2.9"/>
		
			<rect x="-16.1" y="426.9" transform="matrix(0.9397 -0.342 0.342 0.9397 -123.0052 159.1424)" class="st1" width="811.8" height="2.9"/>
		
			<rect x="-16.8" y="417.7" transform="matrix(0.9397 -0.342 0.342 0.9397 -119.884 158.3486)" class="st1" width="811.8" height="2.9"/>
		
			<rect x="-17.5" y="408.4" transform="matrix(0.9397 -0.342 0.342 0.9397 -116.7628 157.5548)" class="st1" width="811.8" height="2.9"/>
		
			<rect x="-18.2" y="399.2" transform="matrix(0.9397 -0.342 0.342 0.9397 -113.6416 156.7611)" class="st1" width="811.8" height="2.9"/>
		
			<rect x="-18.9" y="389.9" transform="matrix(0.9397 -0.342 0.342 0.9397 -110.5204 155.9673)" class="st1" width="811.8" height="2.9"/>
		
			<rect x="-19.6" y="380.7" transform="matrix(0.9397 -0.342 0.342 0.9397 -107.3992 155.1735)" class="st1" width="811.8" height="2.9"/>
		
			<rect x="-20.3" y="371.4" transform="matrix(0.9397 -0.342 0.342 0.9397 -104.278 154.3798)" class="st1" width="811.8" height="2.9"/>
		
			<rect x="-20.9" y="362.2" transform="matrix(0.9397 -0.342 0.342 0.9397 -101.1567 153.586)" class="st1" width="811.8" height="2.9"/>
		
			<rect x="-21.6" y="352.9" transform="matrix(0.9397 -0.342 0.342 0.9397 -98.0355 152.7922)" class="st1" width="811.8" height="2.9"/>
		
			<rect x="-22.3" y="343.7" transform="matrix(0.9397 -0.342 0.342 0.9397 -94.9143 151.9985)" class="st1" width="811.8" height="2.9"/>
		
			<rect x="-23" y="334.4" transform="matrix(0.9397 -0.342 0.342 0.9397 -91.7931 151.2047)" class="st1" width="811.8" height="2.9"/>
		
			<rect x="-23.7" y="325.2" transform="matrix(0.9397 -0.342 0.342 0.9397 -88.6719 150.4109)" class="st1" width="811.8" height="2.9"/>
		
			<rect x="-24.4" y="315.9" transform="matrix(0.9397 -0.342 0.342 0.9397 -85.5507 149.6171)" class="st1" width="811.8" height="2.9"/>
		
			<rect x="-25.1" y="306.7" transform="matrix(0.9397 -0.342 0.342 0.9397 -82.4295 148.8234)" class="st1" width="811.8" height="2.9"/>
		
			<rect x="-25.8" y="297.4" transform="matrix(0.9397 -0.342 0.342 0.9397 -79.3083 148.0296)" class="st1" width="811.8" height="2.9"/>
		
			<rect x="-26.5" y="288.2" transform="matrix(0.9397 -0.342 0.342 0.9397 -76.187 147.2358)" class="st1" width="811.8" height="2.9"/>
		
			<rect x="-27.2" y="278.9" transform="matrix(0.9397 -0.342 0.342 0.9397 -73.0658 146.4421)" class="st1" width="811.8" height="2.9"/>
		
			<rect x="-27.8" y="269.7" transform="matrix(0.9397 -0.342 0.342 0.9397 -69.9446 145.6483)" class="st1" width="811.8" height="2.9"/>
		
			<rect x="-28.5" y="260.4" transform="matrix(0.9397 -0.342 0.342 0.9397 -66.8234 144.8545)" class="st1" width="811.8" height="2.9"/>
		
			<rect x="-29.2" y="251.2" transform="matrix(0.9397 -0.342 0.342 0.9397 -63.7022 144.0608)" class="st1" width="811.8" height="2.9"/>
		
			<rect x="-29.9" y="241.9" transform="matrix(0.9397 -0.342 0.342 0.9397 -60.581 143.267)" class="st1" width="811.8" height="2.9"/>
		
			<rect x="-30.6" y="232.7" transform="matrix(0.9397 -0.342 0.342 0.9397 -57.4598 142.4732)" class="st1" width="811.8" height="2.9"/>
		
			<rect x="-31.3" y="223.5" transform="matrix(0.9397 -0.342 0.342 0.9397 -54.3385 141.6794)" class="st1" width="811.8" height="2.9"/>
		
			<rect x="-32" y="214.2" transform="matrix(0.9397 -0.342 0.342 0.9397 -51.2173 140.8857)" class="st1" width="811.8" height="2.9"/>
		
			<rect x="-32.7" y="205" transform="matrix(0.9397 -0.342 0.342 0.9397 -48.0961 140.0919)" class="st1" width="811.8" height="2.9"/>
		
			<rect x="-33.4" y="195.7" transform="matrix(0.9397 -0.342 0.342 0.9397 -44.9749 139.2981)" class="st1" width="811.8" height="2.9"/>
		
			<rect x="-34.1" y="186.5" transform="matrix(0.9397 -0.342 0.342 0.9397 -41.8537 138.5044)" class="st1" width="811.8" height="2.9"/>
		
			<rect x="-34.8" y="177.2" transform="matrix(0.9397 -0.342 0.342 0.9397 -38.7325 137.7106)" class="st1" width="811.8" height="2.9"/>
		
			<rect x="-35.4" y="168" transform="matrix(0.9397 -0.342 0.342 0.9397 -35.6113 136.9168)" class="st1" width="811.8" height="2.9"/>
		
			<rect x="-36.1" y="158.7" transform="matrix(0.9397 -0.342 0.342 0.9397 -32.4901 136.1231)" class="st1" width="811.8" height="2.9"/>
		
			<rect x="-36.8" y="149.5" transform="matrix(0.9397 -0.342 0.342 0.9397 -29.3688 135.3293)" class="st1" width="811.8" height="2.9"/>
		
			<rect x="-37.5" y="140.2" transform="matrix(0.9397 -0.342 0.342 0.9397 -26.2476 134.5355)" class="st1" width="811.8" height="2.9"/>
		
			<rect x="-38.2" y="131" transform="matrix(0.9397 -0.342 0.342 0.9397 -23.1264 133.7417)" class="st1" width="811.8" height="2.9"/>
		
			<rect x="-38.9" y="121.7" transform="matrix(0.9397 -0.342 0.342 0.9397 -20.0052 132.948)" class="st1" width="811.8" height="2.9"/>
		
			<rect x="-39.6" y="112.5" transform="matrix(0.9397 -0.342 0.342 0.9397 -16.884 132.1542)" class="st1" width="811.8" height="2.9"/>
		
			<rect x="-40.3" y="103.2" transform="matrix(0.9397 -0.342 0.342 0.9397 -13.7628 131.3604)" class="st1" width="811.8" height="2.9"/>
		<rect x="-41" y="94" transform="matrix(0.9397 -0.342 0.342 0.9397 -10.6416 130.5667)" class="st1" width="811.8" height="2.9"/>
		
			<rect x="-41.7" y="84.7" transform="matrix(0.9397 -0.342 0.342 0.9397 -7.5203 129.7729)" class="st1" width="811.8" height="2.9"/>
		
			<rect x="-42.3" y="75.5" transform="matrix(0.9397 -0.342 0.342 0.9397 -4.3991 128.9791)" class="st1" width="811.8" height="2.9"/>
		
			<rect x="-43" y="66.2" transform="matrix(0.9397 -0.342 0.342 0.9397 -1.2779 128.1854)" class="st1" width="811.8" height="2.9"/>
		<rect x="-43.7" y="57" transform="matrix(0.9397 -0.342 0.342 0.9397 1.8433 127.3916)" class="st1" width="811.8" height="2.9"/>
		
			<rect x="-44.4" y="47.8" transform="matrix(0.9397 -0.342 0.342 0.9397 4.9645 126.5978)" class="st1" width="811.8" height="2.9"/>
		
			<rect x="-45.1" y="38.5" transform="matrix(0.9397 -0.342 0.342 0.9397 8.0857 125.8041)" class="st1" width="811.8" height="2.9"/>
		
			<rect x="-45.8" y="29.3" transform="matrix(0.9397 -0.342 0.342 0.9397 11.2069 125.0103)" class="st1" width="811.8" height="2.9"/>
		
			<rect x="-46.5" y="20" transform="matrix(0.9397 -0.342 0.342 0.9397 14.3281 124.2165)" class="st1" width="811.8" height="2.9"/>
		
			<rect x="-47.2" y="10.8" transform="matrix(0.9397 -0.342 0.342 0.9397 17.4494 123.4227)" class="st1" width="811.8" height="2.9"/>
		
			<rect x="-47.9" y="1.5" transform="matrix(0.9397 -0.342 0.342 0.9397 20.5706 122.629)" class="st1" width="811.8" height="2.9"/>
		
			<rect x="-48.6" y="-7.7" transform="matrix(0.9397 -0.342 0.342 0.9397 23.6918 121.8352)" class="st1" width="811.8" height="2.9"/>
		
			<rect x="-49.2" y="-17" transform="matrix(0.9397 -0.342 0.342 0.9397 26.813 121.0414)" class="st1" width="811.8" height="2.9"/>
		
			<rect x="-49.9" y="-26.2" transform="matrix(0.9397 -0.342 0.342 0.9397 29.9342 120.2477)" class="st1" width="811.8" height="2.9"/>
		
			<rect x="-50.6" y="-35.5" transform="matrix(0.9397 -0.342 0.342 0.9397 33.0554 119.4539)" class="st1" width="811.8" height="2.9"/>
		
			<rect x="-51.3" y="-44.7" transform="matrix(0.9397 -0.342 0.342 0.9397 36.1766 118.6601)" class="st1" width="811.8" height="2.9"/>
		<rect x="-52" y="-54" transform="matrix(0.9397 -0.342 0.342 0.9397 39.2979 117.8664)" class="st1" width="811.8" height="2.9"/>
		
			<rect x="-52.7" y="-63.2" transform="matrix(0.9397 -0.342 0.342 0.9397 42.4191 117.0726)" class="st1" width="811.8" height="2.9"/>
		
			<rect x="-53.4" y="-72.5" transform="matrix(0.9397 -0.342 0.342 0.9397 45.5403 116.2788)" class="st1" width="811.8" height="2.9"/>
		
			<rect x="-54.1" y="-81.7" transform="matrix(0.9397 -0.342 0.342 0.9397 48.6615 115.485)" class="st1" width="811.8" height="2.9"/>
		
			<rect x="-54.8" y="-91" transform="matrix(0.9397 -0.342 0.342 0.9397 51.7827 114.6913)" class="st1" width="811.8" height="2.9"/>
		
			<rect x="-55.5" y="-100.2" transform="matrix(0.9397 -0.342 0.342 0.9397 54.9039 113.8975)" class="st1" width="811.8" height="2.9"/>
		
			<rect x="-56.1" y="-109.5" transform="matrix(0.9397 -0.342 0.342 0.9397 58.0251 113.1037)" class="st1" width="811.8" height="2.9"/>
		
			<rect x="-56.8" y="-118.7" transform="matrix(0.9397 -0.342 0.342 0.9397 61.1463 112.31)" class="st1" width="811.8" height="2.9"/>
		
			<rect x="-57.5" y="-128" transform="matrix(0.9397 -0.342 0.342 0.9397 64.2676 111.5162)" class="st1" width="811.8" height="2.9"/>
		
			<rect x="-58.2" y="-137.2" transform="matrix(0.9397 -0.342 0.342 0.9397 67.3888 110.7224)" class="st1" width="811.8" height="2.9"/>
		
			<rect x="-58.9" y="-146.4" transform="matrix(0.9397 -0.342 0.342 0.9397 70.51 109.9287)" class="st1" width="811.8" height="2.9"/>
		
			<rect x="-59.6" y="-155.7" transform="matrix(0.9397 -0.342 0.342 0.9397 73.6312 109.1349)" class="st1" width="811.8" height="2.9"/>
		
			<rect x="-60.3" y="-164.9" transform="matrix(0.9397 -0.342 0.342 0.9397 76.7524 108.3411)" class="st1" width="811.8" height="2.9"/>
		
			<rect x="-61" y="-174.2" transform="matrix(0.9397 -0.342 0.342 0.9397 79.8736 107.5474)" class="st1" width="811.8" height="2.9"/>
		
			<rect x="-61.7" y="-183.4" transform="matrix(0.9397 -0.342 0.342 0.9397 82.9948 106.7536)" class="st1" width="811.8" height="2.9"/>
		
			<rect x="-62.4" y="-192.7" transform="matrix(0.9397 -0.342 0.342 0.9397 86.1161 105.9598)" class="st1" width="811.8" height="2.9"/>
	</g>
</g>
<g>
	<defs>
		<path id="SVGID_3_" d="M344.7,249.4c-23.6-53.4-47-106.8-70.5-160.2c-1-2.3-1.4-5.2-4-6.9c-0.4,0.9-0.7,1.6-1,2.3
			c-86.7,214-173.4,428-260.3,641.9c-2.2,5.4-0.5,5.5,4.1,5.5c47.5-0.1,95-0.1,142.5-0.1c2.2,0,4.6,0.7,6.3-1.6
			c0-0.9,0.3-1.6,1.3-1.6c0.6-8.8,5.1-16.4,8.1-24.3c19.5-50.7,39.3-101.3,59.1-151.8c0.8-2.1,2-4,2.9-6.1c0.7-2.3,1.4-4.7,2.2-7
			c36.3-93.4,72.7-186.8,109.1-280.1C345.9,255.9,346.3,253,344.7,249.4z"/>
	</defs>
	<clipPath id="SVGID_4_">
		<use xlink:href="#SVGID_3_"  style="overflow:visible;"/>
	</clipPath>
	<g class="st2">
		
			<rect x="-44.3" y="888.5" transform="matrix(0.9397 -0.342 0.342 0.9397 -282.594 177.3297)" class="st1" width="811.8" height="2.9"/>
		
			<rect x="-45" y="879.3" transform="matrix(0.9397 -0.342 0.342 0.9397 -279.4728 176.5359)" class="st1" width="811.8" height="2.9"/>
		
			<rect x="-45.7" y="870" transform="matrix(0.9397 -0.342 0.342 0.9397 -276.3516 175.7421)" class="st1" width="811.8" height="2.9"/>
		
			<rect x="-46.4" y="860.8" transform="matrix(0.9397 -0.342 0.342 0.9397 -273.2304 174.9483)" class="st1" width="811.8" height="2.9"/>
		
			<rect x="-47.1" y="851.5" transform="matrix(0.9397 -0.342 0.342 0.9397 -270.1092 174.1546)" class="st1" width="811.8" height="2.9"/>
		
			<rect x="-47.8" y="842.3" transform="matrix(0.9397 -0.342 0.342 0.9397 -266.9879 173.3608)" class="st1" width="811.8" height="2.9"/>
		
			<rect x="-48.5" y="833" transform="matrix(0.9397 -0.342 0.342 0.9397 -263.8667 172.567)" class="st1" width="811.8" height="2.9"/>
		
			<rect x="-49.2" y="823.8" transform="matrix(0.9397 -0.342 0.342 0.9397 -260.7455 171.7733)" class="st1" width="811.8" height="2.9"/>
		
			<rect x="-49.9" y="814.5" transform="matrix(0.9397 -0.342 0.342 0.9397 -257.6243 170.9795)" class="st1" width="811.8" height="2.9"/>
		
			<rect x="-50.5" y="805.3" transform="matrix(0.9397 -0.342 0.342 0.9397 -254.5031 170.1857)" class="st1" width="811.8" height="2.9"/>
		
			<rect x="-51.2" y="796.1" transform="matrix(0.9397 -0.342 0.342 0.9397 -251.3819 169.392)" class="st1" width="811.8" height="2.9"/>
		
			<rect x="-51.9" y="786.8" transform="matrix(0.9397 -0.342 0.342 0.9397 -248.2607 168.5982)" class="st1" width="811.8" height="2.9"/>
		
			<rect x="-52.6" y="777.6" transform="matrix(0.9397 -0.342 0.342 0.9397 -245.1395 167.8044)" class="st1" width="811.8" height="2.9"/>
		
			<rect x="-53.3" y="768.3" transform="matrix(0.9397 -0.342 0.342 0.9397 -242.0182 167.0107)" class="st1" width="811.8" height="2.9"/>
		
			<rect x="-54" y="759.1" transform="matrix(0.9397 -0.342 0.342 0.9397 -238.897 166.2169)" class="st1" width="811.8" height="2.9"/>
		
			<rect x="-54.7" y="749.8" transform="matrix(0.9397 -0.342 0.342 0.9397 -235.7758 165.4231)" class="st1" width="811.8" height="2.9"/>
		
			<rect x="-55.4" y="740.6" transform="matrix(0.9397 -0.342 0.342 0.9397 -232.6546 164.6293)" class="st1" width="811.8" height="2.9"/>
		
			<rect x="-56.1" y="731.3" transform="matrix(0.9397 -0.342 0.342 0.9397 -229.5334 163.8356)" class="st1" width="811.8" height="2.9"/>
		
			<rect x="-56.8" y="722.1" transform="matrix(0.9397 -0.342 0.342 0.9397 -226.4122 163.0418)" class="st1" width="811.8" height="2.9"/>
		
			<rect x="-57.5" y="712.8" transform="matrix(0.9397 -0.342 0.342 0.9397 -223.291 162.248)" class="st1" width="811.8" height="2.9"/>
		
			<rect x="-58.1" y="703.6" transform="matrix(0.9397 -0.342 0.342 0.9397 -220.1698 161.4543)" class="st1" width="811.8" height="2.9"/>
		
			<rect x="-58.8" y="694.3" transform="matrix(0.9397 -0.342 0.342 0.9397 -217.0485 160.6605)" class="st1" width="811.8" height="2.9"/>
		
			<rect x="-59.5" y="685.1" transform="matrix(0.9397 -0.342 0.342 0.9397 -213.9273 159.8667)" class="st1" width="811.8" height="2.9"/>
		
			<rect x="-60.2" y="675.8" transform="matrix(0.9397 -0.342 0.342 0.9397 -210.8061 159.073)" class="st1" width="811.8" height="2.9"/>
		
			<rect x="-60.9" y="666.6" transform="matrix(0.9397 -0.342 0.342 0.9397 -207.6849 158.2792)" class="st1" width="811.8" height="2.9"/>
		
			<rect x="-61.6" y="657.3" transform="matrix(0.9397 -0.342 0.342 0.9397 -204.5637 157.4854)" class="st1" width="811.8" height="2.9"/>
		
			<rect x="-62.3" y="648.1" transform="matrix(0.9397 -0.342 0.342 0.9397 -201.4425 156.6917)" class="st1" width="811.8" height="2.9"/>
		
			<rect x="-63" y="638.8" transform="matrix(0.9397 -0.342 0.342 0.9397 -198.3213 155.8979)" class="st1" width="811.8" height="2.9"/>
		
			<rect x="-63.7" y="629.6" transform="matrix(0.9397 -0.342 0.342 0.9397 -195.2001 155.1041)" class="st1" width="811.8" height="2.9"/>
		
			<rect x="-64.4" y="620.4" transform="matrix(0.9397 -0.342 0.342 0.9397 -192.0788 154.3103)" class="st1" width="811.8" height="2.9"/>
		
			<rect x="-65" y="611.1" transform="matrix(0.9397 -0.342 0.342 0.9397 -188.9576 153.5166)" class="st1" width="811.8" height="2.9"/>
		
			<rect x="-65.7" y="601.9" transform="matrix(0.9397 -0.342 0.342 0.9397 -185.8364 152.7228)" class="st1" width="811.8" height="2.9"/>
		
			<rect x="-66.4" y="592.6" transform="matrix(0.9397 -0.342 0.342 0.9397 -182.7152 151.929)" class="st1" width="811.8" height="2.9"/>
		
			<rect x="-67.1" y="583.4" transform="matrix(0.9397 -0.342 0.342 0.9397 -179.594 151.1353)" class="st1" width="811.8" height="2.9"/>
		
			<rect x="-67.8" y="574.1" transform="matrix(0.9397 -0.342 0.342 0.9397 -176.4728 150.3415)" class="st1" width="811.8" height="2.9"/>
		
			<rect x="-68.5" y="564.9" transform="matrix(0.9397 -0.342 0.342 0.9397 -173.3516 149.5477)" class="st1" width="811.8" height="2.9"/>
		
			<rect x="-69.2" y="555.6" transform="matrix(0.9397 -0.342 0.342 0.9397 -170.2303 148.754)" class="st1" width="811.8" height="2.9"/>
		
			<rect x="-69.9" y="546.4" transform="matrix(0.9397 -0.342 0.342 0.9397 -167.1091 147.9602)" class="st1" width="811.8" height="2.9"/>
		
			<rect x="-70.6" y="537.1" transform="matrix(0.9397 -0.342 0.342 0.9397 -163.9879 147.1664)" class="st1" width="811.8" height="2.9"/>
		
			<rect x="-71.3" y="527.9" transform="matrix(0.9397 -0.342 0.342 0.9397 -160.8667 146.3726)" class="st1" width="811.8" height="2.9"/>
		
			<rect x="-71.9" y="518.6" transform="matrix(0.9397 -0.342 0.342 0.9397 -157.7455 145.5789)" class="st1" width="811.8" height="2.9"/>
		
			<rect x="-72.6" y="509.4" transform="matrix(0.9397 -0.342 0.342 0.9397 -154.6243 144.7851)" class="st1" width="811.8" height="2.9"/>
		
			<rect x="-73.3" y="500.1" transform="matrix(0.9397 -0.342 0.342 0.9397 -151.5031 143.9913)" class="st1" width="811.8" height="2.9"/>
		
			<rect x="-74" y="490.9" transform="matrix(0.9397 -0.342 0.342 0.9397 -148.3819 143.1976)" class="st1" width="811.8" height="2.9"/>
		
			<rect x="-74.7" y="481.6" transform="matrix(0.9397 -0.342 0.342 0.9397 -145.2606 142.4038)" class="st1" width="811.8" height="2.9"/>
		
			<rect x="-75.4" y="472.4" transform="matrix(0.9397 -0.342 0.342 0.9397 -142.1394 141.61)" class="st1" width="811.8" height="2.9"/>
		
			<rect x="-76.1" y="463.1" transform="matrix(0.9397 -0.342 0.342 0.9397 -139.0182 140.8163)" class="st1" width="811.8" height="2.9"/>
		
			<rect x="-76.8" y="453.9" transform="matrix(0.9397 -0.342 0.342 0.9397 -135.897 140.0225)" class="st1" width="811.8" height="2.9"/>
		
			<rect x="-77.5" y="444.6" transform="matrix(0.9397 -0.342 0.342 0.9397 -132.7758 139.2287)" class="st1" width="811.8" height="2.9"/>
		
			<rect x="-78.2" y="435.4" transform="matrix(0.9397 -0.342 0.342 0.9397 -129.6546 138.435)" class="st1" width="811.8" height="2.9"/>
		
			<rect x="-78.8" y="426.2" transform="matrix(0.9397 -0.342 0.342 0.9397 -126.5334 137.6412)" class="st1" width="811.8" height="2.9"/>
		
			<rect x="-79.5" y="416.9" transform="matrix(0.9397 -0.342 0.342 0.9397 -123.4121 136.8474)" class="st1" width="811.8" height="2.9"/>
		
			<rect x="-80.2" y="407.7" transform="matrix(0.9397 -0.342 0.342 0.9397 -120.2909 136.0536)" class="st1" width="811.8" height="2.9"/>
		
			<rect x="-80.9" y="398.4" transform="matrix(0.9397 -0.342 0.342 0.9397 -117.1697 135.2599)" class="st1" width="811.8" height="2.9"/>
		
			<rect x="-81.6" y="389.2" transform="matrix(0.9397 -0.342 0.342 0.9397 -114.0485 134.4661)" class="st1" width="811.8" height="2.9"/>
		
			<rect x="-82.3" y="379.9" transform="matrix(0.9397 -0.342 0.342 0.9397 -110.9273 133.6723)" class="st1" width="811.8" height="2.9"/>
		
			<rect x="-83" y="370.7" transform="matrix(0.9397 -0.342 0.342 0.9397 -107.8061 132.8786)" class="st1" width="811.8" height="2.9"/>
		
			<rect x="-83.7" y="361.4" transform="matrix(0.9397 -0.342 0.342 0.9397 -104.6849 132.0848)" class="st1" width="811.8" height="2.9"/>
		
			<rect x="-84.4" y="352.2" transform="matrix(0.9397 -0.342 0.342 0.9397 -101.5637 131.291)" class="st1" width="811.8" height="2.9"/>
		
			<rect x="-85.1" y="342.9" transform="matrix(0.9397 -0.342 0.342 0.9397 -98.4424 130.4973)" class="st1" width="811.8" height="2.9"/>
		
			<rect x="-85.8" y="333.7" transform="matrix(0.9397 -0.342 0.342 0.9397 -95.3212 129.7035)" class="st1" width="811.8" height="2.9"/>
		
			<rect x="-86.4" y="324.4" transform="matrix(0.9397 -0.342 0.342 0.9397 -92.2 128.9097)" class="st1" width="811.8" height="2.9"/>
		
			<rect x="-87.1" y="315.2" transform="matrix(0.9397 -0.342 0.342 0.9397 -89.0788 128.1159)" class="st1" width="811.8" height="2.9"/>
		
			<rect x="-87.8" y="305.9" transform="matrix(0.9397 -0.342 0.342 0.9397 -85.9576 127.3222)" class="st1" width="811.8" height="2.9"/>
		
			<rect x="-88.5" y="296.7" transform="matrix(0.9397 -0.342 0.342 0.9397 -82.8364 126.5284)" class="st1" width="811.8" height="2.9"/>
		
			<rect x="-89.2" y="287.4" transform="matrix(0.9397 -0.342 0.342 0.9397 -79.7152 125.7346)" class="st1" width="811.8" height="2.9"/>
		
			<rect x="-89.9" y="278.2" transform="matrix(0.9397 -0.342 0.342 0.9397 -76.5939 124.9409)" class="st1" width="811.8" height="2.9"/>
		
			<rect x="-90.6" y="268.9" transform="matrix(0.9397 -0.342 0.342 0.9397 -73.4727 124.1471)" class="st1" width="811.8" height="2.9"/>
		
			<rect x="-91.3" y="259.7" transform="matrix(0.9397 -0.342 0.342 0.9397 -70.3515 123.3533)" class="st1" width="811.8" height="2.9"/>
		
			<rect x="-92" y="250.5" transform="matrix(0.9397 -0.342 0.342 0.9397 -67.2303 122.5596)" class="st1" width="811.8" height="2.9"/>
		
			<rect x="-92.7" y="241.2" transform="matrix(0.9397 -0.342 0.342 0.9397 -64.1091 121.7658)" class="st1" width="811.8" height="2.9"/>
		
			<rect x="-93.3" y="232" transform="matrix(0.9397 -0.342 0.342 0.9397 -60.9879 120.972)" class="st1" width="811.8" height="2.9"/>
		
			<rect x="-94" y="222.7" transform="matrix(0.9397 -0.342 0.342 0.9397 -57.8667 120.1782)" class="st1" width="811.8" height="2.9"/>
		
			<rect x="-94.7" y="213.5" transform="matrix(0.9397 -0.342 0.342 0.9397 -54.7455 119.3845)" class="st1" width="811.8" height="2.9"/>
		
			<rect x="-95.4" y="204.2" transform="matrix(0.9397 -0.342 0.342 0.9397 -51.6242 118.5907)" class="st1" width="811.8" height="2.9"/>
		
			<rect x="-96.1" y="195" transform="matrix(0.9397 -0.342 0.342 0.9397 -48.503 117.7969)" class="st1" width="811.8" height="2.9"/>
		
			<rect x="-96.8" y="185.7" transform="matrix(0.9397 -0.342 0.342 0.9397 -45.3818 117.0032)" class="st1" width="811.8" height="2.9"/>
		
			<rect x="-97.5" y="176.5" transform="matrix(0.9397 -0.342 0.342 0.9397 -42.2606 116.2094)" class="st1" width="811.8" height="2.9"/>
		
			<rect x="-98.2" y="167.2" transform="matrix(0.9397 -0.342 0.342 0.9397 -39.1394 115.4156)" class="st1" width="811.8" height="2.9"/>
		
			<rect x="-98.9" y="158" transform="matrix(0.9397 -0.342 0.342 0.9397 -36.0182 114.6219)" class="st1" width="811.8" height="2.9"/>
		
			<rect x="-99.6" y="148.7" transform="matrix(0.9397 -0.342 0.342 0.9397 -32.897 113.8281)" class="st1" width="811.8" height="2.9"/>
		
			<rect x="-100.2" y="139.5" transform="matrix(0.9397 -0.342 0.342 0.9397 -29.7758 113.0343)" class="st1" width="811.8" height="2.9"/>
		
			<rect x="-100.9" y="130.2" transform="matrix(0.9397 -0.342 0.342 0.9397 -26.6545 112.2405)" class="st1" width="811.8" height="2.9"/>
		
			<rect x="-101.6" y="121" transform="matrix(0.9397 -0.342 0.342 0.9397 -23.5333 111.4468)" class="st1" width="811.8" height="2.9"/>
		
			<rect x="-102.3" y="111.7" transform="matrix(0.9397 -0.342 0.342 0.9397 -20.4121 110.653)" class="st1" width="811.8" height="2.9"/>
		
			<rect x="-103" y="102.5" transform="matrix(0.9397 -0.342 0.342 0.9397 -17.2909 109.8592)" class="st1" width="811.8" height="2.9"/>
		
			<rect x="-103.7" y="93.2" transform="matrix(0.9397 -0.342 0.342 0.9397 -14.1697 109.0655)" class="st1" width="811.8" height="2.9"/>
		
			<rect x="-104.4" y="84" transform="matrix(0.9397 -0.342 0.342 0.9397 -11.0485 108.2717)" class="st1" width="811.8" height="2.9"/>
		
			<rect x="-105.1" y="74.7" transform="matrix(0.9397 -0.342 0.342 0.9397 -7.9273 107.4779)" class="st1" width="811.8" height="2.9"/>
		
			<rect x="-105.8" y="65.5" transform="matrix(0.9397 -0.342 0.342 0.9397 -4.806 106.6842)" class="st1" width="811.8" height="2.9"/>
		
			<rect x="-106.5" y="56.3" transform="matrix(0.9397 -0.342 0.342 0.9397 -1.6848 105.8904)" class="st1" width="811.8" height="2.9"/>
		
			<rect x="-107.1" y="47" transform="matrix(0.9397 -0.342 0.342 0.9397 1.4364 105.0966)" class="st1" width="811.8" height="2.9"/>
		
			<rect x="-107.8" y="37.8" transform="matrix(0.9397 -0.342 0.342 0.9397 4.5576 104.3028)" class="st1" width="811.8" height="2.9"/>
		
			<rect x="-108.5" y="28.5" transform="matrix(0.9397 -0.342 0.342 0.9397 7.6788 103.5091)" class="st1" width="811.8" height="2.9"/>
		
			<rect x="-109.2" y="19.3" transform="matrix(0.9397 -0.342 0.342 0.9397 10.8 102.7153)" class="st1" width="811.8" height="2.9"/>
		
			<rect x="-109.9" y="10" transform="matrix(0.9397 -0.342 0.342 0.9397 13.9212 101.9215)" class="st1" width="811.8" height="2.9"/>
		
			<rect x="-110.6" y="0.8" transform="matrix(0.9397 -0.342 0.342 0.9397 17.0424 101.1278)" class="st1" width="811.8" height="2.9"/>
		
			<rect x="-111.3" y="-8.5" transform="matrix(0.9397 -0.342 0.342 0.9397 20.1637 100.334)" class="st1" width="811.8" height="2.9"/>
		
			<rect x="-112" y="-17.7" transform="matrix(0.9397 -0.342 0.342 0.9397 23.2849 99.5402)" class="st1" width="811.8" height="2.9"/>
		
			<rect x="-112.7" y="-27" transform="matrix(0.9397 -0.342 0.342 0.9397 26.4061 98.7465)" class="st1" width="811.8" height="2.9"/>
		
			<rect x="-113.4" y="-36.2" transform="matrix(0.9397 -0.342 0.342 0.9397 29.5273 97.9527)" class="st1" width="811.8" height="2.9"/>
		
			<rect x="-114.1" y="-45.5" transform="matrix(0.9397 -0.342 0.342 0.9397 32.6485 97.1589)" class="st1" width="811.8" height="2.9"/>
	</g>
</g>
<g>
	<defs>
		<path id="SVGID_5_" d="M507.9,178.8c8.9,21.8,17.8,43.5,26.5,65.3c63.7,159.4,127.4,318.7,191,478.1c0.3,0.8,0.5,1.6,0.9,2.3
			c2.5,4.4,0.8,5.3-3.7,5.2c-47.3,0-94.6,0.1-141.9,0.4c-4.6,0-6.3-1.6-7.8-5.6c-66-172.4-132.1-344.7-198.4-517
			c-3.7-9.6-8.2-18.8-11.2-28.7c0.5-0.5,1.1-1,1.6-1.5c17.9-0.1,35.8-0.3,53.6-0.3c29.2,0,58.4,0.2,87.6,0.3
			C506.8,177.8,507.4,178.3,507.9,178.8z"/>
	</defs>
	<clipPath id="SVGID_6_">
		<use xlink:href="#SVGID_5_"  style="overflow:visible;"/>
	</clipPath>
	<g class="st3">
		
			<rect x="236.9" y="949.9" transform="matrix(0.9397 -0.342 0.342 0.9397 -286.612 277.2104)" class="st1" width="811.8" height="2.9"/>
		
			<rect x="236.2" y="940.6" transform="matrix(0.9397 -0.342 0.342 0.9397 -283.4908 276.4166)" class="st1" width="811.8" height="2.9"/>
		
			<rect x="235.5" y="931.4" transform="matrix(0.9397 -0.342 0.342 0.9397 -280.3696 275.6229)" class="st1" width="811.8" height="2.9"/>
		
			<rect x="234.8" y="922.1" transform="matrix(0.9397 -0.342 0.342 0.9397 -277.2484 274.8291)" class="st1" width="811.8" height="2.9"/>
		
			<rect x="234.1" y="912.9" transform="matrix(0.9397 -0.342 0.342 0.9397 -274.1271 274.0353)" class="st1" width="811.8" height="2.9"/>
		
			<rect x="233.4" y="903.6" transform="matrix(0.9397 -0.342 0.342 0.9397 -271.0059 273.2415)" class="st1" width="811.8" height="2.9"/>
		
			<rect x="232.7" y="894.4" transform="matrix(0.9397 -0.342 0.342 0.9397 -267.8847 272.4478)" class="st1" width="811.8" height="2.9"/>
		
			<rect x="232" y="885.1" transform="matrix(0.9397 -0.342 0.342 0.9397 -264.7635 271.654)" class="st1" width="811.8" height="2.9"/>
		
			<rect x="231.4" y="875.9" transform="matrix(0.9397 -0.342 0.342 0.9397 -261.6423 270.8602)" class="st1" width="811.8" height="2.9"/>
		
			<rect x="230.7" y="866.6" transform="matrix(0.9397 -0.342 0.342 0.9397 -258.5211 270.0665)" class="st1" width="811.8" height="2.9"/>
		
			<rect x="230" y="857.4" transform="matrix(0.9397 -0.342 0.342 0.9397 -255.3999 269.2727)" class="st1" width="811.8" height="2.9"/>
		
			<rect x="229.3" y="848.1" transform="matrix(0.9397 -0.342 0.342 0.9397 -252.2786 268.4789)" class="st1" width="811.8" height="2.9"/>
		
			<rect x="228.6" y="838.9" transform="matrix(0.9397 -0.342 0.342 0.9397 -249.1574 267.6852)" class="st1" width="811.8" height="2.9"/>
		
			<rect x="227.9" y="829.6" transform="matrix(0.9397 -0.342 0.342 0.9397 -246.0362 266.8914)" class="st1" width="811.8" height="2.9"/>
		
			<rect x="227.2" y="820.4" transform="matrix(0.9397 -0.342 0.342 0.9397 -242.915 266.0976)" class="st1" width="811.8" height="2.9"/>
		
			<rect x="226.5" y="811.2" transform="matrix(0.9397 -0.342 0.342 0.9397 -239.7938 265.3038)" class="st1" width="811.8" height="2.9"/>
		
			<rect x="225.8" y="801.9" transform="matrix(0.9397 -0.342 0.342 0.9397 -236.6726 264.5101)" class="st1" width="811.8" height="2.9"/>
		
			<rect x="225.1" y="792.7" transform="matrix(0.9397 -0.342 0.342 0.9397 -233.5514 263.7163)" class="st1" width="811.8" height="2.9"/>
		
			<rect x="224.5" y="783.4" transform="matrix(0.9397 -0.342 0.342 0.9397 -230.4301 262.9225)" class="st1" width="811.8" height="2.9"/>
		
			<rect x="223.8" y="774.2" transform="matrix(0.9397 -0.342 0.342 0.9397 -227.3089 262.1288)" class="st1" width="811.8" height="2.9"/>
		
			<rect x="223.1" y="764.9" transform="matrix(0.9397 -0.342 0.342 0.9397 -224.1877 261.335)" class="st1" width="811.8" height="2.9"/>
		
			<rect x="222.4" y="755.7" transform="matrix(0.9397 -0.342 0.342 0.9397 -221.0665 260.5412)" class="st1" width="811.8" height="2.9"/>
		
			<rect x="221.7" y="746.4" transform="matrix(0.9397 -0.342 0.342 0.9397 -217.9453 259.7475)" class="st1" width="811.8" height="2.9"/>
		
			<rect x="221" y="737.2" transform="matrix(0.9397 -0.342 0.342 0.9397 -214.8241 258.9537)" class="st1" width="811.8" height="2.9"/>
		
			<rect x="220.3" y="727.9" transform="matrix(0.9397 -0.342 0.342 0.9397 -211.7029 258.1599)" class="st1" width="811.8" height="2.9"/>
		
			<rect x="219.6" y="718.7" transform="matrix(0.9397 -0.342 0.342 0.9397 -208.5816 257.3661)" class="st1" width="811.8" height="2.9"/>
		
			<rect x="218.9" y="709.4" transform="matrix(0.9397 -0.342 0.342 0.9397 -205.4604 256.5724)" class="st1" width="811.8" height="2.9"/>
		
			<rect x="218.2" y="700.2" transform="matrix(0.9397 -0.342 0.342 0.9397 -202.3392 255.7786)" class="st1" width="811.8" height="2.9"/>
		
			<rect x="217.6" y="690.9" transform="matrix(0.9397 -0.342 0.342 0.9397 -199.218 254.9848)" class="st1" width="811.8" height="2.9"/>
		
			<rect x="216.9" y="681.7" transform="matrix(0.9397 -0.342 0.342 0.9397 -196.0968 254.1911)" class="st1" width="811.8" height="2.9"/>
		
			<rect x="216.2" y="672.4" transform="matrix(0.9397 -0.342 0.342 0.9397 -192.9756 253.3973)" class="st1" width="811.8" height="2.9"/>
		
			<rect x="215.5" y="663.2" transform="matrix(0.9397 -0.342 0.342 0.9397 -189.8544 252.6035)" class="st1" width="811.8" height="2.9"/>
		
			<rect x="214.8" y="653.9" transform="matrix(0.9397 -0.342 0.342 0.9397 -186.7332 251.8098)" class="st1" width="811.8" height="2.9"/>
		
			<rect x="214.1" y="644.7" transform="matrix(0.9397 -0.342 0.342 0.9397 -183.612 251.016)" class="st1" width="811.8" height="2.9"/>
		
			<rect x="213.4" y="635.4" transform="matrix(0.9397 -0.342 0.342 0.9397 -180.4907 250.2222)" class="st1" width="811.8" height="2.9"/>
		
			<rect x="212.7" y="626.2" transform="matrix(0.9397 -0.342 0.342 0.9397 -177.3695 249.4285)" class="st1" width="811.8" height="2.9"/>
		
			<rect x="212" y="617" transform="matrix(0.9397 -0.342 0.342 0.9397 -174.2483 248.6347)" class="st1" width="811.8" height="2.9"/>
		
			<rect x="211.3" y="607.7" transform="matrix(0.9397 -0.342 0.342 0.9397 -171.1271 247.8409)" class="st1" width="811.8" height="2.9"/>
		
			<rect x="210.7" y="598.5" transform="matrix(0.9397 -0.342 0.342 0.9397 -168.0059 247.0471)" class="st1" width="811.8" height="2.9"/>
		
			<rect x="210" y="589.2" transform="matrix(0.9397 -0.342 0.342 0.9397 -164.8847 246.2534)" class="st1" width="811.8" height="2.9"/>
		
			<rect x="209.3" y="580" transform="matrix(0.9397 -0.342 0.342 0.9397 -161.7635 245.4596)" class="st1" width="811.8" height="2.9"/>
		
			<rect x="208.6" y="570.7" transform="matrix(0.9397 -0.342 0.342 0.9397 -158.6422 244.6658)" class="st1" width="811.8" height="2.9"/>
		
			<rect x="207.9" y="561.5" transform="matrix(0.9397 -0.342 0.342 0.9397 -155.521 243.8721)" class="st1" width="811.8" height="2.9"/>
		
			<rect x="207.2" y="552.2" transform="matrix(0.9397 -0.342 0.342 0.9397 -152.3998 243.0783)" class="st1" width="811.8" height="2.9"/>
		
			<rect x="206.5" y="543" transform="matrix(0.9397 -0.342 0.342 0.9397 -149.2786 242.2845)" class="st1" width="811.8" height="2.9"/>
		
			<rect x="205.8" y="533.7" transform="matrix(0.9397 -0.342 0.342 0.9397 -146.1574 241.4908)" class="st1" width="811.8" height="2.9"/>
		
			<rect x="205.1" y="524.5" transform="matrix(0.9397 -0.342 0.342 0.9397 -143.0362 240.697)" class="st1" width="811.8" height="2.9"/>
		
			<rect x="204.4" y="515.2" transform="matrix(0.9397 -0.342 0.342 0.9397 -139.915 239.9032)" class="st1" width="811.8" height="2.9"/>
		
			<rect x="203.7" y="506" transform="matrix(0.9397 -0.342 0.342 0.9397 -136.7937 239.1095)" class="st1" width="811.8" height="2.9"/>
		
			<rect x="203.1" y="496.7" transform="matrix(0.9397 -0.342 0.342 0.9397 -133.6725 238.3157)" class="st1" width="811.8" height="2.9"/>
		
			<rect x="202.4" y="487.5" transform="matrix(0.9397 -0.342 0.342 0.9397 -130.5513 237.5219)" class="st1" width="811.8" height="2.9"/>
		
			<rect x="201.7" y="478.2" transform="matrix(0.9397 -0.342 0.342 0.9397 -127.4301 236.7281)" class="st1" width="811.8" height="2.9"/>
		
			<rect x="201" y="469" transform="matrix(0.9397 -0.342 0.342 0.9397 -124.3089 235.9344)" class="st1" width="811.8" height="2.9"/>
		
			<rect x="200.3" y="459.7" transform="matrix(0.9397 -0.342 0.342 0.9397 -121.1877 235.1406)" class="st1" width="811.8" height="2.9"/>
		
			<rect x="199.6" y="450.5" transform="matrix(0.9397 -0.342 0.342 0.9397 -118.0665 234.3468)" class="st1" width="811.8" height="2.9"/>
		
			<rect x="198.9" y="441.2" transform="matrix(0.9397 -0.342 0.342 0.9397 -114.9453 233.5531)" class="st1" width="811.8" height="2.9"/>
		
			<rect x="198.2" y="432" transform="matrix(0.9397 -0.342 0.342 0.9397 -111.824 232.7593)" class="st1" width="811.8" height="2.9"/>
		
			<rect x="197.5" y="422.8" transform="matrix(0.9397 -0.342 0.342 0.9397 -108.7028 231.9655)" class="st1" width="811.8" height="2.9"/>
		
			<rect x="196.8" y="413.5" transform="matrix(0.9397 -0.342 0.342 0.9397 -105.5816 231.1718)" class="st1" width="811.8" height="2.9"/>
		
			<rect x="196.2" y="404.3" transform="matrix(0.9397 -0.342 0.342 0.9397 -102.4604 230.378)" class="st1" width="811.8" height="2.9"/>
		
			<rect x="195.5" y="395" transform="matrix(0.9397 -0.342 0.342 0.9397 -99.3392 229.5842)" class="st1" width="811.8" height="2.9"/>
		
			<rect x="194.8" y="385.8" transform="matrix(0.9397 -0.342 0.342 0.9397 -96.218 228.7905)" class="st1" width="811.8" height="2.9"/>
		
			<rect x="194.1" y="376.5" transform="matrix(0.9397 -0.342 0.342 0.9397 -93.0968 227.9967)" class="st1" width="811.8" height="2.9"/>
		
			<rect x="193.4" y="367.3" transform="matrix(0.9397 -0.342 0.342 0.9397 -89.9756 227.2029)" class="st1" width="811.8" height="2.9"/>
		
			<rect x="192.7" y="358" transform="matrix(0.9397 -0.342 0.342 0.9397 -86.8543 226.4091)" class="st1" width="811.8" height="2.9"/>
		
			<rect x="192" y="348.8" transform="matrix(0.9397 -0.342 0.342 0.9397 -83.7331 225.6154)" class="st1" width="811.8" height="2.9"/>
		
			<rect x="191.3" y="339.5" transform="matrix(0.9397 -0.342 0.342 0.9397 -80.6119 224.8216)" class="st1" width="811.8" height="2.9"/>
		
			<rect x="190.6" y="330.3" transform="matrix(0.9397 -0.342 0.342 0.9397 -77.4907 224.0278)" class="st1" width="811.8" height="2.9"/>
		
			<rect x="189.9" y="321" transform="matrix(0.9397 -0.342 0.342 0.9397 -74.3695 223.2341)" class="st1" width="811.8" height="2.9"/>
		
			<rect x="189.3" y="311.8" transform="matrix(0.9397 -0.342 0.342 0.9397 -71.2483 222.4403)" class="st1" width="811.8" height="2.9"/>
		
			<rect x="188.6" y="302.5" transform="matrix(0.9397 -0.342 0.342 0.9397 -68.1271 221.6465)" class="st1" width="811.8" height="2.9"/>
		
			<rect x="187.9" y="293.3" transform="matrix(0.9397 -0.342 0.342 0.9397 -65.0058 220.8528)" class="st1" width="811.8" height="2.9"/>
		
			<rect x="187.2" y="284" transform="matrix(0.9397 -0.342 0.342 0.9397 -61.8846 220.059)" class="st1" width="811.8" height="2.9"/>
		
			<rect x="186.5" y="274.8" transform="matrix(0.9397 -0.342 0.342 0.9397 -58.7634 219.2652)" class="st1" width="811.8" height="2.9"/>
		
			<rect x="185.8" y="265.5" transform="matrix(0.9397 -0.342 0.342 0.9397 -55.6422 218.4714)" class="st1" width="811.8" height="2.9"/>
		
			<rect x="185.1" y="256.3" transform="matrix(0.9397 -0.342 0.342 0.9397 -52.521 217.6777)" class="st1" width="811.8" height="2.9"/>
		
			<rect x="184.4" y="247.1" transform="matrix(0.9397 -0.342 0.342 0.9397 -49.3998 216.8839)" class="st1" width="811.8" height="2.9"/>
		
			<rect x="183.7" y="237.8" transform="matrix(0.9397 -0.342 0.342 0.9397 -46.2786 216.0901)" class="st1" width="811.8" height="2.9"/>
		
			<rect x="183" y="228.6" transform="matrix(0.9397 -0.342 0.342 0.9397 -43.1574 215.2964)" class="st1" width="811.8" height="2.9"/>
		
			<rect x="182.4" y="219.3" transform="matrix(0.9397 -0.342 0.342 0.9397 -40.0361 214.5026)" class="st1" width="811.8" height="2.9"/>
		
			<rect x="181.7" y="210.1" transform="matrix(0.9397 -0.342 0.342 0.9397 -36.9149 213.7088)" class="st1" width="811.8" height="2.9"/>
		
			<rect x="181" y="200.8" transform="matrix(0.9397 -0.342 0.342 0.9397 -33.7937 212.9151)" class="st1" width="811.8" height="2.9"/>
		
			<rect x="180.3" y="191.6" transform="matrix(0.9397 -0.342 0.342 0.9397 -30.6725 212.1213)" class="st1" width="811.8" height="2.9"/>
		
			<rect x="179.6" y="182.3" transform="matrix(0.9397 -0.342 0.342 0.9397 -27.5513 211.3275)" class="st1" width="811.8" height="2.9"/>
		
			<rect x="178.9" y="173.1" transform="matrix(0.9397 -0.342 0.342 0.9397 -24.4301 210.5337)" class="st1" width="811.8" height="2.9"/>
		
			<rect x="178.2" y="163.8" transform="matrix(0.9397 -0.342 0.342 0.9397 -21.3089 209.74)" class="st1" width="811.8" height="2.9"/>
		
			<rect x="177.5" y="154.6" transform="matrix(0.9397 -0.342 0.342 0.9397 -18.1876 208.9462)" class="st1" width="811.8" height="2.9"/>
		
			<rect x="176.8" y="145.3" transform="matrix(0.9397 -0.342 0.342 0.9397 -15.0664 208.1524)" class="st1" width="811.8" height="2.9"/>
		
			<rect x="176.1" y="136.1" transform="matrix(0.9397 -0.342 0.342 0.9397 -11.9452 207.3587)" class="st1" width="811.8" height="2.9"/>
		
			<rect x="175.4" y="126.8" transform="matrix(0.9397 -0.342 0.342 0.9397 -8.824 206.5649)" class="st1" width="811.8" height="2.9"/>
		
			<rect x="174.8" y="117.6" transform="matrix(0.9397 -0.342 0.342 0.9397 -5.7028 205.7711)" class="st1" width="811.8" height="2.9"/>
		
			<rect x="174.1" y="108.3" transform="matrix(0.9397 -0.342 0.342 0.9397 -2.5816 204.9774)" class="st1" width="811.8" height="2.9"/>
		
			<rect x="173.4" y="99.1" transform="matrix(0.9397 -0.342 0.342 0.9397 0.5396 204.1836)" class="st1" width="811.8" height="2.9"/>
		
			<rect x="172.7" y="89.8" transform="matrix(0.9397 -0.342 0.342 0.9397 3.6608 203.3898)" class="st1" width="811.8" height="2.9"/>
		<rect x="172" y="80.6" transform="matrix(0.9397 -0.342 0.342 0.9397 6.7821 202.596)" class="st1" width="811.8" height="2.9"/>
		
			<rect x="171.3" y="71.3" transform="matrix(0.9397 -0.342 0.342 0.9397 9.9033 201.8023)" class="st1" width="811.8" height="2.9"/>
		
			<rect x="170.6" y="62.1" transform="matrix(0.9397 -0.342 0.342 0.9397 13.0245 201.0085)" class="st1" width="811.8" height="2.9"/>
		
			<rect x="169.9" y="52.9" transform="matrix(0.9397 -0.342 0.342 0.9397 16.1457 200.2147)" class="st1" width="811.8" height="2.9"/>
		
			<rect x="169.2" y="43.6" transform="matrix(0.9397 -0.342 0.342 0.9397 19.2669 199.421)" class="st1" width="811.8" height="2.9"/>
		
			<rect x="168.5" y="34.4" transform="matrix(0.9397 -0.342 0.342 0.9397 22.3881 198.6272)" class="st1" width="811.8" height="2.9"/>
		
			<rect x="167.9" y="25.1" transform="matrix(0.9397 -0.342 0.342 0.9397 25.5093 197.8334)" class="st1" width="811.8" height="2.9"/>
		
			<rect x="167.2" y="15.9" transform="matrix(0.9397 -0.342 0.342 0.9397 28.6305 197.0397)" class="st1" width="811.8" height="2.9"/>
	</g>
</g>
<g>
	<defs>
		<path id="SVGID_7_" d="M163.1,728.7c0.6-8.8,5.1-16.4,8.1-24.4c19.5-50.7,39.3-101.3,59.1-151.8c0.8-2.1,2-4,2.9-6.1
			c45-9.5,90-18.9,135-28.4c23.4-4.9,46.8-9.8,70.3-14.7c0.2,2.3-1.6,2.8-2.7,3.7c-89.5,73.1-179.1,146.2-268.6,219.3
			C166,727.3,165,728.9,163.1,728.7z"/>
	</defs>
	<clipPath id="SVGID_8_">
		<use xlink:href="#SVGID_7_"  style="overflow:visible;"/>
	</clipPath>
	<g class="st4">
		
			<rect x="-207.9" y="1176.2" transform="matrix(0.9397 -0.342 0.342 0.9397 -390.8336 138.725)" class="st1" width="811.8" height="2.9"/>
		
			<rect x="-208.6" y="1166.9" transform="matrix(0.9397 -0.342 0.342 0.9397 -387.7124 137.9312)" class="st1" width="811.8" height="2.9"/>
		
			<rect x="-209.3" y="1157.7" transform="matrix(0.9397 -0.342 0.342 0.9397 -384.5912 137.1374)" class="st1" width="811.8" height="2.9"/>
		
			<rect x="-210" y="1148.4" transform="matrix(0.9397 -0.342 0.342 0.9397 -381.47 136.3437)" class="st1" width="811.8" height="2.9"/>
		
			<rect x="-210.7" y="1139.2" transform="matrix(0.9397 -0.342 0.342 0.9397 -378.3488 135.5499)" class="st1" width="811.8" height="2.9"/>
		
			<rect x="-211.4" y="1129.9" transform="matrix(0.9397 -0.342 0.342 0.9397 -375.2276 134.7561)" class="st1" width="811.8" height="2.9"/>
		
			<rect x="-212.1" y="1120.7" transform="matrix(0.9397 -0.342 0.342 0.9397 -372.1064 133.9624)" class="st1" width="811.8" height="2.9"/>
		
			<rect x="-212.8" y="1111.4" transform="matrix(0.9397 -0.342 0.342 0.9397 -368.9851 133.1686)" class="st1" width="811.8" height="2.9"/>
		
			<rect x="-213.4" y="1102.2" transform="matrix(0.9397 -0.342 0.342 0.9397 -365.8639 132.3748)" class="st1" width="811.8" height="2.9"/>
		
			<rect x="-214.1" y="1092.9" transform="matrix(0.9397 -0.342 0.342 0.9397 -362.7427 131.581)" class="st1" width="811.8" height="2.9"/>
		
			<rect x="-214.8" y="1083.7" transform="matrix(0.9397 -0.342 0.342 0.9397 -359.6215 130.7873)" class="st1" width="811.8" height="2.9"/>
		
			<rect x="-215.5" y="1074.4" transform="matrix(0.9397 -0.342 0.342 0.9397 -356.5003 129.9935)" class="st1" width="811.8" height="2.9"/>
		
			<rect x="-216.2" y="1065.2" transform="matrix(0.9397 -0.342 0.342 0.9397 -353.3791 129.1997)" class="st1" width="811.8" height="2.9"/>
		
			<rect x="-216.9" y="1055.9" transform="matrix(0.9397 -0.342 0.342 0.9397 -350.2578 128.406)" class="st1" width="811.8" height="2.9"/>
		
			<rect x="-217.6" y="1046.7" transform="matrix(0.9397 -0.342 0.342 0.9397 -347.1367 127.6122)" class="st1" width="811.8" height="2.9"/>
		
			<rect x="-218.3" y="1037.4" transform="matrix(0.9397 -0.342 0.342 0.9397 -344.0154 126.8184)" class="st1" width="811.8" height="2.9"/>
		
			<rect x="-219" y="1028.2" transform="matrix(0.9397 -0.342 0.342 0.9397 -340.8942 126.0247)" class="st1" width="811.8" height="2.9"/>
		
			<rect x="-219.7" y="1018.9" transform="matrix(0.9397 -0.342 0.342 0.9397 -337.773 125.2309)" class="st1" width="811.8" height="2.9"/>
		
			<rect x="-220.3" y="1009.7" transform="matrix(0.9397 -0.342 0.342 0.9397 -334.6518 124.4371)" class="st1" width="811.8" height="2.9"/>
		
			<rect x="-221" y="1000.5" transform="matrix(0.9397 -0.342 0.342 0.9397 -331.5306 123.6433)" class="st1" width="811.8" height="2.9"/>
		
			<rect x="-221.7" y="991.2" transform="matrix(0.9397 -0.342 0.342 0.9397 -328.4094 122.8496)" class="st1" width="811.8" height="2.9"/>
		
			<rect x="-222.4" y="982" transform="matrix(0.9397 -0.342 0.342 0.9397 -325.2881 122.0558)" class="st1" width="811.8" height="2.9"/>
		
			<rect x="-223.1" y="972.7" transform="matrix(0.9397 -0.342 0.342 0.9397 -322.1669 121.262)" class="st1" width="811.8" height="2.9"/>
		
			<rect x="-223.8" y="963.5" transform="matrix(0.9397 -0.342 0.342 0.9397 -319.0457 120.4683)" class="st1" width="811.8" height="2.9"/>
		
			<rect x="-224.5" y="954.2" transform="matrix(0.9397 -0.342 0.342 0.9397 -315.9245 119.6745)" class="st1" width="811.8" height="2.9"/>
		
			<rect x="-225.2" y="945" transform="matrix(0.9397 -0.342 0.342 0.9397 -312.8033 118.8807)" class="st1" width="811.8" height="2.9"/>
		
			<rect x="-225.9" y="935.7" transform="matrix(0.9397 -0.342 0.342 0.9397 -309.6821 118.087)" class="st1" width="811.8" height="2.9"/>
		
			<rect x="-226.6" y="926.5" transform="matrix(0.9397 -0.342 0.342 0.9397 -306.5609 117.2932)" class="st1" width="811.8" height="2.9"/>
		
			<rect x="-227.3" y="917.2" transform="matrix(0.9397 -0.342 0.342 0.9397 -303.4397 116.4994)" class="st1" width="811.8" height="2.9"/>
		
			<rect x="-227.9" y="908" transform="matrix(0.9397 -0.342 0.342 0.9397 -300.3185 115.7057)" class="st1" width="811.8" height="2.9"/>
		
			<rect x="-228.6" y="898.7" transform="matrix(0.9397 -0.342 0.342 0.9397 -297.1972 114.9119)" class="st1" width="811.8" height="2.9"/>
		
			<rect x="-229.3" y="889.5" transform="matrix(0.9397 -0.342 0.342 0.9397 -294.076 114.1181)" class="st1" width="811.8" height="2.9"/>
		
			<rect x="-230" y="880.2" transform="matrix(0.9397 -0.342 0.342 0.9397 -290.9548 113.3243)" class="st1" width="811.8" height="2.9"/>
		
			<rect x="-230.7" y="871" transform="matrix(0.9397 -0.342 0.342 0.9397 -287.8336 112.5306)" class="st1" width="811.8" height="2.9"/>
		
			<rect x="-231.4" y="861.7" transform="matrix(0.9397 -0.342 0.342 0.9397 -284.7124 111.7368)" class="st1" width="811.8" height="2.9"/>
		
			<rect x="-232.1" y="852.5" transform="matrix(0.9397 -0.342 0.342 0.9397 -281.5912 110.943)" class="st1" width="811.8" height="2.9"/>
		
			<rect x="-232.8" y="843.2" transform="matrix(0.9397 -0.342 0.342 0.9397 -278.4699 110.1493)" class="st1" width="811.8" height="2.9"/>
		
			<rect x="-233.5" y="834" transform="matrix(0.9397 -0.342 0.342 0.9397 -275.3488 109.3555)" class="st1" width="811.8" height="2.9"/>
		
			<rect x="-234.2" y="824.7" transform="matrix(0.9397 -0.342 0.342 0.9397 -272.2275 108.5617)" class="st1" width="811.8" height="2.9"/>
		
			<rect x="-234.8" y="815.5" transform="matrix(0.9397 -0.342 0.342 0.9397 -269.1063 107.768)" class="st1" width="811.8" height="2.9"/>
		
			<rect x="-235.5" y="806.3" transform="matrix(0.9397 -0.342 0.342 0.9397 -265.9851 106.9742)" class="st1" width="811.8" height="2.9"/>
		
			<rect x="-236.2" y="797" transform="matrix(0.9397 -0.342 0.342 0.9397 -262.8639 106.1804)" class="st1" width="811.8" height="2.9"/>
		
			<rect x="-236.9" y="787.8" transform="matrix(0.9397 -0.342 0.342 0.9397 -259.7427 105.3867)" class="st1" width="811.8" height="2.9"/>
		
			<rect x="-237.6" y="778.5" transform="matrix(0.9397 -0.342 0.342 0.9397 -256.6215 104.5929)" class="st1" width="811.8" height="2.9"/>
		
			<rect x="-238.3" y="769.3" transform="matrix(0.9397 -0.342 0.342 0.9397 -253.5002 103.7991)" class="st1" width="811.8" height="2.9"/>
		
			<rect x="-239" y="760" transform="matrix(0.9397 -0.342 0.342 0.9397 -250.379 103.0053)" class="st1" width="811.8" height="2.9"/>
		
			<rect x="-239.7" y="750.8" transform="matrix(0.9397 -0.342 0.342 0.9397 -247.2578 102.2116)" class="st1" width="811.8" height="2.9"/>
		
			<rect x="-240.4" y="741.5" transform="matrix(0.9397 -0.342 0.342 0.9397 -244.1366 101.4178)" class="st1" width="811.8" height="2.9"/>
		
			<rect x="-241.1" y="732.3" transform="matrix(0.9397 -0.342 0.342 0.9397 -241.0154 100.624)" class="st1" width="811.8" height="2.9"/>
		
			<rect x="-241.7" y="723" transform="matrix(0.9397 -0.342 0.342 0.9397 -237.8942 99.8303)" class="st1" width="811.8" height="2.9"/>
		
			<rect x="-242.4" y="713.8" transform="matrix(0.9397 -0.342 0.342 0.9397 -234.773 99.0365)" class="st1" width="811.8" height="2.9"/>
		
			<rect x="-243.1" y="704.5" transform="matrix(0.9397 -0.342 0.342 0.9397 -231.6517 98.2427)" class="st1" width="811.8" height="2.9"/>
		
			<rect x="-243.8" y="695.3" transform="matrix(0.9397 -0.342 0.342 0.9397 -228.5305 97.449)" class="st1" width="811.8" height="2.9"/>
		
			<rect x="-244.5" y="686" transform="matrix(0.9397 -0.342 0.342 0.9397 -225.4093 96.6552)" class="st1" width="811.8" height="2.9"/>
		
			<rect x="-245.2" y="676.8" transform="matrix(0.9397 -0.342 0.342 0.9397 -222.2881 95.8614)" class="st1" width="811.8" height="2.9"/>
		
			<rect x="-245.9" y="667.5" transform="matrix(0.9397 -0.342 0.342 0.9397 -219.1669 95.0676)" class="st1" width="811.8" height="2.9"/>
		
			<rect x="-246.6" y="658.3" transform="matrix(0.9397 -0.342 0.342 0.9397 -216.0457 94.2739)" class="st1" width="811.8" height="2.9"/>
		
			<rect x="-247.3" y="649" transform="matrix(0.9397 -0.342 0.342 0.9397 -212.9245 93.4801)" class="st1" width="811.8" height="2.9"/>
		
			<rect x="-248" y="639.8" transform="matrix(0.9397 -0.342 0.342 0.9397 -209.8033 92.6863)" class="st1" width="811.8" height="2.9"/>
		
			<rect x="-248.6" y="630.6" transform="matrix(0.9397 -0.342 0.342 0.9397 -206.6821 91.8926)" class="st1" width="811.8" height="2.9"/>
		
			<rect x="-249.3" y="621.3" transform="matrix(0.9397 -0.342 0.342 0.9397 -203.5608 91.0988)" class="st1" width="811.8" height="2.9"/>
		
			<rect x="-250" y="612.1" transform="matrix(0.9397 -0.342 0.342 0.9397 -200.4396 90.305)" class="st1" width="811.8" height="2.9"/>
		
			<rect x="-250.7" y="602.8" transform="matrix(0.9397 -0.342 0.342 0.9397 -197.3184 89.5113)" class="st1" width="811.8" height="2.9"/>
		
			<rect x="-251.4" y="593.6" transform="matrix(0.9397 -0.342 0.342 0.9397 -194.1972 88.7175)" class="st1" width="811.8" height="2.9"/>
		
			<rect x="-252.1" y="584.3" transform="matrix(0.9397 -0.342 0.342 0.9397 -191.076 87.9237)" class="st1" width="811.8" height="2.9"/>
		
			<rect x="-252.8" y="575.1" transform="matrix(0.9397 -0.342 0.342 0.9397 -187.9548 87.1299)" class="st1" width="811.8" height="2.9"/>
		
			<rect x="-253.5" y="565.8" transform="matrix(0.9397 -0.342 0.342 0.9397 -184.8336 86.3362)" class="st1" width="811.8" height="2.9"/>
		
			<rect x="-254.2" y="556.6" transform="matrix(0.9397 -0.342 0.342 0.9397 -181.7123 85.5424)" class="st1" width="811.8" height="2.9"/>
		
			<rect x="-254.9" y="547.3" transform="matrix(0.9397 -0.342 0.342 0.9397 -178.5911 84.7486)" class="st1" width="811.8" height="2.9"/>
		
			<rect x="-255.6" y="538.1" transform="matrix(0.9397 -0.342 0.342 0.9397 -175.4699 83.9549)" class="st1" width="811.8" height="2.9"/>
		
			<rect x="-256.2" y="528.8" transform="matrix(0.9397 -0.342 0.342 0.9397 -172.3487 83.1611)" class="st1" width="811.8" height="2.9"/>
		
			<rect x="-256.9" y="519.6" transform="matrix(0.9397 -0.342 0.342 0.9397 -169.2275 82.3673)" class="st1" width="811.8" height="2.9"/>
		
			<rect x="-257.6" y="510.3" transform="matrix(0.9397 -0.342 0.342 0.9397 -166.1063 81.5736)" class="st1" width="811.8" height="2.9"/>
		
			<rect x="-258.3" y="501.1" transform="matrix(0.9397 -0.342 0.342 0.9397 -162.9851 80.7798)" class="st1" width="811.8" height="2.9"/>
		
			<rect x="-259" y="491.8" transform="matrix(0.9397 -0.342 0.342 0.9397 -159.8638 79.986)" class="st1" width="811.8" height="2.9"/>
		
			<rect x="-259.7" y="482.6" transform="matrix(0.9397 -0.342 0.342 0.9397 -156.7426 79.1923)" class="st1" width="811.8" height="2.9"/>
		
			<rect x="-260.4" y="473.3" transform="matrix(0.9397 -0.342 0.342 0.9397 -153.6214 78.3985)" class="st1" width="811.8" height="2.9"/>
		
			<rect x="-261.1" y="464.1" transform="matrix(0.9397 -0.342 0.342 0.9397 -150.5002 77.6047)" class="st1" width="811.8" height="2.9"/>
		
			<rect x="-261.8" y="454.8" transform="matrix(0.9397 -0.342 0.342 0.9397 -147.379 76.8109)" class="st1" width="811.8" height="2.9"/>
		
			<rect x="-262.5" y="445.6" transform="matrix(0.9397 -0.342 0.342 0.9397 -144.2578 76.0172)" class="st1" width="811.8" height="2.9"/>
		
			<rect x="-263.1" y="436.4" transform="matrix(0.9397 -0.342 0.342 0.9397 -141.1366 75.2234)" class="st1" width="811.8" height="2.9"/>
		
			<rect x="-263.8" y="427.1" transform="matrix(0.9397 -0.342 0.342 0.9397 -138.0154 74.4296)" class="st1" width="811.8" height="2.9"/>
		
			<rect x="-264.5" y="417.9" transform="matrix(0.9397 -0.342 0.342 0.9397 -134.8941 73.6359)" class="st1" width="811.8" height="2.9"/>
		
			<rect x="-265.2" y="408.6" transform="matrix(0.9397 -0.342 0.342 0.9397 -131.7729 72.8421)" class="st1" width="811.8" height="2.9"/>
		
			<rect x="-265.9" y="399.4" transform="matrix(0.9397 -0.342 0.342 0.9397 -128.6517 72.0483)" class="st1" width="811.8" height="2.9"/>
		
			<rect x="-266.6" y="390.1" transform="matrix(0.9397 -0.342 0.342 0.9397 -125.5305 71.2546)" class="st1" width="811.8" height="2.9"/>
		
			<rect x="-267.3" y="380.9" transform="matrix(0.9397 -0.342 0.342 0.9397 -122.4093 70.4608)" class="st1" width="811.8" height="2.9"/>
		
			<rect x="-268" y="371.6" transform="matrix(0.9397 -0.342 0.342 0.9397 -119.2881 69.667)" class="st1" width="811.8" height="2.9"/>
		
			<rect x="-268.7" y="362.4" transform="matrix(0.9397 -0.342 0.342 0.9397 -116.1669 68.8732)" class="st1" width="811.8" height="2.9"/>
		
			<rect x="-269.4" y="353.1" transform="matrix(0.9397 -0.342 0.342 0.9397 -113.0457 68.0795)" class="st1" width="811.8" height="2.9"/>
		
			<rect x="-270" y="343.9" transform="matrix(0.9397 -0.342 0.342 0.9397 -109.9244 67.2857)" class="st1" width="811.8" height="2.9"/>
		
			<rect x="-270.7" y="334.6" transform="matrix(0.9397 -0.342 0.342 0.9397 -106.8032 66.4919)" class="st1" width="811.8" height="2.9"/>
		
			<rect x="-271.4" y="325.4" transform="matrix(0.9397 -0.342 0.342 0.9397 -103.682 65.6982)" class="st1" width="811.8" height="2.9"/>
		
			<rect x="-272.1" y="316.1" transform="matrix(0.9397 -0.342 0.342 0.9397 -100.5608 64.9044)" class="st1" width="811.8" height="2.9"/>
		
			<rect x="-272.8" y="306.9" transform="matrix(0.9397 -0.342 0.342 0.9397 -97.4396 64.1106)" class="st1" width="811.8" height="2.9"/>
		
			<rect x="-273.5" y="297.6" transform="matrix(0.9397 -0.342 0.342 0.9397 -94.3184 63.3169)" class="st1" width="811.8" height="2.9"/>
		
			<rect x="-274.2" y="288.4" transform="matrix(0.9397 -0.342 0.342 0.9397 -91.1972 62.5231)" class="st1" width="811.8" height="2.9"/>
		
			<rect x="-274.9" y="279.1" transform="matrix(0.9397 -0.342 0.342 0.9397 -88.0759 61.7293)" class="st1" width="811.8" height="2.9"/>
		
			<rect x="-275.6" y="269.9" transform="matrix(0.9397 -0.342 0.342 0.9397 -84.9547 60.9356)" class="st1" width="811.8" height="2.9"/>
		
			<rect x="-276.3" y="260.7" transform="matrix(0.9397 -0.342 0.342 0.9397 -81.8335 60.1418)" class="st1" width="811.8" height="2.9"/>
		
			<rect x="-276.9" y="251.4" transform="matrix(0.9397 -0.342 0.342 0.9397 -78.7123 59.348)" class="st1" width="811.8" height="2.9"/>
		
			<rect x="-277.6" y="242.2" transform="matrix(0.9397 -0.342 0.342 0.9397 -75.5911 58.5542)" class="st1" width="811.8" height="2.9"/>
	</g>
</g>
</svg>
