<?xml version="1.0" encoding="utf-8"?>
<!-- Generator: Adobe Illustrator 24.1.1, SVG Export Plug-In . SVG Version: 6.00 Build 0)  -->
<svg version="1.1" id="Layer_1" xmlns="http://www.w3.org/2000/svg" xmlns:xlink="http://www.w3.org/1999/xlink" x="0px" y="0px"
	 viewBox="0 0 4023.3 3764.6" style="enable-background:new 0 0 4023.3 3764.6;" xml:space="preserve">
<style type="text/css">
	.st0{display:none;opacity:0.3;fill:#E1E3FF;}
	.st1{display:none;fill:#C6C6C6;}
	.st2{fill:#C6C6C6;}
</style>
<path class="st0" d="M-25.1,20.2c83.1-49.1,253-68.4,332.5,48.1s-4.5,291.3-19.6,462.9c-15.2,171.6,44.9,252.5,228.8,364.6
	c183.3,111.7,244.4,378.8,119.9,547c-92.8,125.4-598.2,84.9-689.2-76.9C-154.5,1184.9-149.2,93.5-25.1,20.2z"/>
<path class="st1" d="M840.1,1395.6c0-114.5-38.5-208.3-116.3-284.8c-89.4-87.9-218.3-140.7-332.1-187.2
	c-140.5-57.5-261.8-107.1-276.2-204.2c-21-141.3,58.1-261.3,134.6-377.3c65-98.6,126.4-191.8,126.4-294c0-38.8-14.8-70.5-43.9-94.3
	c-50.4-41.2-142.2-59.1-272.8-53.1C-37-94.9-120.4-78.2-121.2-78c-1.9,0.4-3.2,2.3-2.8,4.2c0.4,1.9,2.3,3.2,4.2,2.8
	c3.3-0.7,330.8-65.4,447.9,30.4c27.4,22.4,41.3,52.3,41.3,88.8c0,100-60.8,192.3-125.3,290C166.9,455.3,87.1,576.5,108.4,720.4
	c15,101.2,138.1,151.5,280.6,209.8c113.1,46.3,241.3,98.7,329.8,185.7c101.2,99.5,134.6,229.2,102.2,396.3c-0.4,1.9,0.9,3.8,2.8,4.2
	c1.9,0.4,3.8-0.9,4.2-2.8C836.1,1472,840.1,1432.7,840.1,1395.6z"/>
<g>
	<path class="st2" d="M4020.4,3741c-0.3,0-0.6,0-0.9-0.1c-0.8-0.2-78.6-25.2-207.7-115.7c-119-83.4-307.4-241.2-529.2-519.4
		c0,0,0,0,0,0c-93.4-119.2-115.2-267.1-117.1-370.1c-2-111.5,18.2-196,18.4-196.9c0.3-1.2,1.3-2.1,2.5-2.2c1.2-0.1,2.4,0.5,2.9,1.7
		c109.4,236,99.2,543.9,98.4,564.7c122.2,153.2,312.6,367,527.3,517.4c128.4,90,205.4,114.6,206.1,114.9c1.5,0.5,2.4,2.1,1.9,3.6
		C4022.8,3740.2,4021.7,3741,4020.4,3741z M3187.8,2548.6c-5,23.9-18.1,96.6-16.4,187.2c1.8,100.3,22.7,243.3,111,360.1
		C3283.7,3045.5,3286.4,2767.9,3187.8,2548.6z"/>
	<path class="st2" d="M3709.5,3546.8c-0.5,0-1-0.1-1.5-0.4c-0.8-0.5-1.3-1.2-1.4-2.1c-0.1-0.9-10.5-86.9,11.9-202.2
		c20.7-106.4,74.4-260.3,212.6-389c0.9-0.8,2.2-1,3.3-0.5c1.1,0.6,1.7,1.7,1.5,3c-0.2,1.4-18.6,137.2-47.1,281.4
		c-30.7,154.8-104,282.2-178.4,309.7C3710.2,3546.7,3709.9,3546.8,3709.5,3546.8z M3929.2,2962.9
		c-132.7,126.6-184.7,276.3-204.9,380.3c-19.6,100.9-13.9,179.1-12.2,196.6c71.4-29.5,141.4-153.5,171.2-304
		C3907.7,3112,3924.8,2994.3,3929.2,2962.9z"/>
	<path class="st2" d="M3191.8,3621.8c-70.3,0-114.8-12.4-115.5-12.6c-1.1-0.3-1.9-1.2-2-2.3c-0.2-1.1,0.3-2.2,1.1-2.8
		c47.4-34.5,154.1-88.2,298.7-125.9c147.3-38.3,239.5-20.2,240.4-20c0.9,0.2,1.7,0.8,2.1,1.7c0.4,0.9,0.3,1.9-0.3,2.7
		c-1.7,2.6-43.9,63.7-221.3,124.8C3317.3,3614.2,3246.7,3621.8,3191.8,3621.8z M3083.9,3605.1c28.4,6.6,154.5,30.2,309.3-23.2
		c151-52,203.5-104.8,215.5-118.9c-20.4-3.1-105.9-12.4-233.1,20.7C3236.7,3519.9,3133.2,3570.8,3083.9,3605.1z"/>
	<path class="st2" d="M3074.2,3293.1c-144.3,0-193.2-46.6-195.5-48.8c-0.7-0.7-1-1.6-0.8-2.6c0.2-0.9,0.8-1.7,1.7-2.1
		c1.6-0.7,160.1-70.1,323-58c71.4,5.3,122.1,21.1,152,33.4c32.6,13.4,48,25.4,48.6,25.9c0.8,0.6,1.2,1.6,1.1,2.7
		c-0.1,1-0.8,1.9-1.7,2.3c-2.6,1.1-65.4,27.2-261.2,44.3C3117,3292.2,3094.7,3293.1,3074.2,3293.1z M2886.3,3243.1
		c6.5,5.1,22.8,15.9,52.1,25.5c36.5,12,101.3,24.5,202.5,15.7c164.6-14.3,235.9-35.6,254.4-42c-16.3-10.7-78.2-46.5-193-55
		C3055.7,3176.5,2912.7,3232.2,2886.3,3243.1z"/>
	<path class="st2" d="M3494.7,3347.4c-0.5,0-1.1-0.2-1.6-0.5c-0.7-0.4-1.1-1.1-1.3-1.8c-0.4-1.8-37.9-181.3,14.5-340.9
		c52.3-159.4,152.8-289.1,153.8-290.4c0.7-0.9,1.9-1.3,3.1-1c1.1,0.3,2,1.3,2.1,2.4c0.1,0.7,8.5,76.4-24.6,219.1
		c-10.6,45.6-19.1,92-27.4,136.8c-25.8,139.8-48.1,260.6-118,276.2C3495.2,3347.4,3494.9,3347.4,3494.7,3347.4z M3660.2,2723.4
		c-20.3,27.4-102.7,143.7-148.3,282.6c-48.3,147-19.5,311.1-14.9,335c63.9-17.5,85.6-135.1,110.7-270.9
		c8.3-44.9,16.9-91.3,27.5-137.1C3662.1,2816.9,3661.4,2745.7,3660.2,2723.4z"/>
	<path class="st2" d="M3709.5,3546.8c-0.4,0-0.9-0.1-1.3-0.3c-1.4-0.7-2-2.4-1.3-3.9c0.5-1,51.2-104.9,111.5-293.6
		c60.5-189.1,111.6-294.1,112.1-295.1c0.7-1.4,2.4-2,3.9-1.3c1.4,0.7,2,2.4,1.3,3.9c-0.5,1-51.5,105.6-111.8,294.3
		c-60.5,189.1-111.3,293.4-111.8,294.4C3711.6,3546.2,3710.6,3546.8,3709.5,3546.8z"/>
	<path class="st2" d="M3052.3,3256.5c-103.7,0-171.1-11.2-172-11.4c-1.6-0.3-2.6-1.8-2.4-3.3c0.3-1.6,1.8-2.6,3.3-2.4
		c1.1,0.2,117,19.5,278.9,7.2c162.5-12.3,240.7-6.4,241.5-6.4c1.6,0.1,2.8,1.5,2.7,3.1c-0.1,1.6-1.5,2.7-3.1,2.7
		c-0.8-0.1-78.6-5.8-240.6,6.4C3121.5,3255.4,3085.1,3256.5,3052.3,3256.5z"/>
	<path class="st2" d="M3494.7,3347.4c-0.8,0-1.6-0.3-2.2-1c-1-1.2-0.9-3,0.3-4.1c0.6-0.5,42.2-40.3,65.5-243.5
		c23.6-206.2,100.8-382.7,101.6-384.5c0.6-1.5,2.4-2.1,3.8-1.5c1.5,0.6,2.1,2.4,1.5,3.8c-0.8,1.8-77.6,177.5-101.1,382.8
		c-23.6,206.9-65.6,245.6-67.4,247.2C3496.1,3347.2,3495.4,3347.4,3494.7,3347.4z"/>
	<path class="st2" d="M3284.9,3100.9c-1.2,0-2.3-0.7-2.7-1.9c-0.6-1.6-58.4-157.7-58.4-279.3c0-120.7-39.4-277.9-39.8-279.4
		c-0.4-1.5,0.5-3.1,2.1-3.5c1.5-0.4,3.1,0.5,3.5,2.1c0.4,1.6,40,159.4,40,280.8c0,120.6,57.5,275.7,58,277.3
		c0.6,1.5-0.2,3.2-1.7,3.7C3285.6,3100.8,3285.3,3100.9,3284.9,3100.9z"/>
	<path class="st2" d="M3077.1,3609.3c-1.6,0-2.9-1.3-2.9-2.8c0-1.6,1.2-2.9,2.8-2.9c1.2,0,122.4-2.6,255.8-35.1
		c85.5-20.8,158.6-55.8,212-81.3c30.1-14.4,54-25.8,68.6-28.8c1.6-0.3,3.1,0.7,3.4,2.2c0.3,1.6-0.7,3.1-2.2,3.4
		c-13.9,2.9-37.4,14.1-67.2,28.4c-53.6,25.6-127,60.8-213.1,81.7C3200.2,3606.7,3078.3,3609.3,3077.1,3609.3
		C3077.1,3609.3,3077.1,3609.3,3077.1,3609.3z"/>
</g>
</svg>
