<?xml version="1.0" encoding="iso-8859-1"?>
<!-- Generator: Adobe Illustrator 19.0.0, SVG Export Plug-In . SVG Version: 6.00 Build 0)  -->
<svg version="1.1" id="Capa_1" xmlns="http://www.w3.org/2000/svg" xmlns:xlink="http://www.w3.org/1999/xlink" x="0px" y="0px"
	 viewBox="0 0 480.167 480.167" style="enable-background:new 0 0 480.167 480.167;" xml:space="preserve">
<g>
	<path style="fill:#DBDBDB;" d="M224.236,47.434l15.948-1.293l9.957,122.765l-15.948,1.293L224.236,47.434z"/>
	<path style="fill:#DBDBDB;" d="M69.965,112.439l9.828-12.626l110.873,86.306l-9.828,12.626L69.965,112.439z"/>
	<path style="fill:#DBDBDB;" d="M68.218,76.608l143.315-50.717l5.335,15.076L73.553,91.684L68.218,76.608z"/>
	<path style="fill:#DBDBDB;" d="M242.135,45.359l6.816-14.484l181.333,85.334l-6.816,14.484L242.135,45.359z"/>
	<path style="fill:#DBDBDB;" d="M78.825,104.715l1.447-15.934l331.69,30.128l-1.447,15.934L78.825,104.715z"/>
	<path style="fill:#DBDBDB;" d="M432.914,146.893l15.926-1.537l9.331,96.662l-15.926,1.537L432.914,146.893z"/>
	<path style="fill:#DBDBDB;" d="M311.07,247.113l1.29-15.956l127.831,10.337l-1.29,15.956L311.07,247.113z"/>
	<path style="fill:#DBDBDB;" d="M408.519,393.316l35.313-126.674l15.412,4.296l-35.313,126.674L408.519,393.316z"/>
	<path style="fill:#DBDBDB;" d="M258.45,437.171l142.365-38.074l4.134,15.457l-142.365,38.074L258.45,437.171z"/>
	<path style="fill:#DBDBDB;" d="M108.809,412.843l321.144-159.871l7.134,14.331L115.943,427.174L108.809,412.843z"/>
	<path style="fill:#DBDBDB;" d="M32.85,315.245l14.729-6.249l46.666,109.998l-14.729,6.249L32.85,315.245z"/>
	<path style="fill:#DBDBDB;" d="M25.573,284.416l22.702-173.327l15.864,2.078L41.437,286.493L25.573,284.416z"/>
	<path style="fill:#DBDBDB;" d="M47.845,277.167l129.118-43.973l5.156,15.138L53.001,292.305L47.845,277.167z"/>
	<path style="fill:#DBDBDB;" d="M102.257,447.435l1.175-15.957l126.665,9.329l-1.175,15.957L102.257,447.435z"/>
	<path style="fill:#DBDBDB;" d="M242.782,433.246l175.017-281.125l13.576,8.452L256.358,441.698L242.782,433.246z"/>
	<path style="fill:#DBDBDB;" d="M43.475,310.528l9.548-12.839l184.666,137.336l-9.548,12.839L43.475,310.528z"/>
	<path style="fill:#DBDBDB;" d="M29.202,281.923l184.636-242.02l12.721,9.705L41.922,291.628L29.202,281.923z"/>
	<path style="fill:#DBDBDB;" d="M284.796,294.912l10.943-11.673l109.94,103.064l-10.943,11.673L284.796,294.912z"/>
	<path style="fill:#DBDBDB;" d="M89.082,414.012l102.694-139.977l12.907,9.469L101.989,423.482L89.082,414.012z"/>
	<path style="fill:#DBDBDB;" d="M296.987,194.059l111.23-58.56l7.454,14.158l-111.23,58.56L296.987,194.059z"/>
</g>
<circle style="fill:#FDB62F;" cx="240.211" cy="240.123" r="72"/>
<path style="fill:#FFA12E;" d="M189.299,291.035c28.118,28.118,73.706,28.118,101.824,0s28.118-73.706,0-101.824L189.299,291.035z"
	/>
<path style="fill:#F46B27;" d="M272.211,224.123c0-13.255-10.745-24-24-24v-8h-16v8h-16c-4.418,0-8,3.582-8,8v64
	c0,4.418,3.582,8,8,8h16v8h16v-8c13.255-0.009,23.993-10.762,23.983-24.017c-0.004-5.898-2.18-11.588-6.111-15.984
	C270.034,235.73,272.217,230.03,272.211,224.123z M248.211,264.123h-24v-16h24c4.418,0,8,3.582,8,8
	C256.211,260.541,252.63,264.123,248.211,264.123z M248.211,232.123h-24v-16h24c4.418,0,8,3.582,8,8S252.63,232.123,248.211,232.123
	z"/>
<g>
	<circle style="fill:#4398D1;" cx="232.211" cy="32.123" r="24"/>
	<circle style="fill:#4398D1;" cx="32.211" cy="296.123" r="24"/>
</g>
<g>
	<circle style="fill:#87CED9;" cx="240.211" cy="448.123" r="24"/>
	<circle style="fill:#87CED9;" cx="432.211" cy="136.123" r="24"/>
	<circle style="fill:#87CED9;" cx="64.211" cy="96.123" r="24"/>
</g>
<circle style="fill:#4398D1;" cx="416.211" cy="408.123" r="24"/>
<circle style="fill:#87CED9;" cx="448.211" cy="256.123" r="24"/>
<circle style="fill:#4398D1;" cx="96.211" cy="432.123" r="24"/>
<path d="M216.211,280.123h16v8h16v-8c13.255-0.009,23.993-10.762,23.983-24.017c-0.004-5.898-2.18-11.588-6.111-15.984
	c8.837-9.88,7.991-25.052-1.889-33.889c-4.396-3.932-10.086-6.107-15.983-6.111v-8h-16v8h-16c-4.418,0-8,3.582-8,8v64
	C208.211,276.541,211.793,280.123,216.211,280.123z M224.211,216.123h24c4.418,0,8,3.582,8,8s-3.582,8-8,8h-24V216.123z
	 M224.211,248.123h24c4.418,0,8,3.582,8,8c0,4.418-3.582,8-8,8h-24V248.123z"/>
<path d="M455.603,225.067l-5.664-62.336c14.695-9.818,18.649-29.69,8.831-44.385c-5.928-8.873-15.888-14.207-26.559-14.223
	c-5.535,0.034-10.964,1.521-15.744,4.312L263.579,38.371c3.523-17.273-7.625-34.132-24.898-37.655s-34.132,7.625-37.655,24.898
	c-0.24,1.177-0.414,2.368-0.52,3.565L83.26,70.563c-5.482-4.158-12.168-6.419-19.048-6.44
	c-17.673,0.046-31.962,14.411-31.916,32.084c0.028,10.725,5.427,20.723,14.38,26.628L27.348,264.619
	c-17.447,2.528-29.541,18.72-27.014,36.167s18.72,29.541,36.167,27.014c0.541-0.078,1.079-0.17,1.615-0.276l35.248,82.264
	c-12.387,12.556-12.249,32.777,0.307,45.163c12.556,12.387,32.777,12.249,45.163-0.307c1.707-1.73,3.21-3.649,4.481-5.72
	l85.704,6.12c3.78,17.205,20.792,28.089,37.997,24.309c13.935-3.061,24.142-15.004,24.995-29.245l114.536-30.136
	c6.52,16.427,25.122,24.457,41.548,17.938c16.427-6.52,24.457-25.122,17.938-41.548c-3.21-8.088-9.576-14.52-17.63-17.814
	l26.024-91.072c17.302-3.425,28.551-20.228,25.126-37.53c-2.428-12.263-11.787-21.982-23.95-24.87V225.067z M439.603,225.459
	c-7.86,2.225-14.569,7.378-18.744,14.4l-36.856-2.952l43.064-69.272c1.699,0.299,3.419,0.462,5.144,0.488
	c0.728,0,1.408-0.168,2.128-0.216L439.603,225.459z M399.819,380.787l-66.456-62.264l88.512-44.256
	c3.96,5.687,9.659,9.934,16.24,12.104l-25.76,90.176C407.925,377.06,403.653,378.505,399.819,380.787L399.819,380.787z
	 M384.619,403.987l-115.608,30.392c-1.073-2.206-2.396-4.281-3.944-6.184l59.632-95.92l63.936,59.944
	c-2.098,3.608-3.457,7.598-4,11.736L384.619,403.987z M221.499,422.299l-38.608-28.576l122.92-61.472l-53.6,86.272
	c-10.19-4.207-21.838-2.781-30.712,3.76L221.499,422.299z M117.579,408.515c-1.095-1.042-2.263-2.005-3.496-2.88l20.688-27.592
	l17.6,13.032L117.579,408.515z M144.347,365.275l46.64-62.176c29.708,23.387,71.768,22.651,100.64-1.76l14.016,13.144l-137.2,68.6
	L144.347,365.275z M225.947,63.523l2.952,38.4l-39.2-3.648l28.68-37.408c2.412,1.2,4.969,2.082,7.608,2.624L225.947,63.523z
	 M170.859,96.547l-75.392-7.008c-0.411-1.942-1.003-3.841-1.768-5.672l109.392-38.632c0.841,1.868,1.861,3.65,3.048,5.32
	L170.859,96.547z M94.611,105.499l64.752,6.024l-24.112,31.496l-42.4-32.952C93.554,108.591,94.142,107.064,94.611,105.499z
	 M178.179,113.275l52,4.8l3.256,42.36c-18,1.524-34.947,9.124-48.056,21.552l-37.512-29.184L178.179,113.275z M416.507,259.027
	l-67.2,33.6l25.144-40.448l41.808,3.344c0,0.208-0.064,0.4-0.064,0.608C416.212,257.115,416.42,258.059,416.507,259.027
	L416.507,259.027z M321.979,306.291l-1.056,0.536l-18.136-17c9.634-12.059,15.552-26.66,17.032-42.024l36.696,2.928L321.979,306.291
	z M176.211,240.123c0-35.346,28.654-64,64-64s64,28.654,64,64s-28.654,64-64,64C204.882,304.083,176.251,275.452,176.211,240.123z
	 M319.763,231.739c-1.016-9.531-3.754-18.799-8.08-27.352l94.528-49.752c1.728,2.387,3.78,4.522,6.096,6.344l-46.28,74.464
	L319.763,231.739z M400.563,139.531l-97.472,51.304c-13.132-16.792-32.429-27.639-53.6-30.128l-3.2-41.096l154.088,14.336
	c-0.056,0.728-0.224,1.432-0.224,2.176c0.072,1.142,0.206,2.28,0.4,3.408L400.563,139.531z M174.883,194.107
	c-9.463,13.324-14.587,29.242-14.672,45.584L55.683,274.523c-0.208-0.224-0.368-0.48-0.576-0.696l83.04-108.312L174.883,194.107z
	 M63.307,288.859l98.504-32.8c2.705,13.265,8.746,25.622,17.552,35.904l-47.864,63.816l-68.688-50.808
	c0.886-2.868,1.358-5.847,1.4-8.848C64.189,293.675,63.886,291.237,63.307,288.859z M448.211,136.123c0,8.837-7.163,16-16,16
	s-16-7.163-16-16s7.163-16,16-16S448.211,127.286,448.211,136.123z M398.188,117.659l-153.08-14.24l-3.2-40.976
	c5.662-1.815,10.701-5.183,14.544-9.72L398.188,117.659z M232.212,16.123c8.837,0,16,7.163,16,16s-7.163,16-16,16s-16-7.163-16-16
	S223.375,16.123,232.212,16.123z M64.212,80.123c8.837,0,16,7.163,16,16s-7.163,16-16,16s-16-7.163-16-16
	S55.375,80.123,64.212,80.123z M64.212,128.123c6.566-0.005,12.969-2.045,18.328-5.84l42.976,33.424L43.804,262.291l18.328-134.4
	C62.836,127.955,63.499,128.123,64.212,128.123z M16.212,296.123c0-8.837,7.163-16,16-16s16,7.163,16,16s-7.163,16-16,16
	S16.212,304.959,16.212,296.123z M54.691,318.851l67.2,49.68l-23.832,31.776c-0.632,0-1.224-0.184-1.864-0.184
	c-3.043,0.043-6.064,0.528-8.968,1.44l-34.672-80.944C53.267,320.027,54.035,319.507,54.691,318.851z M96.212,448.123
	c-8.837,0-16-7.163-16-16s7.163-16,16-16s16,7.163,16,16S105.048,448.123,96.212,448.123z M126.404,421.971l40.44-20.248
	l44.464,32.864c-0.643,1.444-1.178,2.933-1.6,4.456l-81.6-5.824c0-0.384,0.112-0.736,0.112-1.12
	C128.174,428.646,127.561,425.224,126.404,421.971L126.404,421.971z M240.211,464.123c-8.837,0-16-7.163-16-16s7.163-16,16-16
	c8.837,0,16,7.163,16,16S249.048,464.123,240.211,464.123z M416.211,424.123c-8.837,0-16-7.163-16-16s7.163-16,16-16s16,7.163,16,16
	S425.048,424.123,416.211,424.123z M448.211,272.123c-8.837,0-16-7.163-16-16c0-8.837,7.163-16,16-16s16,7.163,16,16
	C464.211,264.959,457.048,272.123,448.211,272.123z"/>
<g>
</g>
<g>
</g>
<g>
</g>
<g>
</g>
<g>
</g>
<g>
</g>
<g>
</g>
<g>
</g>
<g>
</g>
<g>
</g>
<g>
</g>
<g>
</g>
<g>
</g>
<g>
</g>
<g>
</g>
</svg>
