<?xml version="1.0" encoding="utf-8"?>
<!-- Generator: Adobe Illustrator 24.1.1, SVG Export Plug-In . SVG Version: 6.00 Build 0)  -->
<svg version="1.1" id="Layer_1" xmlns="http://www.w3.org/2000/svg" xmlns:xlink="http://www.w3.org/1999/xlink" x="0px" y="0px"
	 viewBox="0 0 232 4" style="enable-background:new 0 0 232 4;" xml:space="preserve">
<style type="text/css">
	.st0{fill:#999999;}
</style>
<path class="st0" d="M4.6,0H1C0.4,0-0.2,0.5-0.2,1.2v1.1C-0.2,3,0.4,3.6,1,3.6h3.6c0.6,0,1.2-0.5,1.2-1.2h0.7C6.5,3,7,3.6,7.7,3.6
	h3.6c0.6,0,1.2-0.5,1.2-1.2h0.6c0,0.6,0.6,1.2,1.2,1.2h3.6c0.6,0,1.2-0.5,1.2-1.2h0.7c0,0.6,0.6,1.2,1.2,1.2h3.6
	c0.6,0,1.2-0.5,1.2-1.2h0.8c0,0.6,0.6,1.2,1.2,1.2h3.6c0.6,0,1.2-0.5,1.2-1.2h0.7c0,0.6,0.6,1.2,1.2,1.2H38c0.6,0,1.2-0.5,1.2-1.2
	h0.6c0,0.6,0.6,1.2,1.2,1.2h3.6c0.6,0,1.2-0.5,1.2-1.2h0.7c0,0.6,0.6,1.2,1.2,1.2h3.6c0.6,0,1.2-0.5,1.2-1.2h0.7
	c0,0.6,0.6,1.2,1.2,1.2h3.6c0.6,0,1.2-0.5,1.2-1.2h0.7c0,0.6,0.6,1.2,1.2,1.2h3.6c0.6,0,1.2-0.5,1.2-1.2h0.6c0,0.6,0.6,1.2,1.2,1.2
	h3.6c0.6,0,1.2-0.5,1.2-1.2H73c0,0.6,0.6,1.2,1.2,1.2h3.6C78.5,3.6,79,3,79,2.4h0.8c0,0.6,0.6,1.2,1.2,1.2h3.6
	c0.6,0,1.2-0.5,1.2-1.2h0.7c0,0.6,0.6,1.2,1.2,1.2h3.6c0.6,0,1.2-0.5,1.2-1.2h0.6c0,0.6,0.6,1.2,1.2,1.2h3.6c0.6,0,1.2-0.5,1.2-1.2
	h0.7c0,0.6,0.6,1.2,1.2,1.2h3.6c0.6,0,1.2-0.5,1.2-1.2h0.7c0,0.6,0.6,1.2,1.2,1.2h3.6c0.6,0,1.2-0.5,1.2-1.2h0.7
	c0,0.6,0.6,1.2,1.2,1.2h3.6c0.6,0,1.2-0.5,1.2-1.2h0.6c0,0.6,0.6,1.2,1.2,1.2h3.6c0.6,0,1.2-0.5,1.2-1.2h0.7c0,0.6,0.6,1.2,1.2,1.2
	h3.6c0.6,0,1.2-0.5,1.2-1.2h0.8c0,0.6,0.6,1.2,1.2,1.2h3.6c0.6,0,1.2-0.5,1.2-1.2h0.7c0,0.6,0.6,1.2,1.2,1.2h3.6
	c0.6,0,1.2-0.5,1.2-1.2h0.6c0,0.6,0.6,1.2,1.2,1.2h3.6c0.6,0,1.2-0.5,1.2-1.2h0.7c0,0.6,0.6,1.2,1.2,1.2h3.6c0.6,0,1.2-0.5,1.2-1.2
	h0.7c0,0.6,0.6,1.2,1.2,1.2h3.6c0.6,0,1.2-0.5,1.2-1.2h0.7c0,0.6,0.6,1.2,1.2,1.2h3.6c0.6,0,1.2-0.5,1.2-1.2h0.6
	c0,0.6,0.6,1.2,1.2,1.2h3.6c0.6,0,1.2-0.5,1.2-1.2h0.7c0,0.6,0.6,1.2,1.2,1.2h3.6c0.6,0,1.2-0.5,1.2-1.2h0.8c0,0.6,0.6,1.2,1.2,1.2
	h3.6c0.6,0,1.2-0.5,1.2-1.2h0.7c0,0.6,0.6,1.2,1.2,1.2h3.6c0.6,0,1.2-0.5,1.2-1.2h0.6c0,0.6,0.6,1.2,1.2,1.2h3.6
	c0.6,0,1.2-0.5,1.2-1.2h0.7c0,0.6,0.6,1.2,1.2,1.2h3.6c0.6,0,1.2-0.5,1.2-1.2h0.8c0,0.6,0.6,1.2,1.2,1.2h3.6c0.6,0,1.2-0.5,1.2-1.2
	h0.6c0,0.6,0.6,1.2,1.2,1.2h3.6c0.6,0,1.2-0.5,1.2-1.2h0.7c0,0.6,0.6,1.2,1.2,1.2h3.6c0.7,0,1.2-0.5,1.2-1.2V1.2
	c0-0.7-0.5-1.2-1.2-1.2h-3.6c-0.6,0-1.2,0.5-1.2,1.1h-0.7c0-0.6-0.6-1.1-1.2-1.1h-3.6c-0.6,0-1.2,0.5-1.2,1.1h-0.6
	c0-0.6-0.6-1.1-1.2-1.1h-3.6c-0.6,0-1.2,0.5-1.2,1.1h-0.8c0-0.6-0.6-1.1-1.2-1.1h-3.6c-0.6,0-1.2,0.5-1.2,1.1h-0.7
	c0-0.6-0.6-1.1-1.2-1.1h-3.6c-0.6,0-1.2,0.5-1.2,1.1H199c0-0.6-0.6-1.1-1.2-1.1h-3.6c-0.6,0-1.2,0.5-1.2,1.1h-0.7
	c0-0.6-0.6-1.1-1.2-1.1h-3.6c-0.6,0-1.2,0.5-1.2,1.1h-0.8c0-0.6-0.6-1.1-1.2-1.1h-3.6c-0.6,0-1.2,0.5-1.2,1.1H179
	c0-0.6-0.6-1.1-1.2-1.1h-3.6c-0.6,0-1.2,0.5-1.2,1.1h-0.6c0-0.6-0.6-1.1-1.2-1.1h-3.6c-0.6,0-1.2,0.5-1.2,1.1h-0.7
	c0-0.6-0.6-1.1-1.2-1.1h-3.6c-0.6,0-1.2,0.5-1.2,1.1H159c0-0.6-0.6-1.1-1.2-1.1h-3.6c-0.6,0-1.2,0.5-1.2,1.1h-0.7
	c0-0.6-0.6-1.1-1.2-1.1h-3.6c-0.6,0-1.2,0.5-1.2,1.1h-0.6c0-0.6-0.6-1.1-1.2-1.1h-3.6c-0.6,0-1.2,0.5-1.2,1.1h-0.7
	c0-0.6-0.6-1.1-1.2-1.1h-3.6c-0.6,0-1.2,0.5-1.2,1.1h-0.8c0-0.6-0.6-1.1-1.2-1.1h-3.6c-0.6,0-1.2,0.5-1.2,1.1h-0.7
	c0-0.6-0.6-1.1-1.2-1.1h-3.6c-0.6,0-1.2,0.5-1.2,1.1H119c0-0.6-0.6-1.1-1.2-1.1h-3.6c-0.6,0-1.2,0.5-1.2,1.1h-0.7
	c0-0.6-0.6-1.1-1.2-1.1h-3.6c-0.6,0-1.2,0.5-1.2,1.1h-0.7c0-0.6-0.6-1.1-1.2-1.1h-3.6c-0.6,0-1.2,0.5-1.2,1.1h-0.7
	c0-0.6-0.6-1.1-1.2-1.1h-3.6c-0.6,0-1.2,0.5-1.2,1.1h-0.6c0-0.6-0.6-1.1-1.2-1.1h-3.6c-0.6,0-1.2,0.5-1.2,1.1h-0.7
	c0-0.6-0.6-1.1-1.2-1.1H81c-0.6,0-1.2,0.5-1.2,1.1H79C79,0.5,78.5,0,77.8,0h-3.6c-0.6,0-1.2,0.5-1.2,1.1h-0.7c0-0.6-0.6-1.1-1.2-1.1
	h-3.6c-0.6,0-1.2,0.5-1.2,1.1h-0.6c0-0.6-0.6-1.1-1.2-1.1H61c-0.6,0-1.2,0.5-1.2,1.1h-0.7c0-0.6-0.6-1.1-1.2-1.1h-3.6
	c-0.6,0-1.2,0.5-1.2,1.1h-0.7c0-0.6-0.6-1.1-1.2-1.1h-3.6c-0.6,0-1.2,0.5-1.2,1.1h-0.7c0-0.6-0.6-1.1-1.2-1.1H41
	c-0.6,0-1.2,0.5-1.2,1.1h-0.6C39.1,0.5,38.6,0,38,0h-3.6c-0.6,0-1.2,0.5-1.2,1.1h-0.7C32.5,0.5,32,0,31.3,0h-3.6
	c-0.6,0-1.2,0.5-1.2,1.1h-0.8c0-0.6-0.6-1.1-1.2-1.1H21c-0.6,0-1.2,0.5-1.2,1.1h-0.7c0-0.6-0.6-1.1-1.2-1.1h-3.6
	c-0.6,0-1.2,0.5-1.2,1.1h-0.6c0-0.6-0.6-1.1-1.2-1.1H7.7C7,0,6.5,0.5,6.5,1.1H5.8C5.8,0.5,5.3,0,4.6,0z M4.6,2.6H1
	c-0.1,0-0.3-0.1-0.3-0.3V1.2c0-0.1,0.1-0.3,0.3-0.3h3.6c0.1,0,0.2,0.1,0.2,0.2H4.5c-0.3,0-0.6,0.3-0.6,0.6c0,0.3,0.3,0.6,0.6,0.6
	h0.3C4.9,2.5,4.8,2.6,4.6,2.6z M227.6,0.9h3.6c0.1,0,0.3,0.1,0.3,0.3v1.1c0,0.1-0.1,0.3-0.3,0.3h-3.6c-0.1,0-0.2-0.1-0.2-0.2h0.1
	c0.3,0,0.6-0.3,0.6-0.6c0-0.3-0.3-0.6-0.6-0.6h-0.1C227.4,1,227.5,0.9,227.6,0.9z M220.9,0.9h3.6c0.1,0,0.2,0.1,0.2,0.2h-0.3
	c-0.3,0-0.6,0.3-0.6,0.6c0,0.3,0.3,0.6,0.6,0.6h0.3c0,0.1-0.1,0.2-0.2,0.2h-3.6c-0.1,0-0.2-0.1-0.2-0.2h0.1c0.3,0,0.6-0.3,0.6-0.6
	c0-0.3-0.3-0.6-0.6-0.6h-0.1C220.7,1,220.8,0.9,220.9,0.9z M214.3,0.9h3.6c0.1,0,0.2,0.1,0.2,0.2h-0.3c-0.3,0-0.6,0.3-0.6,0.6
	c0,0.3,0.3,0.6,0.6,0.6h0.3c0,0.1-0.1,0.2-0.2,0.2h-3.6c-0.1,0-0.2-0.1-0.2-0.2h0.1c0.3,0,0.6-0.3,0.6-0.6c0-0.3-0.3-0.6-0.6-0.6
	h-0.1C214.1,1,214.2,0.9,214.3,0.9z M207.5,0.9h3.6c0.1,0,0.2,0.1,0.2,0.2h-0.2c-0.3,0-0.6,0.3-0.6,0.6c0,0.3,0.3,0.6,0.6,0.6h0.2
	c0,0.1-0.1,0.2-0.2,0.2h-3.6c-0.1,0-0.2-0.1-0.2-0.2h0.1c0.3,0,0.6-0.3,0.6-0.6c0-0.3-0.3-0.6-0.6-0.6h-0.1
	C207.3,1,207.4,0.9,207.5,0.9z M200.9,0.9h3.6c0.1,0,0.2,0.1,0.2,0.2h-0.3c-0.3,0-0.6,0.3-0.6,0.6c0,0.3,0.3,0.6,0.6,0.6h0.3
	c0,0.1-0.1,0.2-0.2,0.2h-3.6c-0.1,0-0.2-0.1-0.2-0.2h0.1c0.3,0,0.6-0.3,0.6-0.6c0-0.3-0.3-0.6-0.6-0.6h-0.1
	C200.6,1,200.7,0.9,200.9,0.9z M194.2,0.9h3.6c0.1,0,0.2,0.1,0.2,0.2h-0.3c-0.3,0-0.6,0.3-0.6,0.6c0,0.3,0.3,0.6,0.6,0.6h0.3
	c0,0.1-0.1,0.2-0.2,0.2h-3.6c-0.1,0-0.2-0.1-0.2-0.2h0.1c0.3,0,0.6-0.3,0.6-0.6c0-0.3-0.3-0.6-0.6-0.6H194
	C194,1,194.1,0.9,194.2,0.9z M187.6,0.9h3.6c0.1,0,0.2,0.1,0.2,0.2h-0.3c-0.3,0-0.6,0.3-0.6,0.6c0,0.3,0.3,0.6,0.6,0.6h0.3
	c0,0.1-0.1,0.2-0.2,0.2h-3.6c-0.1,0-0.2-0.1-0.2-0.2h0.1c0.3,0,0.6-0.3,0.6-0.6c0-0.3-0.3-0.6-0.6-0.6h-0.1
	C187.4,1,187.5,0.9,187.6,0.9z M180.8,0.9h3.6c0.1,0,0.2,0.1,0.2,0.2h-0.2c-0.3,0-0.6,0.3-0.6,0.6c0,0.3,0.3,0.6,0.6,0.6h0.2
	c0,0.1-0.1,0.2-0.2,0.2h-3.6c-0.1,0-0.2-0.1-0.2-0.2h0.1c0.3,0,0.6-0.3,0.6-0.6c0-0.3-0.3-0.6-0.6-0.6h-0.1
	C180.6,1,180.7,0.9,180.8,0.9z M174.2,0.9h3.6c0.1,0,0.2,0.1,0.2,0.2h-0.3c-0.3,0-0.6,0.3-0.6,0.6c0,0.3,0.3,0.6,0.6,0.6h0.3
	c0,0.1-0.1,0.2-0.2,0.2h-3.6c-0.1,0-0.2-0.1-0.2-0.2h0.1c0.3,0,0.6-0.3,0.6-0.6c0-0.3-0.3-0.6-0.6-0.6h-0.1C174,1,174,0.9,174.2,0.9
	z M167.5,0.9h3.6c0.1,0,0.2,0.1,0.2,0.2H171c-0.3,0-0.6,0.3-0.6,0.6c0,0.3,0.3,0.6,0.6,0.6h0.3c0,0.1-0.1,0.2-0.2,0.2h-3.6
	c-0.1,0-0.2-0.1-0.2-0.2h0.1c0.3,0,0.6-0.3,0.6-0.6c0-0.3-0.3-0.6-0.6-0.6h-0.1C167.3,1,167.4,0.9,167.5,0.9z M160.9,0.9h3.6
	c0.1,0,0.2,0.1,0.2,0.2h-0.3c-0.3,0-0.6,0.3-0.6,0.6c0,0.3,0.3,0.6,0.6,0.6h0.3c0,0.1-0.1,0.2-0.2,0.2h-3.6c-0.1,0-0.2-0.1-0.2-0.2
	h0.1c0.3,0,0.6-0.3,0.6-0.6c0-0.3-0.3-0.6-0.6-0.6h-0.1C160.7,1,160.8,0.9,160.9,0.9z M154.2,0.9h3.6c0.1,0,0.2,0.1,0.2,0.2h-0.3
	c-0.3,0-0.6,0.3-0.6,0.6c0,0.3,0.3,0.6,0.6,0.6h0.3c0,0.1-0.1,0.2-0.2,0.2h-3.6c-0.1,0-0.2-0.1-0.2-0.2h0.1c0.3,0,0.6-0.3,0.6-0.6
	c0-0.3-0.3-0.6-0.6-0.6H154C154,1,154.1,0.9,154.2,0.9z M147.6,0.9h3.6c0.1,0,0.2,0.1,0.2,0.2h-0.3c-0.3,0-0.6,0.3-0.6,0.6
	c0,0.3,0.3,0.6,0.6,0.6h0.3c0,0.1-0.1,0.2-0.2,0.2h-3.6c-0.1,0-0.2-0.1-0.2-0.2h0.1c0.3,0,0.6-0.3,0.6-0.6c0-0.3-0.3-0.6-0.6-0.6
	h-0.1C147.4,1,147.5,0.9,147.6,0.9z M140.9,0.9h3.6c0.1,0,0.2,0.1,0.2,0.2h-0.3c-0.3,0-0.6,0.3-0.6,0.6c0,0.3,0.3,0.6,0.6,0.6h0.3
	c0,0.1-0.1,0.2-0.2,0.2h-3.6c-0.1,0-0.2-0.1-0.2-0.2h0.1c0.3,0,0.6-0.3,0.6-0.6c0-0.3-0.3-0.6-0.6-0.6h-0.1
	C140.7,1,140.8,0.9,140.9,0.9z M134.3,0.9h3.6c0.1,0,0.2,0.1,0.2,0.2h-0.3c-0.3,0-0.6,0.3-0.6,0.6c0,0.3,0.3,0.6,0.6,0.6h0.3
	c0,0.1-0.1,0.2-0.2,0.2h-3.6c-0.1,0-0.2-0.1-0.2-0.2h0.1c0.3,0,0.6-0.3,0.6-0.6c0-0.3-0.3-0.6-0.6-0.6h-0.1
	C134.1,1,134.2,0.9,134.3,0.9z M127.5,0.9h3.6c0.1,0,0.2,0.1,0.2,0.2h-0.2c-0.3,0-0.6,0.3-0.6,0.6c0,0.3,0.3,0.6,0.6,0.6h0.2
	c0,0.1-0.1,0.2-0.2,0.2h-3.6c-0.1,0-0.2-0.1-0.2-0.2h0.1c0.3,0,0.6-0.3,0.6-0.6c0-0.3-0.3-0.6-0.6-0.6h-0.1
	C127.3,1,127.4,0.9,127.5,0.9z M120.9,0.9h3.6c0.1,0,0.2,0.1,0.2,0.2h-0.3c-0.3,0-0.6,0.3-0.6,0.6c0,0.3,0.3,0.6,0.6,0.6h0.3
	c0,0.1-0.1,0.2-0.2,0.2h-3.6c-0.1,0-0.2-0.1-0.2-0.2h0.1c0.3,0,0.6-0.3,0.6-0.6c0-0.3-0.3-0.6-0.6-0.6h-0.1
	C120.7,1,120.8,0.9,120.9,0.9z M114.2,0.9h3.6c0.1,0,0.2,0.1,0.2,0.2h-0.3c-0.3,0-0.6,0.3-0.6,0.6c0,0.3,0.3,0.6,0.6,0.6h0.3
	c0,0.1-0.1,0.2-0.2,0.2h-3.6c-0.1,0-0.2-0.1-0.2-0.2h0.1c0.3,0,0.6-0.3,0.6-0.6c0-0.3-0.3-0.6-0.6-0.6H114
	C114,1,114.1,0.9,114.2,0.9z M107.6,0.9h3.6c0.1,0,0.2,0.1,0.2,0.2h-0.3c-0.3,0-0.6,0.3-0.6,0.6c0,0.3,0.3,0.6,0.6,0.6h0.3
	c0,0.1-0.1,0.2-0.2,0.2h-3.6c-0.1,0-0.2-0.1-0.2-0.2h0.1c0.3,0,0.6-0.3,0.6-0.6c0-0.3-0.3-0.6-0.6-0.6h-0.1
	C107.4,1,107.5,0.9,107.6,0.9z M100.9,0.9h3.6c0.1,0,0.2,0.1,0.2,0.2h-0.3c-0.3,0-0.6,0.3-0.6,0.6c0,0.3,0.3,0.6,0.6,0.6h0.3
	c0,0.1-0.1,0.2-0.2,0.2h-3.6c-0.1,0-0.2-0.1-0.2-0.2h0.1c0.3,0,0.6-0.3,0.6-0.6c0-0.3-0.3-0.6-0.6-0.6h-0.1
	C100.7,1,100.8,0.9,100.9,0.9z M94.3,0.9h3.6c0.1,0,0.2,0.1,0.2,0.2h-0.3c-0.3,0-0.6,0.3-0.6,0.6c0,0.3,0.3,0.6,0.6,0.6h0.3
	c0,0.1-0.1,0.2-0.2,0.2h-3.6c-0.1,0-0.2-0.1-0.2-0.2h0.1c0.3,0,0.6-0.3,0.6-0.6c0-0.3-0.3-0.6-0.6-0.6h-0.1
	C94.1,1,94.2,0.9,94.3,0.9z M87.7,0.9h3.6c0.1,0,0.2,0.1,0.2,0.2h-0.3c-0.3,0-0.6,0.3-0.6,0.6c0,0.3,0.3,0.6,0.6,0.6h0.3
	c0,0.1-0.1,0.2-0.2,0.2h-3.6c-0.1,0-0.2-0.1-0.2-0.2h0.1c0.3,0,0.6-0.3,0.6-0.6c0-0.3-0.3-0.6-0.6-0.6h-0.1
	C87.5,1,87.5,0.9,87.7,0.9z M81,0.9h3.6c0.1,0,0.2,0.1,0.2,0.2h-0.3c-0.3,0-0.6,0.3-0.6,0.6c0,0.3,0.3,0.6,0.6,0.6h0.3
	c0,0.1-0.1,0.2-0.2,0.2H81c-0.1,0-0.2-0.1-0.2-0.2h0.1c0.3,0,0.6-0.3,0.6-0.6c0-0.3-0.3-0.6-0.6-0.6h-0.1C80.8,1,80.9,0.9,81,0.9z
	 M74.2,0.9h3.6c0.1,0,0.2,0.1,0.2,0.2h-0.2c-0.3,0-0.6,0.3-0.6,0.6c0,0.3,0.3,0.6,0.6,0.6h0.2c0,0.1-0.1,0.2-0.2,0.2h-3.6
	c-0.1,0-0.2-0.1-0.2-0.2h0.1c0.3,0,0.6-0.3,0.6-0.6c0-0.3-0.3-0.6-0.6-0.6H74C74,1,74.1,0.9,74.2,0.9z M67.6,0.9h3.6
	c0.1,0,0.2,0.1,0.2,0.2h-0.3c-0.3,0-0.6,0.3-0.6,0.6c0,0.3,0.3,0.6,0.6,0.6h0.3c0,0.1-0.1,0.2-0.2,0.2h-3.6c-0.1,0-0.2-0.1-0.2-0.2
	h0.1c0.3,0,0.6-0.3,0.6-0.6c0-0.3-0.3-0.6-0.6-0.6h-0.1C67.4,1,67.5,0.9,67.6,0.9z M61,0.9h3.6c0.1,0,0.2,0.1,0.2,0.2h-0.3
	c-0.3,0-0.6,0.3-0.6,0.6c0,0.3,0.3,0.6,0.6,0.6h0.3c0,0.1-0.1,0.2-0.2,0.2H61c-0.1,0-0.2-0.1-0.2-0.2h0.1c0.3,0,0.6-0.3,0.6-0.6
	c0-0.3-0.3-0.6-0.6-0.6h-0.1C60.8,1,60.8,0.9,61,0.9z M54.3,0.9h3.6c0.1,0,0.2,0.1,0.2,0.2h-0.3c-0.3,0-0.6,0.3-0.6,0.6
	c0,0.3,0.3,0.6,0.6,0.6h0.3c0,0.1-0.1,0.2-0.2,0.2h-3.6c-0.1,0-0.2-0.1-0.2-0.2h0.1c0.3,0,0.6-0.3,0.6-0.6c0-0.3-0.3-0.6-0.6-0.6
	h-0.1C54.1,1,54.2,0.9,54.3,0.9z M47.7,0.9h3.6c0.1,0,0.2,0.1,0.2,0.2h-0.3c-0.3,0-0.6,0.3-0.6,0.6c0,0.3,0.3,0.6,0.6,0.6h0.3
	c0,0.1-0.1,0.2-0.2,0.2h-3.6c-0.1,0-0.2-0.1-0.2-0.2h0.1c0.3,0,0.6-0.3,0.6-0.6c0-0.3-0.3-0.6-0.6-0.6h-0.1
	C47.5,1,47.6,0.9,47.7,0.9z M41,0.9h3.6c0.1,0,0.2,0.1,0.2,0.2h-0.3c-0.3,0-0.6,0.3-0.6,0.6c0,0.3,0.3,0.6,0.6,0.6h0.3
	c0,0.1-0.1,0.2-0.2,0.2H41c-0.1,0-0.2-0.1-0.2-0.2h0.1c0.3,0,0.6-0.3,0.6-0.6c0-0.3-0.3-0.6-0.6-0.6h-0.1C40.8,1,40.9,0.9,41,0.9z
	 M34.4,0.9H38c0.1,0,0.2,0.1,0.2,0.2h-0.3c-0.3,0-0.6,0.3-0.6,0.6c0,0.3,0.3,0.6,0.6,0.6h0.3c0,0.1-0.1,0.2-0.2,0.2h-3.6
	c-0.1,0-0.2-0.1-0.2-0.2h0.1c0.3,0,0.6-0.3,0.6-0.6c0-0.3-0.3-0.6-0.6-0.6h-0.1C34.2,1,34.3,0.9,34.4,0.9z M27.7,0.9h3.6
	c0.1,0,0.2,0.1,0.2,0.2h-0.3c-0.3,0-0.6,0.3-0.6,0.6c0,0.3,0.3,0.6,0.6,0.6h0.3c0,0.1-0.1,0.2-0.2,0.2h-3.6c-0.1,0-0.2-0.1-0.2-0.2
	h0.1c0.3,0,0.6-0.3,0.6-0.6c0-0.3-0.3-0.6-0.6-0.6h-0.1C27.5,1,27.6,0.9,27.7,0.9z M21,0.9h3.6c0.1,0,0.2,0.1,0.2,0.2h-0.2
	c-0.3,0-0.6,0.3-0.6,0.6c0,0.3,0.3,0.6,0.6,0.6h0.2c0,0.1-0.1,0.2-0.2,0.2H21c-0.1,0-0.2-0.1-0.2-0.2h0.1c0.3,0,0.6-0.3,0.6-0.6
	c0-0.3-0.3-0.6-0.6-0.6h-0.1C20.8,1,20.9,0.9,21,0.9z M14.3,0.9h3.6c0.1,0,0.2,0.1,0.2,0.2h-0.3c-0.3,0-0.6,0.3-0.6,0.6
	c0,0.3,0.3,0.6,0.6,0.6h0.3c0,0.1-0.1,0.2-0.2,0.2h-3.6c-0.1,0-0.2-0.1-0.2-0.2h0.1c0.3,0,0.6-0.3,0.6-0.6c0-0.3-0.3-0.6-0.6-0.6
	h-0.1C14.1,1,14.2,0.9,14.3,0.9z M7.7,0.9h3.6c0.1,0,0.2,0.1,0.2,0.2h-0.3c-0.3,0-0.6,0.3-0.6,0.6c0,0.3,0.3,0.6,0.6,0.6h0.3
	c0,0.1-0.1,0.2-0.2,0.2H7.7c-0.1,0-0.2-0.1-0.2-0.2h0.1c0.3,0,0.6-0.3,0.6-0.6c0-0.3-0.3-0.6-0.6-0.6H7.4C7.5,1,7.6,0.9,7.7,0.9z"/>
</svg>
