<?xml version="1.0" encoding="utf-8"?>
<!-- Generator: Adobe Illustrator 24.1.1, SVG Export Plug-In . SVG Version: 6.00 Build 0)  -->
<svg version="1.1" id="Layer_1" xmlns="http://www.w3.org/2000/svg" xmlns:xlink="http://www.w3.org/1999/xlink" x="0px" y="0px"
	 viewBox="0 0 3.6 233.1" style="enable-background:new 0 0 3.6 233.1;" xml:space="preserve">
<style type="text/css">
	.st0{fill:#999999;}
</style>
<path class="st0" d="M3.6,4.8V1.2C3.6,0.6,3.1,0,2.4,0H1.3C0.6,0,0,0.6,0,1.2v3.6C0,5.4,0.5,6,1.2,6v0.7C0.6,6.7,0,7.2,0,7.9v3.6
	c0,0.6,0.5,1.2,1.2,1.2v0.6c-0.6,0-1.2,0.6-1.2,1.2v3.6c0,0.6,0.5,1.2,1.2,1.2V20C0.6,20,0,20.6,0,21.2v3.6C0,25.4,0.5,26,1.2,26
	v0.8C0.6,26.8,0,27.4,0,28v3.6c0,0.6,0.5,1.2,1.2,1.2v0.7c-0.6,0-1.2,0.6-1.2,1.2v3.5c0,0.6,0.5,1.2,1.2,1.2V40
	C0.6,40,0,40.6,0,41.2v3.6C0,45.4,0.5,46,1.2,46v0.7c-0.6,0-1.2,0.6-1.2,1.2v3.6c0,0.6,0.5,1.2,1.2,1.2v0.7C0.6,53.4,0,54,0,54.6
	v3.6c0,0.6,0.5,1.2,1.2,1.2v0.7c-0.6,0-1.2,0.6-1.2,1.2v3.6c0,0.6,0.5,1.2,1.2,1.2v0.6c-0.6,0-1.2,0.6-1.2,1.2v3.6
	c0,0.6,0.5,1.2,1.2,1.2v0.5c-0.6,0-1.2,0.6-1.2,1.2V78c0,0.7,0.6,1.2,1.2,1.2V80C0.6,80,0,80.6,0,81.2v3.6C0,85.4,0.5,86,1.2,86v0.7
	c-0.6,0-1.2,0.6-1.2,1.2v3.6c0,0.6,0.5,1.2,1.2,1.2v0.6c-0.6,0-1.2,0.6-1.2,1.2v3.6c0,0.6,0.5,1.2,1.2,1.2v0.7
	c-0.6,0-1.2,0.6-1.2,1.2v3.6c0,0.6,0.5,1.2,1.2,1.2v0.7c-0.6,0-1.2,0.6-1.2,1.2v3.6c0,0.6,0.5,1.2,1.2,1.2v0.7
	c-0.6,0-1.2,0.6-1.2,1.2v3.6c0,0.6,0.5,1.2,1.2,1.2v0.6c-0.6,0-1.2,0.6-1.2,1.2v3.6c0,0.6,0.5,1.2,1.2,1.2v0.7
	c-0.6,0-1.2,0.6-1.2,1.2v3.6c0,0.6,0.5,1.2,1.2,1.2v0.8c-0.6,0-1.2,0.6-1.2,1.2v3.6c0,0.6,0.5,1.2,1.2,1.2v0.7
	c-0.6,0-1.2,0.6-1.2,1.2v3.6c0,0.6,0.5,1.2,1.2,1.2v0.6c-0.6,0-1.2,0.6-1.2,1.2v3.6c0,0.6,0.5,1.2,1.2,1.2v0.7
	c-0.6,0-1.2,0.6-1.2,1.2v3.6c0,0.6,0.5,1.2,1.2,1.2v0.7c-0.6,0-1.2,0.6-1.2,1.2v3.6c0,0.6,0.5,1.2,1.2,1.2v0.7
	c-0.6,0-1.2,0.6-1.2,1.2v3.6c0,0.6,0.5,1.2,1.2,1.2v0.6c-0.6,0-1.2,0.6-1.2,1.2v3.6c0,0.6,0.5,1.2,1.2,1.2v0.7
	c-0.6,0-1.2,0.6-1.2,1.2v3.6c0,0.6,0.5,1.2,1.2,1.2v0.8c-0.6,0-1.2,0.6-1.2,1.2v3.6c0,0.6,0.5,1.2,1.2,1.2v0.7
	c-0.6,0-1.2,0.6-1.2,1.2v3.6c0,0.6,0.5,1.2,1.2,1.2v0.6c-0.6,0-1.2,0.6-1.2,1.2v3.6c0,0.6,0.5,1.2,1.2,1.2v0.7
	c-0.6,0-1.2,0.6-1.2,1.2v3.6c0,0.6,0.5,1.2,1.2,1.2v0.8c-0.6,0-1.2,0.6-1.2,1.2v3.6c0,0.6,0.5,1.2,1.2,1.2v0.6
	c-0.6,0-1.2,0.6-1.2,1.2v3.6c0,0.6,0.5,1.2,1.2,1.2v0.7c-0.6,0-1.2,0.6-1.2,1.2v3.6c0,0.7,0.5,1.2,1.2,1.2h1.2
	c0.7,0,1.2-0.5,1.2-1.2v-3.6c0-0.6-0.5-1.2-1.1-1.2v-0.7c0.6,0,1.1-0.6,1.1-1.2v-3.6c0-0.6-0.5-1.2-1.1-1.2v-0.6
	c0.6,0,1.1-0.6,1.1-1.2V215c0-0.6-0.5-1.2-1.1-1.2V213c0.6,0,1.1-0.6,1.1-1.2v-3.6c0-0.6-0.5-1.2-1.1-1.2v-0.7
	c0.6,0,1.1-0.6,1.1-1.2v-3.6c0-0.6-0.5-1.2-1.1-1.2v-1.1c0.6,0,1.1-0.6,1.1-1.2v-3.6c0-0.6-0.5-1.2-1.1-1.2v-0.7
	c0.6,0,1.1-0.6,1.1-1.2v-3.6c0-0.6-0.5-1.2-1.1-1.2v-0.8c0.6,0,1.1-0.6,1.1-1.2v-3.6c0-0.6-0.5-1.2-1.1-1.2v-0.5
	c0.6,0,1.1-0.6,1.1-1.2v-3.6c0-0.6-0.5-1.2-1.1-1.2v-0.6c0.6,0,1.1-0.6,1.1-1.2v-3.6c0-0.6-0.5-1.2-1.1-1.2v-0.7
	c0.6,0,1.1-0.6,1.1-1.2v-3.6c0-0.6-0.5-1.2-1.1-1.2v-0.7c0.6,0,1.1-0.6,1.1-1.2v-3.6c0-0.6-0.5-1.2-1.1-1.2v-0.7
	c0.6,0,1.1-0.6,1.1-1.2v-3.6c0-0.6-0.5-1.2-1.1-1.2v-0.6c0.6,0,1.1-0.6,1.1-1.2v-3.6c0-0.6-0.5-1.2-1.1-1.2v-0.7
	c0.6,0,1.1-0.6,1.1-1.2v-3.6c0-0.6-0.5-1.2-1.1-1.2v-0.8c0.6,0,1.1-0.6,1.1-1.2v-3.6c0-0.6-0.5-1.2-1.1-1.2v-0.7
	c0.6,0,1.1-0.6,1.1-1.2v-3.6c0-0.6-0.5-1.2-1.1-1.2v-0.5c0.6,0,1.1-0.6,1.1-1.2v-3.6c0-0.6-0.5-1.2-1.1-1.2v-0.7
	c0.6,0,1.1-0.6,1.1-1.2v-3.6c0-0.6-0.5-1.2-1.1-1.2v-0.7c0.6,0,1.1-0.6,1.1-1.2V101c0-0.6-0.5-1.2-1.1-1.2v-0.7
	c0.6,0,1.1-0.6,1.1-1.2v-3.6c0-0.6-0.5-1.2-1.1-1.2v-0.6c0.6,0,1.1-0.6,1.1-1.2v-3.6c0-0.6-0.5-1.2-1.1-1.2v-0.7
	c0.6,0,1.1-0.6,1.1-1.2v-3.4c0-0.6-0.5-1.2-1.1-1.2v-0.8c0.6,0,1.1-0.5,1.1-1.2v-3.6c0-0.6-0.5-1.2-1.1-1.2v-0.7
	c0.6,0,1.1-0.6,1.1-1.2v-3.6c0-0.6-0.5-1.2-1.1-1.2v-0.6c0.6,0,1.1-0.6,1.1-1.2v-3.5c0-0.6-0.5-1.2-1.1-1.2v-0.7
	c0.6,0,1.1-0.6,1.1-1.2v-3.6c0-0.6-0.5-1.2-1.1-1.2v-0.7c0.6,0,1.1-0.6,1.1-1.2v-3.6c0-0.6-0.5-1.2-1.1-1.2v-0.7
	c0.6,0,1.1-0.6,1.1-1.2v-3.5c0-0.6-0.5-1.2-1.1-1.2v-0.6c0.6-0.1,1.1-0.6,1.1-1.2v-3.6c0-0.6-0.5-1.2-1.1-1.2v-0.7
	c0.6,0,1.1-0.5,1.1-1.2v-3.6c0-0.6-0.5-1.2-1.1-1.2v-0.8c0.6,0,1.1-0.6,1.1-1.2v-3.5c0-0.6-0.5-1.2-1.1-1.2v-0.7
	c0.6,0,1.1-0.6,1.1-1.2v-3.6c0-0.6-0.5-1.2-1.1-1.2v-0.6c0.6,0,1.1-0.6,1.1-1.2V7.9c0-0.7-0.5-1.2-1.1-1.2V6C3.1,6,3.6,5.5,3.6,4.8z
	 M1,4.8V1.2c0-0.1,0.1-0.3,0.3-0.3h1.1c0.1,0,0.3,0.1,0.3,0.3v3.6C2.7,4.9,2.6,5,2.5,5V4.7c0-0.3-0.3-0.6-0.6-0.6S1.3,4.4,1.3,4.7V5
	C1.1,5.1,1,5,1,4.8z M2.7,227.8v3.6c0,0.1-0.1,0.3-0.3,0.3H1.3c-0.1,0-0.3-0.1-0.3-0.3v-3.6c0-0.1,0.1-0.2,0.2-0.2v0.1
	c0,0.3,0.3,0.6,0.6,0.6s0.6-0.3,0.6-0.6v-0.1C2.6,227.6,2.7,227.7,2.7,227.8z M2.7,221.1v3.6c0,0.1-0.1,0.2-0.2,0.2v-0.3
	c0-0.3-0.3-0.6-0.6-0.6s-0.6,0.3-0.6,0.6v0.3c-0.1,0-0.2-0.1-0.2-0.2v-3.6c0-0.1,0.1-0.2,0.2-0.2v0.1c0,0.3,0.3,0.6,0.6,0.6
	s0.6-0.3,0.6-0.6v-0.1C2.6,220.9,2.7,221,2.7,221.1z M2.7,214.5v3.6c0,0.1-0.1,0.2-0.2,0.2V218c0-0.3-0.3-0.6-0.6-0.6
	s-0.6,0.3-0.6,0.6v0.3c-0.1,0-0.2-0.1-0.2-0.2v-3.6c0-0.1,0.1-0.2,0.2-0.2v0.1c0,0.3,0.3,0.6,0.6,0.6s0.6-0.3,0.6-0.6v-0.1
	C2.6,214.3,2.7,214.4,2.7,214.5z M2.7,207.7v3.6c0,0.1-0.1,0.2-0.2,0.2v-0.2c0-0.3-0.3-0.6-0.6-0.6s-0.6,0.3-0.6,0.6v0.2
	c-0.1,0-0.2-0.1-0.2-0.2v-3.6c0-0.1,0.1-0.2,0.2-0.2v0.1c0,0.3,0.3,0.6,0.6,0.6s0.6-0.3,0.6-0.6v-0.1C2.6,207.5,2.7,207.6,2.7,207.7
	z M2.7,201.1v3.6c0,0.1-0.1,0.2-0.2,0.2v-0.3c0-0.3-0.3-0.6-0.6-0.6s-0.6,0.3-0.6,0.6v0.3c-0.1,0-0.2-0.1-0.2-0.2v-3.6
	c0-0.1,0.1-0.2,0.2-0.2v0.1c0,0.3,0.3,0.6,0.6,0.6s0.6-0.3,0.6-0.6v-0.1C2.6,200.8,2.7,200.9,2.7,201.1z M2.7,194.4v3.6
	c0,0.1-0.1,0.2-0.2,0.2v-0.3c0-0.3-0.3-0.6-0.6-0.6s-0.6,0.3-0.6,0.6v0.3c-0.1,0-0.2-0.1-0.2-0.2v-3.6c0-0.1,0.1-0.2,0.2-0.2v0.1
	c0,0.3,0.3,0.6,0.6,0.6s0.6-0.3,0.6-0.6v-0.1C2.6,194.2,2.7,194.3,2.7,194.4z M2.7,187.8v3.6c0,0.1-0.1,0.2-0.2,0.2v-0.3
	c0-0.3-0.3-0.6-0.6-0.6s-0.6,0.3-0.6,0.6v0.3c-0.1,0-0.2-0.1-0.2-0.2v-3.6c0-0.1,0.1-0.2,0.2-0.2v0.1c0,0.3,0.3,0.6,0.6,0.6
	s0.6-0.3,0.6-0.6v-0.1C2.6,187.6,2.7,187.7,2.7,187.8z M2.7,181v3.6c0,0.1-0.1,0.2-0.2,0.2v-0.2c0-0.3-0.3-0.6-0.6-0.6
	s-0.6,0.3-0.6,0.6v0.2c-0.1,0-0.2-0.1-0.2-0.2V181c0-0.1,0.1-0.2,0.2-0.2v0.1c0,0.3,0.3,0.6,0.6,0.6s0.6-0.3,0.6-0.6v-0.1
	C2.6,180.8,2.7,180.9,2.7,181z M2.7,174.4v3.6c0,0.1-0.1,0.2-0.2,0.2v-0.3c0-0.3-0.3-0.6-0.6-0.6s-0.6,0.3-0.6,0.6v0.3
	c-0.1,0-0.2-0.1-0.2-0.2v-3.6c0-0.1,0.1-0.2,0.2-0.2v0.1c0,0.3,0.3,0.6,0.6,0.6s0.6-0.3,0.6-0.6v-0.1C2.6,174.2,2.7,174.2,2.7,174.4
	z M2.7,167.7v3.6c0,0.1-0.1,0.2-0.2,0.2v-0.3c0-0.3-0.3-0.6-0.6-0.6s-0.6,0.3-0.6,0.6v0.3c-0.1,0-0.2-0.1-0.2-0.2v-3.6
	c0-0.1,0.1-0.2,0.2-0.2v0.1c0,0.3,0.3,0.6,0.6,0.6s0.6-0.3,0.6-0.6v-0.1C2.6,167.5,2.7,167.6,2.7,167.7z M2.7,161.1v3.6
	c0,0.1-0.1,0.2-0.2,0.2v-0.3c0-0.3-0.3-0.6-0.6-0.6s-0.6,0.3-0.6,0.6v0.3c-0.1,0-0.2-0.1-0.2-0.2v-3.6c0-0.1,0.1-0.2,0.2-0.2v0.1
	c0,0.3,0.3,0.6,0.6,0.6s0.6-0.3,0.6-0.6v-0.1C2.6,160.9,2.7,161,2.7,161.1z M2.7,154.4v3.6c0,0.1-0.1,0.2-0.2,0.2v-0.3
	c0-0.3-0.3-0.6-0.6-0.6s-0.6,0.3-0.6,0.6v0.3c-0.1,0-0.2-0.1-0.2-0.2v-3.6c0-0.1,0.1-0.2,0.2-0.2v0.1c0,0.3,0.3,0.6,0.6,0.6
	s0.6-0.3,0.6-0.6v-0.1C2.6,154.2,2.7,154.3,2.7,154.4z M2.7,147.8v3.6c0,0.1-0.1,0.2-0.2,0.2v-0.3c0-0.3-0.3-0.6-0.6-0.6
	s-0.6,0.3-0.6,0.6v0.3c-0.1,0-0.2-0.1-0.2-0.2v-3.6c0-0.1,0.1-0.2,0.2-0.2v0.1c0,0.3,0.3,0.6,0.6,0.6s0.6-0.3,0.6-0.6v-0.1
	C2.6,147.6,2.7,147.7,2.7,147.8z M2.7,141.1v3.6c0,0.1-0.1,0.2-0.2,0.2v-0.3c0-0.3-0.3-0.6-0.6-0.6s-0.6,0.3-0.6,0.6v0.3
	c-0.1,0-0.2-0.1-0.2-0.2v-3.6c0-0.1,0.1-0.2,0.2-0.2v0.1c0,0.3,0.3,0.6,0.6,0.6s0.6-0.3,0.6-0.6v-0.1C2.6,140.9,2.7,141,2.7,141.1z
	 M2.7,134.5v3.6c0,0.1-0.1,0.2-0.2,0.2V138c0-0.3-0.3-0.6-0.6-0.6s-0.6,0.3-0.6,0.6v0.3c-0.1,0-0.2-0.1-0.2-0.2v-3.6
	c0-0.1,0.1-0.2,0.2-0.2v0.1c0,0.3,0.3,0.6,0.6,0.6s0.6-0.3,0.6-0.6v-0.1C2.6,134.3,2.7,134.4,2.7,134.5z M2.7,127.7v3.6
	c0,0.1-0.1,0.2-0.2,0.2v-0.2c0-0.3-0.3-0.6-0.6-0.6s-0.6,0.3-0.6,0.6v0.2c-0.1,0-0.2-0.1-0.2-0.2v-3.6c0-0.1,0.1-0.2,0.2-0.2v0.1
	c0,0.3,0.3,0.6,0.6,0.6s0.6-0.3,0.6-0.6v-0.1C2.6,127.5,2.7,127.6,2.7,127.7z M2.7,121.1v3.6c0,0.1-0.1,0.2-0.2,0.2v-0.3
	c0-0.3-0.3-0.6-0.6-0.6s-0.6,0.3-0.6,0.6v0.3c-0.1,0-0.2-0.1-0.2-0.2v-3.6c0-0.1,0.1-0.2,0.2-0.2v0.1c0,0.3,0.3,0.6,0.6,0.6
	s0.6-0.3,0.6-0.6v-0.1C2.6,120.9,2.7,121,2.7,121.1z M2.7,114.4v3.6c0,0.1-0.1,0.2-0.2,0.2v-0.3c0-0.3-0.3-0.6-0.6-0.6
	s-0.6,0.3-0.6,0.6v0.3c-0.1,0-0.2-0.1-0.2-0.2v-3.6c0-0.1,0.1-0.2,0.2-0.2v0.1c0,0.3,0.3,0.6,0.6,0.6s0.6-0.3,0.6-0.6v-0.1
	C2.6,114.2,2.7,114.3,2.7,114.4z M2.7,107.8v3.6c0,0.1-0.1,0.2-0.2,0.2v-0.3c0-0.3-0.3-0.6-0.6-0.6s-0.6,0.3-0.6,0.6v0.3
	c-0.1,0-0.2-0.1-0.2-0.2v-3.6c0-0.1,0.1-0.2,0.2-0.2v0.1c0,0.3,0.3,0.6,0.6,0.6s0.6-0.3,0.6-0.6v-0.1C2.6,107.6,2.7,107.7,2.7,107.8
	z M2.7,101.1v3.6c0,0.1-0.1,0.2-0.2,0.2v-0.3c0-0.3-0.3-0.6-0.6-0.6s-0.6,0.3-0.6,0.6v0.3c-0.1,0-0.2-0.1-0.2-0.2v-3.6
	c0-0.1,0.1-0.2,0.2-0.2v0.1c0,0.3,0.3,0.6,0.6,0.6s0.6-0.3,0.6-0.6v-0.1C2.6,100.9,2.7,101,2.7,101.1z M2.7,94.5v3.6
	c0,0.1-0.1,0.2-0.2,0.2V98c0-0.3-0.3-0.6-0.6-0.6S1.3,97.7,1.3,98v0.3c-0.1,0-0.2-0.1-0.2-0.2v-3.6c0-0.1,0.1-0.2,0.2-0.2v0.1
	c0,0.3,0.3,0.6,0.6,0.6s0.6-0.3,0.6-0.6v-0.1C2.6,94.3,2.7,94.4,2.7,94.5z M2.7,87.9v3.6c0,0.1-0.1,0.2-0.2,0.2v-0.3
	c0-0.3-0.3-0.6-0.6-0.6s-0.6,0.3-0.6,0.6v0.3c-0.1,0-0.2-0.1-0.2-0.2v-3.6c0-0.1,0.1-0.2,0.2-0.2v0.1c0,0.3,0.3,0.6,0.6,0.6
	s0.6-0.3,0.6-0.6v-0.1C2.6,87.7,2.7,87.7,2.7,87.9z M2.7,81.2v3.6c0,0.1-0.1,0.2-0.2,0.2v-0.3c0-0.3-0.3-0.6-0.6-0.6
	s-0.6,0.3-0.6,0.6V85c-0.1,0-0.2-0.1-0.2-0.2v-3.6c0-0.1,0.1-0.2,0.2-0.2v0.1c0,0.3,0.3,0.6,0.6,0.6s0.6-0.3,0.6-0.6V81
	C2.6,81,2.7,81.1,2.7,81.2z M2.7,74.4V78c0,0.1-0.1,0.2-0.2,0.2V78c0-0.3-0.3-0.6-0.6-0.6S1.3,77.7,1.3,78v0.2
	c-0.1,0-0.2-0.1-0.2-0.2v-3.6c0-0.1,0.1-0.2,0.2-0.2v0.1c0,0.3,0.3,0.6,0.6,0.6s0.6-0.3,0.6-0.6v-0.1C2.6,74.2,2.7,74.3,2.7,74.4z
	 M2.7,67.8v3.6c0,0.1-0.1,0.2-0.2,0.2v-0.3c0-0.3-0.3-0.6-0.6-0.6S1.3,71,1.3,71.3v0.3c-0.1,0-0.2-0.1-0.2-0.2v-3.6
	c0-0.1,0.1-0.2,0.2-0.2v0.1c0,0.3,0.3,0.6,0.6,0.6s0.6-0.3,0.6-0.6v-0.1C2.6,67.6,2.7,67.7,2.7,67.8z M2.7,61.2v3.6
	c0,0.1-0.1,0.2-0.2,0.2v-0.3c0-0.3-0.3-0.6-0.6-0.6s-0.6,0.3-0.6,0.6V65c-0.1,0-0.2-0.1-0.2-0.2v-3.6c0-0.1,0.1-0.2,0.2-0.2v0.1
	c0,0.3,0.3,0.6,0.6,0.6s0.6-0.3,0.6-0.6V61C2.6,61,2.7,61,2.7,61.2z M2.7,54.5v3.6c0,0.1-0.1,0.2-0.2,0.2V58c0-0.3-0.3-0.6-0.6-0.6
	S1.3,57.7,1.3,58v0.3c-0.1,0-0.2-0.1-0.2-0.2v-3.6c0-0.1,0.1-0.2,0.2-0.2v0.1c0,0.3,0.3,0.6,0.6,0.6s0.6-0.3,0.6-0.6v-0.1
	C2.6,54.3,2.7,54.4,2.7,54.5z M2.7,47.9v3.6c0,0.1-0.1,0.2-0.2,0.2v-0.3c0-0.3-0.3-0.6-0.6-0.6s-0.6,0.3-0.6,0.6v0.3
	c-0.1,0-0.2-0.1-0.2-0.2v-3.6c0-0.1,0.1-0.2,0.2-0.2v0.1c0,0.3,0.3,0.6,0.6,0.6s0.6-0.3,0.6-0.6v-0.1C2.6,47.7,2.7,47.8,2.7,47.9z
	 M2.7,41.2v3.6c0,0.1-0.1,0.2-0.2,0.2v-0.3c0-0.3-0.3-0.6-0.6-0.6s-0.6,0.3-0.6,0.6V45c-0.1,0-0.2-0.1-0.2-0.2v-3.6
	c0-0.1,0.1-0.2,0.2-0.2v0.1c0,0.3,0.3,0.6,0.6,0.6s0.6-0.3,0.6-0.6V41C2.6,41,2.7,41.1,2.7,41.2z M2.7,34.6v3.6
	c0,0.1-0.1,0.2-0.2,0.2v-0.3c0-0.3-0.3-0.6-0.6-0.6s-0.6,0.3-0.6,0.6v0.3c-0.1,0-0.2-0.1-0.2-0.2v-3.6c0-0.1,0.1-0.2,0.2-0.2v0.1
	c0,0.3,0.3,0.6,0.6,0.6s0.6-0.3,0.6-0.6v-0.1C2.6,34.4,2.7,34.5,2.7,34.6z M2.7,27.9v3.6c0,0.1-0.1,0.2-0.2,0.2v-0.3
	c0-0.3-0.3-0.6-0.6-0.6s-0.6,0.3-0.6,0.6v0.3c-0.1,0-0.2-0.1-0.2-0.2v-3.6c0-0.1,0.1-0.2,0.2-0.2v0.1c0,0.3,0.3,0.6,0.6,0.6
	s0.6-0.3,0.6-0.6v-0.1C2.6,27.7,2.7,27.8,2.7,27.9z M2.7,21.2v3.6c0,0.1-0.1,0.2-0.2,0.2v-0.2c0-0.3-0.3-0.6-0.6-0.6
	s-0.6,0.3-0.6,0.6V25c-0.1,0-0.2-0.1-0.2-0.2v-3.6c0-0.1,0.1-0.2,0.2-0.2v0.1c0,0.3,0.3,0.6,0.6,0.6s0.6-0.3,0.6-0.6V21
	C2.6,21,2.7,21.1,2.7,21.2z M2.7,14.5v3.6c0,0.1-0.1,0.2-0.2,0.2V18c0-0.3-0.3-0.6-0.6-0.6S1.3,17.7,1.3,18v0.3
	c-0.1,0-0.2-0.1-0.2-0.2v-3.6c0-0.1,0.1-0.2,0.2-0.2v0.1c0,0.3,0.3,0.6,0.6,0.6s0.6-0.3,0.6-0.6v-0.1C2.6,14.3,2.7,14.4,2.7,14.5z
	 M2.7,7.9v3.6c0,0.1-0.1,0.2-0.2,0.2v-0.3c0-0.3-0.3-0.6-0.6-0.6s-0.6,0.3-0.6,0.6v0.3c-0.1,0-0.2-0.1-0.2-0.2V7.9
	c0-0.1,0.1-0.2,0.2-0.2v0.1c0,0.3,0.3,0.6,0.6,0.6s0.6-0.3,0.6-0.6V7.6C2.6,7.7,2.7,7.8,2.7,7.9z"/>
</svg>
