<svg id="Capa_1" enable-background="new 0 0 512 512" height="512" viewBox="0 0 512 512" width="512" xmlns="http://www.w3.org/2000/svg"><g><path d="m371.613 0h-247.742l-64.718 72.906v373.03h320.717v-437.678c.001-4.561-3.696-8.258-8.257-8.258z" fill="#fbf4db"/><path d="m66.065 404.645v-322.064c0-4.561 3.697-8.258 8.258-8.258h41.29c4.561 0 8.258-3.697 8.258-8.258v-66.065h-1.417c-4.381 0-8.581 1.74-11.679 4.837l-56.389 56.39c-3.098 3.098-4.838 7.299-4.838 11.679v373.029c0 4.561 3.697 8.258 8.258 8.258h313.806c4.561 0 8.258-3.697 8.258-8.258v-8.258h-280.773c-18.243 0-33.032-14.789-33.032-33.032z" fill="#f8ebcc"/><g fill="#736572"><path d="m156.903 189.935h-33.032c-13.661 0-24.774-11.113-24.774-24.774v-33.032c0-13.661 11.113-24.774 24.774-24.774h33.032c13.661 0 24.774 11.113 24.774 24.774v33.032c0 13.662-11.112 24.774-24.774 24.774zm-33.032-66.064c-4.556 0-8.258 3.706-8.258 8.258v33.032c0 4.552 3.702 8.258 8.258 8.258h33.032c4.556 0 8.258-3.706 8.258-8.258v-33.032c0-4.552-3.702-8.258-8.258-8.258z"/><path d="m156.903 289.032h-33.032c-13.661 0-24.774-11.113-24.774-24.774v-33.032c0-13.661 11.113-24.774 24.774-24.774h33.032c13.661 0 24.774 11.113 24.774 24.774v33.032c0 13.661-11.112 24.774-24.774 24.774zm-33.032-66.064c-4.556 0-8.258 3.706-8.258 8.258v33.032c0 4.552 3.702 8.258 8.258 8.258h33.032c4.556 0 8.258-3.706 8.258-8.258v-33.032c0-4.552-3.702-8.258-8.258-8.258z"/><path d="m156.903 388.129h-33.032c-13.661 0-24.774-11.113-24.774-24.774v-33.032c0-13.661 11.113-24.774 24.774-24.774h33.032c13.661 0 24.774 11.113 24.774 24.774v33.032c0 13.661-11.112 24.774-24.774 24.774zm-33.032-66.064c-4.556 0-8.258 3.706-8.258 8.258v33.032c0 4.552 3.702 8.258 8.258 8.258h33.032c4.556 0 8.258-3.706 8.258-8.258v-33.032c0-4.552-3.702-8.258-8.258-8.258z"/></g><path d="m140.387 165.161c-.435 0-.879-.036-1.323-.105-2.621-.427-4.879-2.085-6.065-4.46l-8.258-16.516c-2.04-4.081-.387-9.04 3.694-11.081 4.081-2.04 9.04-.387 11.081 3.694l3.137 6.27 33.185-33.19c3.226-3.226 8.452-3.226 11.677 0s3.226 8.452 0 11.677l-41.29 41.29c-1.556 1.562-3.669 2.421-5.838 2.421z" fill="#98db7c"/><path d="m140.387 264.258c-.435 0-.879-.036-1.323-.105-2.621-.427-4.879-2.085-6.065-4.46l-8.258-16.516c-2.04-4.081-.387-9.04 3.694-11.081 4.081-2.04 9.04-.387 11.081 3.694l3.137 6.27 33.185-33.19c3.226-3.226 8.452-3.226 11.677 0 3.226 3.226 3.226 8.452 0 11.677l-41.29 41.29c-1.556 1.562-3.669 2.421-5.838 2.421z" fill="#98db7c"/><path d="m140.387 363.355c-.435 0-.879-.036-1.323-.105-2.621-.427-4.879-2.085-6.065-4.46l-8.258-16.516c-2.04-4.081-.387-9.04 3.694-11.081 4.081-2.04 9.04-.387 11.081 3.694l3.137 6.27 33.185-33.19c3.226-3.226 8.452-3.226 11.677 0s3.226 8.452 0 11.677l-41.29 41.29c-1.556 1.562-3.669 2.421-5.838 2.421z" fill="#98db7c"/><path d="m272.516 140.387h-57.806c-4.565 0-8.258-3.698-8.258-8.258s3.694-8.258 8.258-8.258h57.806c4.565 0 8.258 3.698 8.258 8.258 0 4.561-3.693 8.258-8.258 8.258z" fill="#736572"/><path d="m330.323 173.419h-115.613c-4.565 0-8.258-3.698-8.258-8.258s3.694-8.258 8.258-8.258h115.613c4.565 0 8.258 3.698 8.258 8.258s-3.694 8.258-8.258 8.258z" fill="#887f88"/><path d="m272.516 239.484h-57.806c-4.565 0-8.258-3.698-8.258-8.258s3.694-8.258 8.258-8.258h57.806c4.565 0 8.258 3.698 8.258 8.258s-3.693 8.258-8.258 8.258z" fill="#736572"/><path d="m330.323 272.516h-115.613c-4.565 0-8.258-3.698-8.258-8.258s3.693-8.258 8.258-8.258h115.613c4.565 0 8.258 3.698 8.258 8.258s-3.694 8.258-8.258 8.258z" fill="#887f88"/><path d="m264.258 338.581h-49.548c-4.565 0-8.258-3.698-8.258-8.258s3.694-8.258 8.258-8.258h49.548c4.565 0 8.258 3.698 8.258 8.258s-3.693 8.258-8.258 8.258z" fill="#736572"/><path d="m239.484 371.613h-24.774c-4.565 0-8.258-3.698-8.258-8.258s3.694-8.258 8.258-8.258h24.774c4.565 0 8.258 3.698 8.258 8.258s-3.694 8.258-8.258 8.258z" fill="#887f88"/><path d="m462.452 412.903c0 23.148-7.936 44.441-21.237 61.309-18.147 23.014-46.278 30.084-77.86 30.084-54.73 0-95.908-36.663-95.908-91.393 0-31.572 11.575-59.695 34.575-77.842 16.871-13.311 38.174-21.255 61.332-21.255 54.73 0 99.098 44.368 99.098 99.097z" fill="#98db7c"/><path d="m379.871 495.484c-54.73 0-99.097-44.367-99.097-99.097 0-23.153 7.943-44.456 21.249-61.326-23.007 18.147-37.765 46.265-37.765 77.842 0 54.729 44.367 99.097 99.097 99.097 31.577 0 59.713-14.781 77.86-37.788-16.869 13.306-38.191 21.272-61.344 21.272z" fill="#77cc7d"/><path d="m350.968 454.895c-4.226 0-8.46-1.613-11.677-4.831l-27.194-27.194c-3.226-3.226-3.226-8.452 0-11.677s8.452-3.226 11.677 0l27.194 27.194 56.097-56.097c3.226-3.226 8.452-3.226 11.677 0 3.226 3.226 3.226 8.452 0 11.677l-56.097 56.097c-3.218 3.218-7.451 4.831-11.677 4.831z" fill="#fff"/></g></svg>