<?xml version="1.0" encoding="utf-8"?>
<!-- Generator: Adobe Illustrator 24.1.1, SVG Export Plug-In . SVG Version: 6.00 Build 0)  -->
<svg version="1.1" id="Layer_1" xmlns="http://www.w3.org/2000/svg" xmlns:xlink="http://www.w3.org/1999/xlink" x="0px" y="0px"
	 viewBox="0 0 300 300" style="enable-background:new 0 0 300 300;" xml:space="preserve">
<style type="text/css">
	.st0{fill:#FFFFFF;}
</style>
<g>
	<path class="st0" d="M267.1,41.6h-22.6v-20c0-1.9-1.6-3.2-3.2-3.2H116.6v-0.3c0-10-8.1-18.1-18.1-18.1c-9,0-16.4,6.8-17.7,15.2
		c0,0.3-0.3,0.6-0.3,1.3v1.6v0.3H37.3c-1.9,0-3.2,1.6-3.2,3.2v248.2c0,1.9,1.6,3.2,3.2,3.2h22.6v17.7c0,1.9,1.6,3.2,3.2,3.2h204.1
		c1.9,0,3.2-1.6,3.2-3.2v-246C270.3,43.2,268.7,41.6,267.1,41.6z M238.1,41.6H87.2V24.8h150.9V41.6z M87.2,17.7
		c0-6.4,5.2-11.6,11.6-11.6c6.4,0,11.6,5.2,11.6,11.6v0.3H87.6v-0.3H87.2z M40.5,266.6V24.8h40v16.8H62.7c-1.9,0-3.2,1.6-3.2,3.2
		v221.8H40.5z M263.9,287.6H66.3V48h14.2v21.6v13.2c0,10,8.1,18.1,18.1,18.1s18.1-8.1,18.1-18.1V66.4c0-1.9-1.6-3.2-3.2-3.2
		c-1.6,0-3.2,1.6-3.2,3.2v16.4c0,6.4-5.2,11.6-11.6,11.6c-6.4,0-11.6-5.2-11.6-11.6V69.6V48h176.7v239.5H263.9z"/>
	<path class="st0" d="M91.8,135.7v90.9c0,1.9,1.6,3.2,3.2,3.2h142.5c1.9,0,3.2-1.6,3.2-3.2v-90.9c0-1.9-1.6-3.2-3.2-3.2H95
		C93,132.5,91.8,134.1,91.8,135.7z M234.2,223.7h-45.8v-84.5h45.8V223.7z M98.2,139.3H182v84.5H98.2V139.3z"/>
	<path class="st0" d="M236.2,239.5h-46.4c-1.9,0-3.2,1.6-3.2,3.2c0,1.6,1.6,3.2,3.2,3.2h46.7c1.9,0,3.2-1.6,3.2-3.2
		C239.7,241.1,238.1,239.5,236.2,239.5z"/>
	<path class="st0" d="M210.4,104.8c-1.3-0.6-1.9-1-2.3-1c-1,0-1.9,1-1.9,2.3c0,2.6,4.5,4.5,10.3,4.8v2.6c0,0.6,0.3,1,1,1
		c0.6,0,1-0.3,1-1v-3.2c3.5-0.6,5.8-1.6,7.4-3.9c1.9-1.9,2.9-4.8,2.9-7.7c0-3.5-1.3-5.8-4.2-7.7c-1.3-1-2.9-1.6-6.4-2.9V76.7
		c1.6,0.3,2.3,0.6,3.9,1.6c1,0.6,1.6,1,2.3,1c1,0,1.9-1,1.9-1.9c0-2.3-3.2-3.9-8.1-4.2v-2.6c0-0.6-0.3-1-1-1c-0.6,0-1,0.3-1,1v2.6
		c-3.5,0.6-5.5,1.3-7.4,3.5c-1.6,1.9-2.6,3.9-2.6,6.1c0,2.9,1.3,5.2,3.9,7.1c1.3,1,2.9,1.6,6.1,2.6V107
		C214.3,106.4,212.6,106.1,210.4,104.8z M218.4,92.8c4.2,1.6,5.5,3.2,5.5,6.1c0,3.5-1.9,6.1-5.5,7.1V92.8z M211.4,81.9
		c0-2.9,1.9-4.8,5.2-5.2v10.6C212.6,85.8,211.4,84.5,211.4,81.9z"/>
</g>
</svg>
