<svg height='300px' width='300px'  fill="#FFFFFF" xmlns="http://www.w3.org/2000/svg" xmlns:xlink="http://www.w3.org/1999/xlink" version="1.1" x="0px" y="0px" viewBox="0 0 64 64" style="enable-background:new 0 0 64 64;" xml:space="preserve"><path d="M8.738,25.648C5.826,28.537,4.014,32.534,4,36.948L2.531,51.151c-0.003,0.034-0.005,0.069-0.005,0.103  c0,0.424-0.047,0.847-0.139,1.258c-0.515,2.321,0.043,4.716,1.531,6.571C5.406,60.937,7.623,62,10,62h20  c3.054,0,5.844-1.8,7.108-4.587l-1.822-0.826C34.346,58.66,32.271,60,30,60H10c-1.768,0-3.415-0.791-4.521-2.169  s-1.521-3.16-1.139-4.884c0.12-0.535,0.183-1.086,0.187-1.64l1.469-14.204C5.998,37.069,6,37.034,6,37  c0-4.817,2.446-9.073,6.161-11.593c3.157-0.491,6.095-1.588,7.466-2.156c1.052,1.51,3.715,4.865,7.131,5.719l0.484-1.94  c-2.141-0.535-4.011-2.428-5.165-3.855c3.201,0.483,6.171,2.049,8.359,4.492l1.49-1.334c-1.803-2.014-4.075-3.502-6.571-4.391  c3.716-1.531,6.675-4.628,7.97-8.634l-1.902-0.615c-1.33,4.115-4.709,7.105-8.798,8.014C24.162,18.814,25,16.472,25,14h-2  c0,2.312-0.9,4.486-2.535,6.122l-0.859,0.858c-0.075-0.002-0.149-0.007-0.223-0.011l-1.761-1.76  c-1.551-1.551-2.184-3.837-1.652-5.966l-1.939-0.485c-0.663,2.649,0.058,5.473,1.86,7.502C11.294,18.576,8,14.171,8,9V7.829  c0-0.62,0.473-0.864,0.617-0.924c0.146-0.061,0.652-0.221,1.09,0.217l2.059,2.059c0.59,0.589,1.407,0.913,2.237,0.876  c0.832-0.032,1.62-0.413,2.161-1.045l3.077-3.589c0.385-0.45,1.132-0.45,1.519,0l3.075,3.589c0.542,0.632,1.33,1.013,2.162,1.045  c0.834,0.036,1.647-0.287,2.237-0.876l2.059-2.059c0.438-0.437,0.945-0.276,1.09-0.217C31.527,6.964,32,7.208,32,7.829V9  c0,0.623-0.048,1.244-0.142,1.846l1.977,0.308C33.944,10.45,34,9.726,34,9V7.829c0-1.237-0.71-2.299-1.852-2.772  c-1.143-0.473-2.396-0.223-3.27,0.65L26.82,7.765c-0.199,0.2-0.464,0.309-0.746,0.292c-0.281-0.011-0.537-0.134-0.721-0.348  l-3.075-3.589C21.707,3.455,20.877,3.073,20,3.073s-1.707,0.382-2.277,1.047l-3.077,3.589c-0.183,0.214-0.438,0.337-0.72,0.348  c-0.284,0.014-0.547-0.093-0.746-0.292l-2.059-2.059c-0.873-0.874-2.125-1.124-3.27-0.65C6.71,5.53,6,6.592,6,7.829V9  c0,5.829,3.582,10.832,8.659,12.936c-1.128,0.401-2.198,0.922-3.194,1.553c-3.133,0.424-6.196,0.114-7.634-2.044l-1.664,1.109  C3.642,24.766,6.098,25.566,8.738,25.648z"></path><path d="M61,18h-6c-0.553,0-1,0.448-1,1v35c0,0.552,0.447,1,1,1h6c0.553,0,1-0.448,1-1V19C62,18.448,61.553,18,61,18z M60,53h-4V20  h4V53z"></path><path d="M45,55h6c0.553,0,1-0.448,1-1V9c0-0.552-0.447-1-1-1h-6c-0.553,0-1,0.448-1,1v45C44,54.552,44.447,55,45,55z M46,10h4v43h-4  V10z"></path><path d="M34,54c0,0.552,0.447,1,1,1h6c0.553,0,1-0.448,1-1V31c0-0.552-0.447-1-1-1h-6c-0.553,0-1,0.448-1,1V54z M36,32h4v21h-4V32z"></path><path d="M20,31c-6.617,0-12,5.383-12,12s5.383,12,12,12s12-5.383,12-12S26.617,31,20,31z M10,43c0-5.177,3.954-9.446,9-9.949v2  c-2.244,0.252-4,2.139-4,4.449c0,2.481,2.019,4.5,4.5,4.5h1c1.379,0,2.5,1.122,2.5,2.5S21.879,49,20.5,49h-1  c-1.379,0-2.5-1.122-2.5-2.5V46h-2v0.5c0,2.31,1.756,4.197,4,4.449v2C13.954,52.446,10,48.177,10,43z M21,52.949v-2  c2.244-0.252,4-2.139,4-4.449c0-2.481-2.019-4.5-4.5-4.5h-1c-1.379,0-2.5-1.122-2.5-2.5s1.121-2.5,2.5-2.5h1  c1.379,0,2.5,1.122,2.5,2.5V40h2v-0.5c0-2.31-1.756-4.197-4-4.449v-2c5.046,0.503,9,4.773,9,9.949S26.046,52.446,21,52.949z"></path></svg>