<?xml version="1.0" encoding="utf-8"?>
<!-- Generator: Adobe Illustrator 24.1.1, SVG Export Plug-In . SVG Version: 6.00 Build 0)  -->
<svg version="1.1" id="Layer_1" xmlns="http://www.w3.org/2000/svg" xmlns:xlink="http://www.w3.org/1999/xlink" x="0px" y="0px"
	 viewBox="0 0 300 300" style="enable-background:new 0 0 300 300;" xml:space="preserve">
<style type="text/css">
	.st0{fill:#FFFFFF;}
</style>
<g>
	<path class="st0" d="M148.3,194.1H18.5c-2.6,0-4.6-2.1-4.6-4.6v-88.1h231.9v37.1c0,2.6,2.1,4.6,4.6,4.6c2.6,0,4.6-2.1,4.6-4.6V50.3
		c0-7.7-6.2-13.9-13.9-13.9H18.5c-7.7,0-13.9,6.2-13.9,13.9v139.1c0,7.7,6.2,13.9,13.9,13.9h129.9c2.6,0,4.6-2.1,4.6-4.6
		S150.9,194.1,148.3,194.1z M186.1,92l15.4-18.6h20.4L206.5,92H186.1z M174,92h-20.4l15.4-18.6h20.4L174,92z M141.6,92h-20.4
		l15.4-18.6H157L141.6,92z M109.1,92H88.7l15.4-18.6h20.4L109.1,92z M76.6,92H56.2l15.4-18.6H92L76.6,92z M44.2,92H23.7l15.4-18.6
		h20.4L44.2,92z M13.8,73.5h13.3l-13.3,16V73.5z M218.6,92L234,73.5h11.7V92H218.6z M18.5,45.6h222.6c2.6,0,4.6,2.1,4.6,4.6v13.9
		H13.8V50.3C13.8,47.7,15.9,45.6,18.5,45.6z"/>
	<path class="st0" d="M55.6,143c2.6,0,4.6-2.1,4.6-4.6s-2.1-4.6-4.6-4.6H41.7c-2.6,0-4.6,2.1-4.6,4.6s2.1,4.6,4.6,4.6H55.6z"/>
	<path class="st0" d="M97.3,143c2.6,0,4.6-2.1,4.6-4.6s-2.1-4.6-4.6-4.6H78.8c-2.6,0-4.6,2.1-4.6,4.6s2.1,4.6,4.6,4.6H97.3z"/>
	<path class="st0" d="M32.4,157c0,2.6,2.1,4.6,4.6,4.6h92.8c2.6,0,4.6-2.1,4.6-4.6c0-2.6-2.1-4.6-4.6-4.6H37
		C34.5,152.3,32.4,154.4,32.4,157z"/>
	<path class="st0" d="M259.6,147.7c-18.6,0-37.1,6.4-37.1,18.6V186c-8.7-4.1-18.2-6.1-27.8-5.9c-18.6,0-37.1,6.4-37.1,18.6v37.1
		c0,12.2,18.6,18.6,37.1,18.6c10.5,0.4,20.9-2.1,30-7.2c5.5,7.8,20.2,11.8,34.9,11.8c18.6,0,37.1-6.4,37.1-18.6v-74.2
		C296.8,154,278.2,147.7,259.6,147.7z M287.5,221.9c0,3.3-10.6,9.3-27.8,9.3c-17.3,0-27.8-6-27.8-9.3V216c8.7,4.1,18.2,6.1,27.8,5.9
		c9.6,0.3,19.1-1.8,27.8-5.9V221.9z M166.9,211.4c8.7,4.1,18.2,6.1,27.8,5.9c9.6,0.3,19.1-1.8,27.8-5.9v5.9c0,3.3-10.6,9.3-27.8,9.3
		s-27.8-6-27.8-9.3V211.4z M287.5,203.3c0,3.3-10.6,9.3-27.8,9.3c-17.3,0-27.8-6-27.8-9.3v-5.9c8.7,4.1,18.2,6.1,27.8,5.9
		c9.6,0.3,19.1-1.8,27.8-5.9V203.3z M287.5,184.8c0,3.3-10.6,9.3-27.8,9.3c-17.3,0-27.8-6-27.8-9.3v-5.9c8.7,4.1,18.2,6.1,27.8,5.9
		c9.6,0.3,19.1-1.8,27.8-5.9V184.8z M259.6,157c17.3,0,27.8,6,27.8,9.3s-10.6,9.3-27.8,9.3c-17.3,0-27.8-6-27.8-9.3
		S242.4,157,259.6,157z M194.7,189.4c17.3,0,27.8,6,27.8,9.3S212,208,194.7,208s-27.8-6-27.8-9.3S177.5,189.4,194.7,189.4z
		 M194.7,245.1c-17.3,0-27.8-6-27.8-9.3v-5.9c8.7,4.1,18.2,6.1,27.8,5.9c9.6,0.3,19.1-1.8,27.8-5.9v5.9
		C222.5,239.1,212,245.1,194.7,245.1z M259.6,249.7c-17.3,0-27.8-6-27.8-9.3v-5.9c8.7,4.1,18.2,6.1,27.8,5.9
		c9.6,0.3,19.1-1.8,27.8-5.9v5.9C287.5,243.7,276.9,249.7,259.6,249.7z"/>
</g>
</svg>
