<?xml version="1.0" encoding="utf-8"?>
<!-- Generator: Adobe Illustrator 24.1.1, SVG Export Plug-In . SVG Version: 6.00 Build 0)  -->
<svg version="1.1" id="Layer_1" xmlns="http://www.w3.org/2000/svg" xmlns:xlink="http://www.w3.org/1999/xlink" x="0px" y="0px"
	 viewBox="0 0 300 300" style="enable-background:new 0 0 300 300;" xml:space="preserve">
<style type="text/css">
	.st0{fill:#FFFFFF;}
</style>
<path class="st0" d="M295,26.6H88.2c-2.8,0-5,2.2-5,5l0,0v87.5H40.6c-16.6-0.5-27.4,19.5-18.2,33.1c-29.2-0.2-30.2,41.9-1,43.1h15.7
	c-5.7,9.1-3.9,21.1,4.4,28.1c-15.4,12.5-6.1,38.3,13.8,38.1h67.6c1.9,0,3.8-0.3,5.7-0.8c34.9,29.5,90.3,3.7,89.9-42.4
	c-0.3-52.9-67.4-74.7-98.8-33h-12.5c4.5-7,4.5-16,0-23.1c8.6,0.4,16.7-4.5,20.4-12.2H295c2.8,0,5-2.2,5-5V31.6
	C300,28.9,297.8,26.6,295,26.6L295,26.6z M43.7,239.9c0-6.4,5.2-11.5,11.5-11.5h54.3c1.6,8.4,5.1,16.3,10.3,23.1H55.3
	C48.9,251.4,43.7,246.3,43.7,239.9z M163.5,173.3c24.8,0,44.9,20.1,45,44.9c-2.5,59.6-87.4,59.6-89.9,0
	C118.6,193.5,138.7,173.4,163.5,173.3z M108.6,218.4H55.3c-6.4,0-11.5-5.2-11.5-11.5c0-6.4,5.2-11.5,11.5-11.5c14.2,0,44.4,0,58.4,0
	C110.3,202.5,108.6,210.4,108.6,218.4z M100.6,173.7c0,6.4-5.2,11.5-11.5,11.5H21.4c-6.4-0.1-11.5-5.4-11.3-11.7
	c0.1-6.2,5.1-11.2,11.3-11.3H89C95.4,162.2,100.5,167.4,100.6,173.7z M108.2,152.2H40.6c-6.4-0.1-11.5-5.4-11.3-11.7
	c0.1-6.2,5.1-11.2,11.3-11.3h67.6c6.4,0.1,11.5,5.4,11.3,11.7C119.4,147.1,114.4,152.1,108.2,152.2L108.2,152.2z M290,140H129.7
	c-0.1-1.9-0.3-3.7-0.9-5.5h25.4c2.8,0,5-2.2,5-5c0-2.8-2.2-5-5-5h-31.8c-3.9-3.5-9-5.4-14.2-5.4h-15V36.6H290V140z"/>
<path class="st0" d="M161.5,223.3h4.4c2.9,0.2,5.2,2.7,5,5.7c-0.2,2.7-2.3,4.8-5,5h-9.1c-1,0-1.9-0.3-2.7-0.9
	c-2.2-1.6-5.4-1.1-7,1.1c-4.1,6.8,6,10.4,11.4,9.8v5.9c0,2.8,2.2,5,5,5c2.8,0,5-2.2,5-5v-6.2c18.2-3.4,16-30.1-2.6-30.4h-4.4
	c-2.9,0.2-5.5-2-5.7-4.9c-0.2-2.9,2-5.5,4.9-5.7c0.3,0,0.5,0,0.8,0c2.7,0.2,10.3-0.7,11.8,0.9c2.2,1.6,5.4,1.1,7-1.2
	c1.6-2.2,1.1-5.3-1.1-6.9c-3.1-2.2-6.9-3.2-10.7-2.8v-5.9c0-2.8-2.2-5-5-5s-5,2.2-5,5v6.2c-8.3,1.7-13.6,9.9-11.9,18.2
	C148.2,218.1,154.3,223.2,161.5,223.3z"/>
<path class="st0" d="M191.6,129.1c22.5,0,40.8-18.3,40.8-40.8c-2.2-54.2-79.4-54.1-81.6,0C150.8,110.8,169.1,129.1,191.6,129.1z
	 M191.6,57.5c17,0,30.8,13.8,30.8,30.8c-1.7,40.9-60,40.9-61.6,0C160.8,71.3,174.6,57.5,191.6,57.5z"/>
<path class="st0" d="M229,53.6h27.8c2.1,8.1,9.1,13.9,17.4,14.6v41.7c-8.3,0.7-15.2,6.5-17.4,14.6H229c-2.8,0-5,2.2-5,5
	c0,2.8,2.2,5,5,5h32.1c2.8,0,5-2.2,5-5c0-5.4,4.3-9.7,9.7-9.7h3.3c2.7,0,5-2.2,5-5c0-0.2,0-0.5,0-0.7c0.3-0.8-0.1-50,0.1-50.8
	c0-2.8-2.2-5-5-5h-3.3c-5.4,0-9.7-4.3-9.7-9.7c0-2.8-2.2-5-5-5H229c-2.8,0-5,2.2-5,5C224,51.4,226.2,53.6,229,53.6z"/>
<path class="st0" d="M104.1,115c2.8,0,5-2.2,5-5V68.2c8.3-0.7,15.2-6.6,17.4-14.6h27.8c2.8,0,5-2.2,5-5c0-2.8-2.2-5-5-5h-32.1
	c-2.8,0-5,2.2-5,5c0,5.4-4.3,9.7-9.7,9.7h-3.3c-2.8,0-5,2.2-5,5V110C99.1,112.8,101.3,115,104.1,115z"/>
</svg>
