<svg width="667" height="667" viewBox="0 0 667 667" fill="none" xmlns="http://www.w3.org/2000/svg">
<path d="M146.42 344H123.92L164.886 227.636H190.909L231.932 344H209.432L178.352 251.5H177.443L146.42 344ZM147.159 298.375H208.523V315.307H147.159V298.375ZM341.392 266.898H320.142C319.536 263.413 318.419 260.326 316.79 257.636C315.161 254.909 313.134 252.598 310.71 250.705C308.286 248.811 305.521 247.39 302.415 246.443C299.347 245.458 296.032 244.966 292.472 244.966C286.146 244.966 280.54 246.557 275.653 249.739C270.767 252.883 266.941 257.504 264.176 263.602C261.411 269.663 260.028 277.068 260.028 285.818C260.028 294.72 261.411 302.22 264.176 308.318C266.979 314.379 270.805 318.962 275.653 322.068C280.54 325.136 286.127 326.67 292.415 326.67C295.9 326.67 299.157 326.216 302.188 325.307C305.256 324.36 308.002 322.977 310.426 321.159C312.888 319.341 314.953 317.106 316.619 314.455C318.324 311.803 319.498 308.773 320.142 305.364L341.392 305.477C340.597 311.008 338.873 316.197 336.222 321.045C333.608 325.894 330.18 330.174 325.938 333.886C321.695 337.561 316.733 340.439 311.051 342.523C305.369 344.568 299.063 345.591 292.131 345.591C281.903 345.591 272.775 343.223 264.744 338.489C256.714 333.754 250.388 326.917 245.767 317.977C241.146 309.038 238.835 298.318 238.835 285.818C238.835 273.28 241.165 262.561 245.824 253.659C250.483 244.72 256.828 237.883 264.858 233.148C272.888 228.413 281.979 226.045 292.131 226.045C298.608 226.045 304.631 226.955 310.199 228.773C315.767 230.591 320.729 233.261 325.085 236.784C329.441 240.269 333.021 244.549 335.824 249.625C338.665 254.663 340.521 260.42 341.392 266.898ZM360.696 344V227.636H436.378V245.307H381.776V276.898H432.457V294.568H381.776V326.33H436.832V344H360.696Z" fill="#141414"/>
<path d="M188.148 426.32C187.607 421.513 185.372 417.789 181.445 415.148C177.518 412.474 172.576 411.137 166.617 411.137C162.352 411.137 158.661 411.814 155.547 413.168C152.432 414.488 150.012 416.316 148.285 418.652C146.592 420.954 145.746 423.578 145.746 426.523C145.746 428.995 146.322 431.128 147.473 432.922C148.658 434.716 150.198 436.223 152.094 437.441C154.023 438.626 156.089 439.625 158.289 440.438C160.49 441.216 162.605 441.859 164.637 442.367L174.793 445.008C178.111 445.82 181.513 446.921 185 448.309C188.487 449.697 191.72 451.525 194.699 453.793C197.678 456.061 200.082 458.871 201.91 462.223C203.772 465.574 204.703 469.586 204.703 474.258C204.703 480.148 203.18 485.379 200.133 489.949C197.12 494.52 192.736 498.125 186.98 500.766C181.259 503.406 174.336 504.727 166.211 504.727C158.424 504.727 151.688 503.491 146 501.02C140.313 498.548 135.861 495.044 132.645 490.508C129.428 485.937 127.651 480.521 127.313 474.258H143.055C143.359 478.016 144.578 481.147 146.711 483.652C148.878 486.124 151.637 487.969 154.988 489.187C158.374 490.372 162.081 490.965 166.109 490.965C170.544 490.965 174.488 490.271 177.941 488.883C181.428 487.461 184.171 485.497 186.168 482.992C188.165 480.453 189.164 477.491 189.164 474.105C189.164 471.025 188.284 468.503 186.523 466.539C184.797 464.576 182.444 462.951 179.465 461.664C176.52 460.378 173.185 459.243 169.461 458.262L157.172 454.91C148.844 452.642 142.242 449.307 137.367 444.906C132.526 440.505 130.105 434.682 130.105 427.437C130.105 421.445 131.73 416.215 134.98 411.746C138.23 407.277 142.632 403.807 148.184 401.336C153.736 398.831 159.999 397.578 166.973 397.578C174.014 397.578 180.227 398.814 185.609 401.285C191.026 403.757 195.292 407.159 198.406 411.492C201.521 415.792 203.146 420.734 203.281 426.32H188.148ZM244.935 504.727C239.992 504.727 235.523 503.813 231.528 501.984C227.534 500.122 224.368 497.431 222.032 493.91C219.73 490.389 218.579 486.073 218.579 480.961C218.579 476.56 219.425 472.937 221.118 470.094C222.811 467.25 225.096 464.999 227.974 463.34C230.851 461.681 234.067 460.428 237.622 459.582C241.177 458.736 244.799 458.092 248.489 457.652C253.161 457.111 256.953 456.671 259.864 456.332C262.776 455.96 264.892 455.367 266.212 454.555C267.532 453.742 268.192 452.422 268.192 450.594V450.238C268.192 445.803 266.94 442.367 264.435 439.93C261.963 437.492 258.273 436.273 253.364 436.273C248.252 436.273 244.224 437.408 241.278 439.676C238.367 441.91 236.353 444.398 235.235 447.141L220.966 443.891C222.659 439.151 225.13 435.326 228.38 432.414C231.664 429.469 235.438 427.336 239.704 426.016C243.97 424.661 248.455 423.984 253.161 423.984C256.276 423.984 259.576 424.357 263.063 425.102C266.584 425.812 269.868 427.133 272.915 429.062C275.996 430.992 278.518 433.751 280.481 437.34C282.445 440.895 283.427 445.516 283.427 451.203V503H268.599V492.336H267.989C267.007 494.299 265.535 496.229 263.571 498.125C261.608 500.021 259.086 501.595 256.005 502.848C252.924 504.1 249.234 504.727 244.935 504.727ZM248.235 492.539C252.433 492.539 256.022 491.71 259.001 490.051C262.014 488.392 264.299 486.225 265.856 483.551C267.448 480.842 268.243 477.948 268.243 474.867V464.812C267.702 465.354 266.652 465.862 265.095 466.336C263.571 466.776 261.828 467.165 259.864 467.504C257.901 467.809 255.988 468.096 254.126 468.367C252.264 468.604 250.707 468.807 249.454 468.977C246.509 469.349 243.817 469.975 241.38 470.855C238.976 471.736 237.047 473.005 235.591 474.664C234.169 476.289 233.458 478.456 233.458 481.164C233.458 484.922 234.846 487.766 237.622 489.695C240.398 491.591 243.936 492.539 248.235 492.539ZM318.834 399V503H303.65V399H318.834ZM372.878 504.574C365.193 504.574 358.575 502.932 353.022 499.648C347.504 496.331 343.239 491.676 340.226 485.684C337.246 479.658 335.757 472.599 335.757 464.508C335.757 456.518 337.246 449.477 340.226 443.383C343.239 437.289 347.437 432.533 352.819 429.113C358.236 425.694 364.567 423.984 371.812 423.984C376.213 423.984 380.478 424.712 384.608 426.168C388.739 427.624 392.446 429.909 395.729 433.023C399.013 436.138 401.603 440.184 403.499 445.16C405.395 450.103 406.343 456.112 406.343 463.187V468.57H344.339V457.195H391.464C391.464 453.201 390.651 449.663 389.026 446.582C387.401 443.467 385.116 441.013 382.171 439.219C379.259 437.424 375.84 436.527 371.913 436.527C367.647 436.527 363.924 437.577 360.741 439.676C357.593 441.741 355.155 444.449 353.429 447.801C351.736 451.118 350.89 454.724 350.89 458.617V467.504C350.89 472.717 351.804 477.152 353.632 480.809C355.494 484.465 358.084 487.258 361.401 489.187C364.719 491.083 368.595 492.031 373.03 492.031C375.908 492.031 378.532 491.625 380.901 490.812C383.271 489.966 385.319 488.714 387.046 487.055C388.772 485.396 390.093 483.348 391.007 480.91L405.378 483.5C404.227 487.732 402.162 491.439 399.183 494.621C396.237 497.77 392.53 500.224 388.062 501.984C383.627 503.711 378.565 504.574 372.878 504.574ZM481.639 444.043L467.877 446.48C467.301 444.72 466.387 443.044 465.135 441.453C463.916 439.862 462.257 438.559 460.158 437.543C458.059 436.527 455.436 436.02 452.287 436.02C447.988 436.02 444.399 436.984 441.521 438.914C438.644 440.81 437.205 443.264 437.205 446.277C437.205 448.884 438.17 450.983 440.1 452.574C442.029 454.165 445.144 455.469 449.443 456.484L461.834 459.328C469.011 460.987 474.36 463.543 477.881 466.996C481.402 470.449 483.162 474.935 483.162 480.453C483.162 485.125 481.808 489.289 479.1 492.945C476.425 496.568 472.684 499.411 467.877 501.477C463.104 503.542 457.568 504.574 451.271 504.574C442.537 504.574 435.411 502.712 429.893 498.988C424.374 495.23 420.989 489.898 419.736 482.992L434.412 480.758C435.326 484.583 437.205 487.478 440.049 489.441C442.893 491.371 446.6 492.336 451.17 492.336C456.146 492.336 460.124 491.303 463.104 489.238C466.083 487.139 467.572 484.583 467.572 481.57C467.572 479.133 466.658 477.085 464.83 475.426C463.036 473.767 460.277 472.514 456.553 471.668L443.35 468.773C436.071 467.115 430.688 464.474 427.201 460.852C423.748 457.229 422.021 452.642 422.021 447.09C422.021 442.486 423.308 438.457 425.881 435.004C428.454 431.551 432.008 428.859 436.545 426.93C441.081 424.966 446.278 423.984 452.135 423.984C460.564 423.984 467.2 425.812 472.041 429.469C476.882 433.091 480.081 437.949 481.639 444.043Z" fill="#141414"/>
<path d="M494.306 34L515.508 82.5295C518.534 89.4553 524.063 94.9838 530.988 98.0097L579.518 119.212L530.988 140.414C524.063 143.44 518.534 148.969 515.508 155.895L494.306 204.424L473.103 155.895C470.078 148.969 464.549 143.44 457.623 140.414L409.094 119.212L457.623 98.0097C464.549 94.9838 470.078 89.4553 473.103 82.5295L494.306 34Z" fill="#8550C2"/>
<path d="M351.976 106.738H130C87.4741 106.738 53 141.212 53 183.738V554.777C53 597.777 88.2187 632.445 131.214 631.767L503.477 625.895C545.524 625.232 579.262 590.957 579.262 548.905V339.987" stroke="url(#paint0_linear_1481_17)" stroke-width="40" stroke-linecap="round"/>
<path d="M570.597 152.43L581.375 176.292C584.381 182.948 589.712 188.279 596.367 191.285L620.23 202.062L596.367 212.84C589.712 215.846 584.381 221.176 581.375 227.832L570.597 251.695L559.82 227.832C556.814 221.176 551.483 215.846 544.827 212.84L520.965 202.062L544.827 191.285C551.483 188.279 556.814 182.948 559.82 176.292L570.597 152.43Z" fill="#8550C2"/>
<path d="M570.597 34.2578L575.887 45.6846C578.955 52.3105 584.333 57.5904 591.015 60.5345L602.898 65.7705L591.015 71.0065C584.333 73.9507 578.955 79.2305 575.887 85.8565L570.597 97.2832L565.308 85.8565C562.24 79.2305 556.862 73.9507 550.18 71.0066L538.297 65.7705L550.18 60.5345C556.862 57.5904 562.24 52.3105 565.308 45.6846L570.597 34.2578Z" fill="#8550C2"/>
<defs>
<linearGradient id="paint0_linear_1481_17" x1="316.131" y1="106.738" x2="316.131" y2="633.001" gradientUnits="userSpaceOnUse">
<stop stop-color="#8550C2"/>
<stop offset="1" stop-color="#55228F"/>
</linearGradient>
</defs>
</svg>
