<svg width="667" height="667" viewBox="0 0 667 667" fill="none" xmlns="http://www.w3.org/2000/svg">
<path d="M146.42 350H123.92L164.886 233.636H190.909L231.932 350H209.432L178.352 257.5H177.443L146.42 350ZM147.159 304.375H208.523V321.307H147.159V304.375ZM341.392 272.898H320.142C319.536 269.413 318.419 266.326 316.79 263.636C315.161 260.909 313.134 258.598 310.71 256.705C308.286 254.811 305.521 253.39 302.415 252.443C299.347 251.458 296.032 250.966 292.472 250.966C286.146 250.966 280.54 252.557 275.653 255.739C270.767 258.883 266.941 263.504 264.176 269.602C261.411 275.663 260.028 283.068 260.028 291.818C260.028 300.72 261.411 308.22 264.176 314.318C266.979 320.379 270.805 324.962 275.653 328.068C280.54 331.136 286.127 332.67 292.415 332.67C295.9 332.67 299.157 332.216 302.188 331.307C305.256 330.36 308.002 328.977 310.426 327.159C312.888 325.341 314.953 323.106 316.619 320.455C318.324 317.803 319.498 314.773 320.142 311.364L341.392 311.477C340.597 317.008 338.873 322.197 336.222 327.045C333.608 331.894 330.18 336.174 325.938 339.886C321.695 343.561 316.733 346.439 311.051 348.523C305.369 350.568 299.063 351.591 292.131 351.591C281.903 351.591 272.775 349.223 264.744 344.489C256.714 339.754 250.388 332.917 245.767 323.977C241.146 315.038 238.835 304.318 238.835 291.818C238.835 279.28 241.165 268.561 245.824 259.659C250.483 250.72 256.828 243.883 264.858 239.148C272.888 234.413 281.979 232.045 292.131 232.045C298.608 232.045 304.631 232.955 310.199 234.773C315.767 236.591 320.729 239.261 325.085 242.784C329.441 246.269 333.021 250.549 335.824 255.625C338.665 260.663 340.521 266.42 341.392 272.898ZM360.696 350V233.636H436.378V251.307H381.776V282.898H432.457V300.568H381.776V332.33H436.832V350H360.696Z" fill="#141414"/>
<path d="M188.148 432.32C187.607 427.513 185.372 423.789 181.445 421.148C177.518 418.474 172.576 417.137 166.617 417.137C162.352 417.137 158.661 417.814 155.547 419.168C152.432 420.488 150.012 422.316 148.285 424.652C146.592 426.954 145.746 429.578 145.746 432.523C145.746 434.995 146.322 437.128 147.473 438.922C148.658 440.716 150.198 442.223 152.094 443.441C154.023 444.626 156.089 445.625 158.289 446.438C160.49 447.216 162.605 447.859 164.637 448.367L174.793 451.008C178.111 451.82 181.513 452.921 185 454.309C188.487 455.697 191.72 457.525 194.699 459.793C197.678 462.061 200.082 464.871 201.91 468.223C203.772 471.574 204.703 475.586 204.703 480.258C204.703 486.148 203.18 491.379 200.133 495.949C197.12 500.52 192.736 504.125 186.98 506.766C181.259 509.406 174.336 510.727 166.211 510.727C158.424 510.727 151.688 509.491 146 507.02C140.313 504.548 135.861 501.044 132.645 496.508C129.428 491.937 127.651 486.521 127.313 480.258H143.055C143.359 484.016 144.578 487.147 146.711 489.652C148.878 492.124 151.637 493.969 154.988 495.187C158.374 496.372 162.081 496.965 166.109 496.965C170.544 496.965 174.488 496.271 177.941 494.883C181.428 493.461 184.171 491.497 186.168 488.992C188.165 486.453 189.164 483.491 189.164 480.105C189.164 477.025 188.284 474.503 186.523 472.539C184.797 470.576 182.444 468.951 179.465 467.664C176.52 466.378 173.185 465.243 169.461 464.262L157.172 460.91C148.844 458.642 142.242 455.307 137.367 450.906C132.526 446.505 130.105 440.682 130.105 433.437C130.105 427.445 131.73 422.215 134.98 417.746C138.23 413.277 142.632 409.807 148.184 407.336C153.736 404.831 159.999 403.578 166.973 403.578C174.014 403.578 180.227 404.814 185.609 407.285C191.026 409.757 195.292 413.159 198.406 417.492C201.521 421.792 203.146 426.734 203.281 432.32H188.148ZM244.935 510.727C239.992 510.727 235.523 509.813 231.528 507.984C227.534 506.122 224.368 503.431 222.032 499.91C219.73 496.389 218.579 492.073 218.579 486.961C218.579 482.56 219.425 478.937 221.118 476.094C222.811 473.25 225.096 470.999 227.974 469.34C230.851 467.681 234.067 466.428 237.622 465.582C241.177 464.736 244.799 464.092 248.489 463.652C253.161 463.111 256.953 462.671 259.864 462.332C262.776 461.96 264.892 461.367 266.212 460.555C267.532 459.742 268.192 458.422 268.192 456.594V456.238C268.192 451.803 266.94 448.367 264.435 445.93C261.963 443.492 258.273 442.273 253.364 442.273C248.252 442.273 244.224 443.408 241.278 445.676C238.367 447.91 236.353 450.398 235.235 453.141L220.966 449.891C222.659 445.151 225.13 441.326 228.38 438.414C231.664 435.469 235.438 433.336 239.704 432.016C243.97 430.661 248.455 429.984 253.161 429.984C256.276 429.984 259.576 430.357 263.063 431.102C266.584 431.812 269.868 433.133 272.915 435.062C275.996 436.992 278.518 439.751 280.481 443.34C282.445 446.895 283.427 451.516 283.427 457.203V509H268.599V498.336H267.989C267.007 500.299 265.535 502.229 263.571 504.125C261.608 506.021 259.086 507.595 256.005 508.848C252.924 510.1 249.234 510.727 244.935 510.727ZM248.235 498.539C252.433 498.539 256.022 497.71 259.001 496.051C262.014 494.392 264.299 492.225 265.856 489.551C267.448 486.842 268.243 483.948 268.243 480.867V470.812C267.702 471.354 266.652 471.862 265.095 472.336C263.571 472.776 261.828 473.165 259.864 473.504C257.901 473.809 255.988 474.096 254.126 474.367C252.264 474.604 250.707 474.807 249.454 474.977C246.509 475.349 243.817 475.975 241.38 476.855C238.976 477.736 237.047 479.005 235.591 480.664C234.169 482.289 233.458 484.456 233.458 487.164C233.458 490.922 234.846 493.766 237.622 495.695C240.398 497.591 243.936 498.539 248.235 498.539ZM318.834 405V509H303.65V405H318.834ZM372.878 510.574C365.193 510.574 358.575 508.932 353.022 505.648C347.504 502.331 343.239 497.676 340.226 491.684C337.246 485.658 335.757 478.599 335.757 470.508C335.757 462.518 337.246 455.477 340.226 449.383C343.239 443.289 347.437 438.533 352.819 435.113C358.236 431.694 364.567 429.984 371.812 429.984C376.213 429.984 380.478 430.712 384.608 432.168C388.739 433.624 392.446 435.909 395.729 439.023C399.013 442.138 401.603 446.184 403.499 451.16C405.395 456.103 406.343 462.112 406.343 469.187V474.57H344.339V463.195H391.464C391.464 459.201 390.651 455.663 389.026 452.582C387.401 449.467 385.116 447.013 382.171 445.219C379.259 443.424 375.84 442.527 371.913 442.527C367.647 442.527 363.924 443.577 360.741 445.676C357.593 447.741 355.155 450.449 353.429 453.801C351.736 457.118 350.89 460.724 350.89 464.617V473.504C350.89 478.717 351.804 483.152 353.632 486.809C355.494 490.465 358.084 493.258 361.401 495.187C364.719 497.083 368.595 498.031 373.03 498.031C375.908 498.031 378.532 497.625 380.901 496.812C383.271 495.966 385.319 494.714 387.046 493.055C388.772 491.396 390.093 489.348 391.007 486.91L405.378 489.5C404.227 493.732 402.162 497.439 399.183 500.621C396.237 503.77 392.53 506.224 388.062 507.984C383.627 509.711 378.565 510.574 372.878 510.574ZM481.639 450.043L467.877 452.48C467.301 450.72 466.387 449.044 465.135 447.453C463.916 445.862 462.257 444.559 460.158 443.543C458.059 442.527 455.436 442.02 452.287 442.02C447.988 442.02 444.399 442.984 441.521 444.914C438.644 446.81 437.205 449.264 437.205 452.277C437.205 454.884 438.17 456.983 440.1 458.574C442.029 460.165 445.144 461.469 449.443 462.484L461.834 465.328C469.011 466.987 474.36 469.543 477.881 472.996C481.402 476.449 483.162 480.935 483.162 486.453C483.162 491.125 481.808 495.289 479.1 498.945C476.425 502.568 472.684 505.411 467.877 507.477C463.104 509.542 457.568 510.574 451.271 510.574C442.537 510.574 435.411 508.712 429.893 504.988C424.374 501.23 420.989 495.898 419.736 488.992L434.412 486.758C435.326 490.583 437.205 493.478 440.049 495.441C442.893 497.371 446.6 498.336 451.17 498.336C456.146 498.336 460.124 497.303 463.104 495.238C466.083 493.139 467.572 490.583 467.572 487.57C467.572 485.133 466.658 483.085 464.83 481.426C463.036 479.767 460.277 478.514 456.553 477.668L443.35 474.773C436.071 473.115 430.688 470.474 427.201 466.852C423.748 463.229 422.021 458.642 422.021 453.09C422.021 448.486 423.308 444.457 425.881 441.004C428.454 437.551 432.008 434.859 436.545 432.93C441.081 430.966 446.278 429.984 452.135 429.984C460.564 429.984 467.2 431.812 472.041 435.469C476.882 439.091 480.081 443.949 481.639 450.043Z" fill="#141414"/>
<path d="M494.306 40L515.508 88.5295C518.534 95.4553 524.063 100.984 530.988 104.01L579.518 125.212L530.988 146.414C524.063 149.44 518.534 154.969 515.508 161.895L494.306 210.424L473.103 161.895C470.078 154.969 464.549 149.44 457.623 146.414L409.094 125.212L457.623 104.01C464.549 100.984 470.078 95.4553 473.103 88.5295L494.306 40Z" fill="#8550C2"/>
<path d="M351.976 112.738H130C87.4741 112.738 53 147.212 53 189.738V560.777C53 603.777 88.2187 638.445 131.214 637.767L503.477 631.895C545.524 631.232 579.262 596.957 579.262 554.905V345.987" stroke="url(#paint0_linear_1481_17)" stroke-width="40" stroke-linecap="round"/>
<path d="M570.597 158.43L581.375 182.292C584.381 188.948 589.712 194.279 596.367 197.285L620.23 208.062L596.367 218.84C589.712 221.846 584.381 227.176 581.375 233.832L570.597 257.695L559.82 233.832C556.814 227.176 551.483 221.846 544.827 218.84L520.965 208.062L544.827 197.285C551.483 194.279 556.814 188.948 559.82 182.292L570.597 158.43Z" fill="#8550C2"/>
<path d="M570.597 40.2578L575.887 51.6846C578.955 58.3105 584.333 63.5904 591.015 66.5345L602.898 71.7705L591.015 77.0066C584.333 79.9507 578.955 85.2305 575.887 91.8565L570.597 103.283L565.308 91.8565C562.24 85.2305 556.862 79.9507 550.18 77.0066L538.297 71.7705L550.18 66.5345C556.862 63.5904 562.24 58.3105 565.308 51.6846L570.597 40.2578Z" fill="#8550C2"/>
<defs>
<linearGradient id="paint0_linear_1481_17" x1="316.131" y1="112.738" x2="316.131" y2="639.001" gradientUnits="userSpaceOnUse">
<stop stop-color="#8550C2"/>
<stop offset="1" stop-color="#55228F"/>
</linearGradient>
</defs>
</svg>
