<svg width="1840" height="317" viewBox="0 0 1840 317" fill="none" xmlns="http://www.w3.org/2000/svg">
<g clip-path="url(#clip0_1481_2)">
<path d="M43.9055 291H4.81179L75.9901 88.8182H121.205L192.482 291H153.388L99.3871 130.281H97.8075L43.9055 291ZM45.1889 211.727H151.808V241.146H45.1889V211.727ZM279.06 293.962C263.923 293.962 250.925 290.638 240.065 283.991C229.272 277.344 220.946 268.162 215.089 256.447C209.297 244.667 206.401 231.109 206.401 215.774C206.401 200.374 209.363 186.783 215.286 175.002C221.21 163.156 229.568 153.942 240.362 147.36C251.221 140.713 264.055 137.389 278.863 137.389C291.17 137.389 302.063 139.66 311.54 144.201C321.083 148.676 328.684 155.027 334.344 163.254C340.005 171.415 343.229 180.958 344.019 191.884H309.862C308.479 184.578 305.189 178.49 299.989 173.62C294.856 168.684 287.978 166.216 279.357 166.216C272.051 166.216 265.634 168.19 260.106 172.139C254.577 176.022 250.267 181.616 247.173 188.922C244.146 196.227 242.632 204.981 242.632 215.182C242.632 225.515 244.146 234.4 247.173 241.837C250.201 249.208 254.446 254.901 259.908 258.915C265.437 262.864 271.92 264.839 279.357 264.839C284.622 264.839 289.327 263.852 293.474 261.877C297.686 259.837 301.207 256.908 304.037 253.091C306.867 249.274 308.808 244.634 309.862 239.171H344.019C343.164 249.899 340.004 259.409 334.542 267.702C329.079 275.929 321.642 282.378 312.231 287.051C302.819 291.658 291.763 293.962 279.06 293.962ZM440.495 293.962C425.292 293.962 412.162 290.803 401.105 284.484C390.114 278.1 381.657 269.084 375.733 257.435C369.81 245.72 366.849 231.932 366.849 216.07C366.849 200.472 369.81 186.783 375.733 175.002C381.723 163.156 390.081 153.942 400.809 147.36C411.537 140.713 424.14 137.389 438.619 137.389C447.965 137.389 456.784 138.903 465.077 141.93C473.435 144.892 480.806 149.499 487.19 155.751C493.64 162.004 498.708 169.967 502.393 179.642C506.079 189.251 507.922 200.703 507.922 213.997V224.955H383.631V200.867H473.665C473.599 194.022 472.119 187.935 469.223 182.604C466.327 177.207 462.279 172.962 457.08 169.869C451.947 166.775 445.957 165.229 439.113 165.229C431.807 165.229 425.39 167.006 419.862 170.56C414.334 174.048 410.023 178.655 406.93 184.381C403.902 190.041 402.355 196.26 402.29 203.039V224.067C402.29 232.886 403.902 240.455 407.127 246.773C410.352 253.025 414.86 257.83 420.652 261.186C426.443 264.477 433.222 266.122 440.988 266.122C446.188 266.122 450.894 265.398 455.106 263.95C459.318 262.437 462.97 260.232 466.064 257.336C469.157 254.44 471.493 250.853 473.073 246.575L506.441 250.327C504.335 259.146 500.32 266.846 494.397 273.428C488.539 279.943 481.037 285.011 471.888 288.631C462.74 292.185 452.276 293.962 440.495 293.962ZM649.612 144.398C648.69 135.777 644.807 129.064 637.963 124.259C631.184 119.455 622.365 117.053 611.505 117.053C603.871 117.053 597.322 118.204 591.86 120.508C586.397 122.811 582.218 125.937 579.322 129.886C576.426 133.835 574.945 138.344 574.88 143.411C574.88 147.623 575.834 151.276 577.743 154.369C579.717 157.463 582.382 160.095 585.739 162.267C589.096 164.373 592.814 166.15 596.895 167.598C600.975 169.046 605.088 170.263 609.235 171.251L628.189 175.989C635.824 177.766 643.162 180.169 650.204 183.196C657.312 186.223 663.663 190.041 669.257 194.648C674.917 199.255 679.393 204.816 682.684 211.332C685.974 217.847 687.62 225.482 687.62 234.235C687.62 246.082 684.592 256.513 678.537 265.53C672.482 274.481 663.729 281.49 652.277 286.558C640.891 291.559 627.103 294.06 610.913 294.06C595.183 294.06 581.527 291.625 569.944 286.755C558.426 281.885 549.409 274.777 542.894 265.431C536.444 256.085 532.956 244.7 532.429 231.273H568.463C568.989 238.316 571.161 244.173 574.978 248.846C578.796 253.519 583.765 257.007 589.885 259.31C596.072 261.614 602.982 262.766 610.617 262.766C618.58 262.766 625.557 261.581 631.546 259.212C637.601 256.777 642.339 253.42 645.762 249.142C649.184 244.798 650.928 239.731 650.994 233.939C650.928 228.674 649.382 224.33 646.354 220.908C643.327 217.42 639.082 214.524 633.619 212.22C628.222 209.851 621.904 207.745 614.664 205.902L591.662 199.979C575.011 195.701 561.848 189.218 552.174 180.531C542.565 171.777 537.76 160.161 537.76 145.682C537.76 133.769 540.985 123.338 547.435 114.387C553.951 105.436 562.803 98.4929 573.991 93.5568C585.18 88.5549 597.849 86.054 611.999 86.054C626.346 86.054 638.917 88.5549 649.711 93.5568C660.57 98.4929 669.093 105.37 675.279 114.19C681.466 122.943 684.658 133.013 684.855 144.398H649.612ZM762.327 294.06C752.718 294.06 744.064 292.349 736.363 288.927C728.729 285.439 722.674 280.305 718.199 273.526C713.789 266.747 711.584 258.389 711.584 248.451C711.584 239.895 713.164 232.82 716.323 227.226C719.482 221.632 723.793 217.156 729.256 213.8C734.718 210.443 740.872 207.909 747.716 206.198C754.627 204.421 761.768 203.138 769.139 202.348C778.024 201.427 785.231 200.604 790.759 199.88C796.287 199.09 800.302 197.906 802.803 196.326C805.37 194.681 806.653 192.147 806.653 188.724V188.132C806.653 180.695 804.448 174.936 800.039 170.856C795.629 166.775 789.278 164.735 780.986 164.735C772.232 164.735 765.289 166.644 760.155 170.461C755.088 174.278 751.665 178.786 749.888 183.986L716.52 179.247C719.153 170.033 723.497 162.333 729.552 156.146C735.607 149.894 743.011 145.221 751.764 142.128C760.517 138.969 770.192 137.389 780.788 137.389C788.094 137.389 795.366 138.245 802.606 139.956C809.845 141.667 816.46 144.497 822.449 148.446C828.438 152.329 833.242 157.627 836.862 164.34C840.548 171.053 842.39 179.445 842.39 189.514V291H808.035V270.17H806.851C804.679 274.382 801.618 278.331 797.67 282.016C793.787 285.636 788.883 288.565 782.96 290.803C777.103 292.974 770.225 294.06 762.327 294.06ZM771.607 267.8C778.781 267.8 785 266.385 790.265 263.555C795.531 260.66 799.578 256.842 802.408 252.104C805.304 247.365 806.752 242.199 806.752 236.604V218.736C805.633 219.657 803.724 220.513 801.026 221.303C798.394 222.092 795.432 222.783 792.141 223.376C788.85 223.968 785.593 224.495 782.368 224.955C779.143 225.416 776.346 225.811 773.976 226.14C768.645 226.864 763.874 228.049 759.662 229.694C755.45 231.339 752.126 233.643 749.691 236.604C747.256 239.5 746.038 243.252 746.038 247.859C746.038 254.44 748.44 259.409 753.245 262.766C758.049 266.122 764.17 267.8 771.607 267.8ZM914.062 88.8182V291H878.325V88.8182H914.062ZM1017.94 293.962C1002.74 293.962 989.609 290.803 978.552 284.484C967.561 278.1 959.104 269.084 953.181 257.435C947.257 245.72 944.296 231.932 944.296 216.07C944.296 200.472 947.257 186.783 953.181 175.002C959.17 163.156 967.528 153.942 978.256 147.36C988.984 140.713 1001.59 137.389 1016.07 137.389C1025.41 137.389 1034.23 138.903 1042.52 141.93C1050.88 144.892 1058.25 149.499 1064.64 155.751C1071.09 162.004 1076.15 169.967 1079.84 179.642C1083.53 189.251 1085.37 200.703 1085.37 213.997V224.955H961.078V200.867H1051.11C1051.05 194.022 1049.57 187.935 1046.67 182.604C1043.77 177.207 1039.73 172.962 1034.53 169.869C1029.39 166.775 1023.4 165.229 1016.56 165.229C1009.25 165.229 1002.84 167.006 997.309 170.56C991.781 174.048 987.47 178.655 984.377 184.381C981.349 190.041 979.803 196.26 979.737 203.039V224.067C979.737 232.886 981.349 240.455 984.574 246.773C987.799 253.025 992.307 257.83 998.099 261.186C1003.89 264.477 1010.67 266.122 1018.44 266.122C1023.64 266.122 1028.34 265.398 1032.55 263.95C1036.77 262.437 1040.42 260.232 1043.51 257.336C1046.6 254.44 1048.94 250.853 1050.52 246.575L1083.89 250.327C1081.78 259.146 1077.77 266.846 1071.84 273.428C1065.99 279.943 1058.48 285.011 1049.34 288.631C1040.19 292.185 1029.72 293.962 1017.94 293.962ZM1235.45 179.445L1202.87 182.999C1201.95 179.708 1200.34 176.615 1198.03 173.719C1195.8 170.823 1192.77 168.487 1188.95 166.71C1185.14 164.933 1180.46 164.044 1174.93 164.044C1167.5 164.044 1161.24 165.656 1156.18 168.881C1151.18 172.106 1148.71 176.286 1148.77 181.419C1148.71 185.829 1150.32 189.415 1153.61 192.18C1156.97 194.944 1162.5 197.214 1170.2 198.991L1196.06 204.52C1210.41 207.613 1221.07 212.516 1228.05 219.229C1235.09 225.942 1238.64 234.729 1238.71 245.588C1238.64 255.131 1235.85 263.555 1230.32 270.861C1224.85 278.1 1217.25 283.76 1207.51 287.841C1197.77 291.921 1186.58 293.962 1173.95 293.962C1155.39 293.962 1140.45 290.079 1129.13 282.312C1117.81 274.481 1111.06 263.588 1108.89 249.636L1143.74 246.279C1145.32 253.124 1148.67 258.29 1153.81 261.778C1158.94 265.267 1165.62 267.011 1173.85 267.011C1182.34 267.011 1189.15 265.267 1194.28 261.778C1199.48 258.29 1202.08 253.979 1202.08 248.846C1202.08 244.502 1200.4 240.915 1197.05 238.085C1193.76 235.255 1188.62 233.083 1181.65 231.57L1155.78 226.14C1141.24 223.112 1130.48 218.012 1123.5 210.838C1116.52 203.598 1113.07 194.45 1113.13 183.393C1113.07 174.048 1115.6 165.953 1120.74 159.108C1125.94 152.197 1133.14 146.866 1142.36 143.115C1151.64 139.298 1162.33 137.389 1174.44 137.389C1192.21 137.389 1206.2 141.174 1216.4 148.742C1226.66 156.311 1233.02 166.545 1235.45 179.445ZM1290.19 293.172C1284.2 293.172 1279.07 291.066 1274.79 286.854C1270.51 282.642 1268.41 277.508 1268.47 271.453C1268.41 265.53 1270.51 260.462 1274.79 256.25C1279.07 252.038 1284.2 249.932 1290.19 249.932C1295.98 249.932 1301.02 252.038 1305.3 256.25C1309.64 260.462 1311.84 265.53 1311.91 271.453C1311.84 275.468 1310.79 279.121 1308.75 282.411C1306.78 285.702 1304.14 288.335 1300.85 290.309C1297.63 292.218 1294.07 293.172 1290.19 293.172ZM1392.44 294.06C1382.83 294.06 1374.18 292.349 1366.48 288.927C1358.84 285.439 1352.79 280.305 1348.31 273.526C1343.9 266.747 1341.7 258.389 1341.7 248.451C1341.7 239.895 1343.28 232.82 1346.44 227.226C1349.6 221.632 1353.91 217.156 1359.37 213.8C1364.83 210.443 1370.99 207.909 1377.83 206.198C1384.74 204.421 1391.88 203.138 1399.25 202.348C1408.14 201.427 1415.35 200.604 1420.87 199.88C1426.4 199.09 1430.42 197.906 1432.92 196.326C1435.49 194.681 1436.77 192.147 1436.77 188.724V188.132C1436.77 180.695 1434.56 174.936 1430.15 170.856C1425.74 166.775 1419.39 164.735 1411.1 164.735C1402.35 164.735 1395.4 166.644 1390.27 170.461C1385.2 174.278 1381.78 178.786 1380 183.986L1346.64 179.247C1349.27 170.033 1353.61 162.333 1359.67 156.146C1365.72 149.894 1373.13 145.221 1381.88 142.128C1390.63 138.969 1400.31 137.389 1410.9 137.389C1418.21 137.389 1425.48 138.245 1432.72 139.956C1439.96 141.667 1446.57 144.497 1452.56 148.446C1458.55 152.329 1463.36 157.627 1466.98 164.34C1470.66 171.053 1472.51 179.445 1472.51 189.514V291H1438.15V270.17H1436.97C1434.79 274.382 1431.73 278.331 1427.78 282.016C1423.9 285.636 1419 288.565 1413.08 290.803C1407.22 292.974 1400.34 294.06 1392.44 294.06ZM1401.72 267.8C1408.9 267.8 1415.12 266.385 1420.38 263.555C1425.65 260.66 1429.69 256.842 1432.52 252.104C1435.42 247.365 1436.87 242.199 1436.87 236.604V218.736C1435.75 219.657 1433.84 220.513 1431.14 221.303C1428.51 222.092 1425.55 222.783 1422.26 223.376C1418.97 223.968 1415.71 224.495 1412.48 224.955C1409.26 225.416 1406.46 225.811 1404.09 226.14C1398.76 226.864 1393.99 228.049 1389.78 229.694C1385.56 231.339 1382.24 233.643 1379.81 236.604C1377.37 239.5 1376.15 243.252 1376.15 247.859C1376.15 254.44 1378.56 259.409 1383.36 262.766C1388.16 266.122 1394.29 267.8 1401.72 267.8ZM1508.44 291V139.364H1544.18V291H1508.44ZM1526.41 117.842C1520.75 117.842 1515.88 115.967 1511.8 112.215C1507.72 108.398 1505.68 103.824 1505.68 98.4929C1505.68 93.0961 1507.72 88.522 1511.8 84.7706C1515.88 80.9534 1520.75 79.0447 1526.41 79.0447C1532.13 79.0447 1537 80.9534 1541.02 84.7706C1545.1 88.522 1547.14 93.0961 1547.14 98.4929C1547.14 103.824 1545.1 108.398 1541.02 112.215C1537 115.967 1532.13 117.842 1526.41 117.842Z" fill="black"/>
<path d="M1689.11 124.785L1709.67 171.85C1712.7 178.776 1718.23 184.305 1725.15 187.331L1772.22 207.893L1725.15 228.456C1718.23 231.482 1712.7 237.01 1709.67 243.936L1689.11 291.001L1668.55 243.936C1665.52 237.01 1659.99 231.482 1653.07 228.456L1606 207.893L1653.07 187.331C1659.99 184.305 1665.52 178.776 1668.55 171.85L1689.11 124.785Z" fill="#8550C2"/>
<path d="M1780.62 64.0859L1794.55 94.9272C1797.55 101.583 1802.88 106.914 1809.54 109.92L1840.38 123.849L1809.54 137.778C1802.88 140.784 1797.55 146.115 1794.55 152.771L1780.62 183.612L1766.69 152.771C1763.68 146.115 1758.35 140.784 1751.7 137.778L1720.86 123.849L1751.7 109.92C1758.35 106.914 1763.68 101.583 1766.69 94.9272L1780.62 64.0859Z" fill="#8550C2"/>
<path d="M1688.17 19L1698.29 41.1749C1701.32 47.8192 1706.67 53.1299 1713.34 56.1113L1735.8 66.1568L1713.34 76.2022C1706.67 79.1836 1701.32 84.4944 1698.29 91.1387L1688.17 113.314L1678.06 91.1387C1675.03 84.4944 1669.68 79.1836 1663.01 76.2022L1640.55 66.1568L1663.01 56.1113C1669.68 53.1299 1675.03 47.8192 1678.06 41.1749L1688.17 19Z" fill="#8550C2"/>
</g>
<defs>
<clipPath id="clip0_1481_2">
<rect width="1840" height="317" fill="white"/>
</clipPath>
</defs>
</svg>
